<?xml version="1.0" standalone="no"?>
<!DOCTYPE svg PUBLIC "-//W3C//DTD SVG 20010904//EN"
 "http://www.w3.org/TR/2001/REC-SVG-20010904/DTD/svg10.dtd">
<svg version="1.0" xmlns="http://www.w3.org/2000/svg"
 width="1291.000000pt" height="1786.000000pt" viewBox="0 0 1291.000000 1786.000000"
 preserveAspectRatio="xMidYMid meet">
<metadata>
Created by potrace 1.16, written by Peter Selinger 2001-2019
</metadata>
<g transform="translate(0.000000,1786.000000) scale(0.100000,-0.100000)"
fill="#ffffff" stroke="none">
<path d="M6155 17759 c4 -13 16 -33 26 -44 21 -23 55 -100 40 -91 -5 4 -15 -3
-22 -15 -9 -17 -8 -23 2 -30 19 -12 46 -11 54 1 3 6 11 10 16 10 6 0 2 -14 -8
-31 -16 -28 -16 -32 -2 -42 8 -7 20 -21 26 -31 10 -19 11 -19 22 2 14 27 35
29 26 3 -8 -25 15 -73 32 -67 8 4 13 -3 13 -18 0 -23 26 -61 83 -120 15 -16
27 -37 27 -47 0 -32 23 -69 42 -69 13 0 18 -8 18 -30 0 -16 5 -30 10 -30 6 0
10 -9 10 -20 0 -11 6 -19 13 -18 7 2 11 -6 9 -19 -2 -12 2 -24 8 -28 6 -3 8
-10 5 -15 -3 -4 2 -13 10 -20 7 -6 11 -19 9 -28 -5 -14 -2 -13 10 2 16 19 16
19 16 -1 0 -12 -4 -25 -10 -28 -15 -9 -12 -25 4 -19 7 3 16 -3 20 -12 9 -24 0
-29 -21 -13 -15 12 -16 12 -10 -4 4 -10 7 -23 7 -28 0 -4 7 -6 15 -3 17 7 21
-11 4 -21 -11 -8 -3 -57 14 -90 6 -11 10 -24 9 -29 -2 -4 2 -14 8 -21 8 -9 8
-15 0 -20 -5 -3 -10 -19 -10 -35 0 -16 -5 -32 -10 -35 -6 -4 -8 -11 -4 -16 3
-5 0 -16 -6 -24 -10 -13 -8 -15 16 -15 21 -1 25 -3 14 -9 -28 -15 -65 -20 -80
-11 -13 9 -12 13 7 28 18 14 21 23 15 51 -6 28 -12 34 -36 37 -16 2 -36 10
-45 19 -15 15 -14 17 2 26 21 12 22 29 2 29 -10 0 -15 10 -15 32 0 31 -1 31
-17 15 -16 -16 -16 -18 4 -38 19 -19 19 -23 6 -50 -17 -34 -44 -40 -36 -8 5
19 4 20 -15 8 -17 -11 -24 -11 -34 -1 -6 6 -8 15 -4 19 4 4 11 1 16 -7 12 -20
21 -8 27 39 5 35 3 39 -14 35 -19 -5 -73 29 -73 47 0 5 9 9 21 9 11 0 19 5 17
12 -5 15 -39 20 -54 7 -9 -8 -11 0 -7 33 l4 43 -25 -30 c-14 -16 -29 -26 -33
-21 -4 4 0 13 10 20 9 7 17 18 17 25 0 6 6 14 14 17 8 3 12 13 10 22 -1 9 -6
30 -9 46 l-6 29 -15 -28 c-8 -15 -14 -37 -15 -49 0 -13 -12 3 -31 43 -21 47
-26 66 -17 71 14 9 3 30 -17 30 -8 0 -14 5 -14 10 0 6 -6 10 -14 10 -7 0 -17
15 -20 33 -7 30 -8 31 -21 13 -14 -19 -15 -17 -16 20 l-1 39 -10 -45 c-11 -48
-32 -80 -55 -80 -7 0 -13 9 -13 20 0 12 5 17 14 14 7 -3 16 2 19 10 5 12 0 16
-18 16 -25 0 -35 23 -15 35 14 9 12 61 -3 73 -10 8 -13 6 -12 -11 0 -12 -4
-23 -10 -23 -5 -1 -9 2 -8 6 2 5 -8 18 -22 28 -13 11 -21 23 -17 27 4 4 -5 0
-20 -9 -29 -19 -48 -15 -48 11 0 9 -6 13 -15 9 -21 -8 -45 3 -45 21 0 8 -4 12
-9 9 -19 -12 -19 24 1 49 l21 27 -23 21 c-22 22 -22 22 -10 1 11 -18 10 -24
-9 -43 -27 -27 -41 -19 -41 22 0 26 -4 33 -20 34 -11 1 -20 -4 -20 -13 0 -8
-10 -14 -25 -14 -14 0 -29 -8 -35 -20 -6 -11 -17 -20 -25 -20 -19 0 -19 16 0
24 19 7 19 36 1 61 -8 11 -11 26 -8 35 4 11 0 11 -16 -4 -20 -17 -22 -17 -28
-2 -10 25 3 46 28 46 l22 0 -20 20 c-33 33 -52 17 -46 -38 3 -33 1 -44 -6 -37
-6 6 -12 24 -14 40 -2 23 -7 29 -21 27 -11 -2 -25 5 -33 15 -7 10 -14 14 -14
9 0 -5 11 -24 25 -42 14 -18 25 -37 25 -43 0 -6 5 -11 10 -11 6 0 10 -9 10
-20 0 -25 -16 -26 -29 -3 -5 10 -18 18 -28 18 -13 0 -17 7 -16 23 2 12 -1 22
-6 22 -23 0 -41 -14 -41 -31 0 -13 5 -17 16 -12 12 4 15 2 12 -8 -2 -8 -14
-15 -25 -17 -16 -2 -22 4 -27 29 -7 37 -1 49 24 49 10 0 22 5 25 10 3 6 -3 10
-14 10 -13 0 -19 5 -15 14 7 18 -27 31 -38 14 -4 -7 -6 -19 -3 -25 7 -21 -13
-15 -25 7 -7 14 -7 20 0 20 5 0 10 7 10 16 0 13 -7 15 -35 11 -38 -6 -40 -5
-25 24 6 10 7 19 2 19 -14 0 -32 -23 -32 -43 0 -16 -3 -17 -15 -7 -12 10 -18
6 -35 -22 -23 -38 -23 -38 -10 -58 7 -12 11 -10 18 10 l9 24 13 -31 c13 -29
14 -29 32 -11 10 10 32 18 53 18 l35 0 0 -56 c0 -30 4 -53 9 -50 5 3 11 0 14
-8 8 -19 57 -27 64 -10 8 21 22 17 34 -10 7 -14 17 -22 24 -20 7 3 15 -2 18
-10 4 -9 14 -16 22 -16 9 0 24 -7 32 -16 11 -11 26 -14 45 -10 24 5 30 2 38
-19 13 -33 22 -32 14 1 -5 20 -3 25 7 22 8 -3 15 -11 15 -19 1 -8 2 -20 3 -26
0 -7 12 -13 26 -13 14 0 29 -8 35 -20 10 -19 33 -29 28 -12 -4 11 5 14 25 7
23 -10 22 -24 -4 -34 -21 -7 -21 -9 11 -31 19 -13 31 -19 27 -13 -4 6 0 16 7
22 12 10 15 6 21 -19 4 -16 10 -28 15 -25 4 3 14 -3 21 -12 10 -12 10 -14 2
-9 -7 4 -13 5 -13 3 0 -3 16 -14 36 -26 19 -12 32 -26 29 -31 -3 -6 1 -10 10
-10 8 0 20 -11 25 -25 5 -14 12 -25 16 -25 3 0 4 7 0 15 -3 8 -1 15 4 15 9 0
11 -7 9 -26 0 -4 10 -12 22 -18 31 -15 36 -36 10 -43 -31 -8 -27 -39 6 -48 15
-3 31 -12 35 -18 5 -8 11 -7 22 2 14 12 16 10 16 -11 0 -31 9 -41 26 -27 10 8
11 1 7 -33 -3 -27 -13 -49 -27 -60 -36 -30 -50 -21 -21 13 28 34 28 55 1 53
-9 -1 -16 2 -16 8 0 5 -12 20 -27 33 -21 18 -32 21 -46 13 -13 -7 -18 -6 -16
4 1 7 -3 24 -9 38 -10 24 -11 23 -11 -12 -1 -21 -5 -38 -11 -38 -5 0 -10 11
-10 25 0 25 -15 64 -45 115 -9 16 -15 19 -15 9 0 -8 7 -24 15 -35 8 -10 15
-22 15 -26 0 -15 -31 -8 -36 7 -4 8 -12 15 -20 15 -20 0 -17 24 6 45 11 10 20
21 20 25 0 11 -54 -1 -62 -14 -5 -7 -8 -5 -8 5 0 8 -6 24 -14 35 -14 19 -14
19 -13 -1 3 -29 -20 -24 -42 9 -21 32 -87 62 -94 42 -2 -6 -7 -8 -11 -4 -4 3
-3 15 3 26 12 23 6 32 -19 25 -11 -3 -22 -19 -27 -41 l-9 -37 -17 34 c-21 42
-21 47 -2 31 12 -10 15 -10 15 2 0 19 -47 44 -74 40 -20 -2 -20 -2 -2 12 20
16 14 36 -12 36 -13 0 -14 -2 -3 -9 8 -5 9 -11 3 -15 -15 -9 -44 5 -38 19 5
15 -17 36 -57 53 -37 16 -42 15 -23 -4 9 -8 16 -26 16 -40 0 -24 -14 -32 -25
-14 -9 14 -52 12 -59 -2 -3 -9 -11 -5 -26 11 -14 17 -18 27 -10 35 7 7 14 6
22 -2 16 -16 28 -15 28 3 0 21 20 19 21 -2 0 -12 2 -13 6 -5 7 17 -15 42 -32
36 -8 -3 -20 -2 -26 2 -9 5 -7 10 7 15 18 7 18 8 -2 8 -12 1 -24 -6 -28 -14
-3 -8 -13 -15 -22 -15 -10 0 -14 5 -10 15 3 9 0 15 -9 15 -18 0 -20 20 -2 20
13 1 -21 30 -35 30 -4 0 -8 -14 -8 -30 0 -27 -2 -30 -25 -24 -21 5 -25 3 -25
-15 0 -12 -4 -21 -10 -21 -14 0 -12 64 2 78 9 9 8 12 -5 12 -12 0 -17 -8 -17
-29 0 -33 -9 -61 -19 -61 -3 0 -6 22 -7 50 -1 48 -18 85 -34 75 -5 -3 -10 1
-13 7 -4 12 -10 2 -23 -40 -6 -19 -27 -10 -40 16 -8 16 -13 19 -22 10 -8 -8
-7 -19 6 -40 13 -23 22 -28 40 -23 17 4 23 2 20 -7 -3 -7 -13 -15 -24 -17 -10
-2 -24 -11 -31 -20 -11 -14 -12 -13 -13 12 0 17 -5 27 -15 27 -11 0 -15 12
-15 49 0 28 -4 53 -10 56 -5 3 -10 -2 -10 -12 0 -10 -9 -24 -20 -31 -11 -7
-20 -19 -20 -27 0 -8 -4 -15 -10 -15 -5 0 -10 22 -10 49 0 52 -23 88 -40 61
-4 -7 -15 -10 -24 -7 -9 4 -16 3 -16 -2 0 -5 -9 -11 -20 -14 -10 -3 -22 -16
-25 -31 -3 -14 -7 -37 -10 -51 -4 -17 -12 -25 -25 -25 -22 0 -27 -15 -9 -26 6
-3 16 -1 22 5 14 14 30 15 22 1 -3 -5 -2 -10 4 -10 5 0 13 5 16 10 12 20 21 9
17 -20 -3 -18 0 -30 7 -30 6 0 11 6 11 14 0 8 5 18 11 22 8 5 10 -3 7 -25 -3
-17 -1 -28 3 -24 4 4 9 19 11 33 1 14 8 24 13 22 9 -2 11 -10 14 -56 1 -16 7
-18 45 -13 46 7 96 -9 96 -30 0 -9 8 -9 30 -2 17 6 30 18 30 27 0 10 5 24 11
32 8 11 9 3 6 -32 -4 -41 -2 -48 14 -48 10 0 21 5 24 10 4 6 11 8 16 4 5 -3 7
-9 4 -14 -3 -5 11 -12 32 -15 21 -4 48 -10 61 -16 29 -12 35 -11 27 1 -14 23
25 8 43 -17 15 -21 28 -27 60 -27 24 -1 48 -8 60 -19 22 -20 42 -16 42 9 0 11
4 10 19 -3 15 -15 16 -20 4 -29 -11 -10 -11 -13 3 -18 9 -3 20 -3 25 0 5 3 19
-5 30 -18 14 -16 22 -19 25 -10 8 18 24 15 24 -5 0 -17 130 -112 173 -126 9
-4 17 -11 17 -17 0 -5 9 -10 20 -10 13 0 20 -7 20 -19 0 -13 9 -20 35 -24 22
-4 45 -18 65 -41 17 -19 40 -38 51 -41 10 -4 19 -15 19 -26 0 -12 7 -19 18
-19 13 0 18 -8 17 -27 0 -24 4 -28 27 -26 18 1 28 -4 31 -18 3 -10 1 -22 -5
-25 -5 -4 -3 -13 6 -22 8 -10 18 -29 21 -45 6 -23 10 -26 23 -15 13 11 15 9
10 -14 -4 -20 -1 -28 8 -28 8 0 14 -9 14 -19 0 -33 11 -51 32 -51 10 0 16 -4
13 -10 -3 -5 0 -10 7 -10 24 0 -18 -32 -53 -40 -31 -7 -30 -8 19 -9 46 -1 54
-4 62 -26 6 -16 14 -23 25 -19 11 5 15 -1 15 -24 0 -60 -23 -84 -33 -34 -10
44 -23 58 -41 43 -10 -9 -20 -10 -33 -2 -16 9 -15 11 10 20 15 6 27 13 27 16
0 6 -51 -14 -67 -27 -7 -6 -13 -19 -13 -29 0 -30 -20 -22 -26 9 -5 24 -10 28
-30 24 -15 -3 -24 -11 -24 -23 0 -25 -16 -24 -23 2 -5 20 -7 20 -38 4 -27 -15
-31 -15 -26 -2 3 9 0 18 -8 21 -7 2 -16 -1 -18 -8 -7 -16 -57 -10 -73 9 -16
21 -30 4 -40 -50 -10 -55 -34 -68 -44 -25 -4 17 -8 21 -14 12 -10 -17 -29 -15
-22 3 3 8 1 15 -4 15 -5 0 -12 -11 -16 -24 -4 -18 -11 -23 -22 -19 -15 6 -15
4 1 -14 17 -20 17 -21 -7 -25 -14 -3 -30 -2 -37 3 -7 4 -23 0 -35 -8 -34 -22
-49 -12 -46 29 2 20 -1 39 -7 43 -7 4 -11 -7 -11 -29 0 -19 -4 -38 -10 -41 -5
-3 -10 -2 -10 3 0 6 -8 9 -17 8 -10 0 -19 7 -21 18 -3 14 0 17 12 13 20 -8 23
28 4 39 -7 4 -10 4 -6 0 4 -5 -6 -20 -21 -35 -17 -16 -28 -37 -27 -52 1 -20
-4 -24 -28 -24 -16 0 -31 6 -33 13 -3 7 4 12 16 12 12 0 21 6 21 15 0 20 -36
19 -44 -1 -3 -9 -6 -33 -6 -55 0 -21 -4 -39 -10 -39 -5 0 -10 7 -10 15 0 19
-14 19 -29 1 -13 -16 -26 -15 -57 2 -24 13 -34 7 -34 -18 0 -9 -9 -25 -19 -34
-18 -17 -19 -16 -26 23 -4 23 -10 41 -14 41 -18 0 -20 -15 -6 -36 12 -19 12
-24 0 -34 -8 -7 -22 -10 -30 -6 -9 3 -15 0 -15 -9 0 -8 -7 -15 -15 -15 -9 0
-18 -7 -21 -15 -4 -8 -17 -15 -30 -15 -14 0 -24 -6 -24 -14 0 -8 -5 -18 -12
-22 -16 -10 -40 27 -33 54 3 12 1 22 -5 22 -5 0 -10 -11 -10 -24 0 -30 -31
-86 -47 -86 -6 0 -14 6 -16 13 -3 7 -6 5 -6 -6 -1 -10 -7 -17 -13 -15 -34 6
-87 -14 -94 -35 -6 -20 -7 -21 -14 -3 -5 17 -8 16 -24 -9 -10 -15 -13 -24 -7
-21 12 8 14 -3 3 -20 -10 -17 -63 -14 -69 3 -4 11 -10 10 -29 -8 -23 -22 -22
-49 2 -49 19 0 18 -26 -1 -34 -12 -4 -21 6 -35 37 -18 41 -19 41 -19 12 -1
-23 -4 -27 -11 -15 -8 12 -10 12 -10 1 0 -8 7 -19 16 -25 9 -7 12 -18 9 -28
-6 -16 -9 -16 -31 -1 -13 8 -24 22 -24 29 0 8 -10 14 -25 14 -22 0 -25 -4 -25
-40 0 -47 -15 -53 -23 -10 -12 56 -47 32 -47 -31 0 -35 -22 -39 -44 -7 -13 18
-16 19 -16 5 0 -10 -8 -17 -20 -17 -11 0 -20 -7 -20 -15 0 -8 5 -15 11 -15 5
0 7 -5 4 -11 -4 -6 -13 -8 -21 -5 -8 3 -14 -1 -14 -9 0 -7 -5 -26 -12 -42
l-12 -28 -5 39 -6 38 -27 -25 c-19 -18 -28 -36 -28 -57 0 -37 -20 -40 -21 -2
-1 16 -3 20 -6 10 -2 -10 -14 -18 -25 -18 -14 0 -18 -5 -14 -16 3 -9 6 -19 6
-22 0 -4 4 0 10 8 16 26 25 0 8 -28 -21 -34 -46 -45 -28 -12 11 20 10 21 -9
11 -11 -6 -30 -11 -44 -11 -13 0 -27 -3 -31 -7 -4 -5 -13 -8 -19 -8 -7 0 -11
-11 -10 -23 2 -13 -4 -39 -12 -59 -19 -45 -19 -62 0 -37 13 18 14 16 15 -23 0
-45 -14 -66 -23 -32 -3 11 -15 23 -26 26 -13 3 -21 15 -24 37 -3 21 -4 16 -6
-19 -1 -36 -4 -46 -11 -35 -5 8 -10 27 -10 43 0 33 -15 36 -24 5 -5 -19 -8
-21 -16 -8 -7 10 -10 11 -10 2 0 -7 9 -20 20 -29 28 -24 25 -34 -7 -22 -19 7
-29 7 -31 0 -2 -6 -15 -11 -28 -11 -15 0 -23 -4 -19 -10 4 -6 10 -8 15 -5 12
8 23 -31 15 -56 -4 -12 -12 -18 -21 -15 -9 3 -14 -1 -14 -14 0 -33 -19 -32
-23 2 l-4 33 -1 -37 c-1 -20 3 -40 8 -43 13 -8 13 -25 0 -25 -6 0 -19 18 -29
41 -20 44 -35 33 -17 -12 11 -32 -5 -59 -35 -59 -16 0 -18 5 -13 25 9 35 -14
33 -26 -2 -6 -16 -17 -40 -25 -54 -11 -20 -11 -29 -3 -37 9 -9 9 -12 -1 -12
-10 0 -12 -10 -7 -40 6 -40 6 -40 -21 -34 -16 4 -36 14 -47 23 -18 15 -18 15
-12 -9 l7 -25 -21 25 -21 25 5 -35 c6 -38 0 -54 -24 -63 -10 -3 -7 -6 8 -6 24
-1 27 -25 4 -27 -7 -1 -16 -2 -20 -3 -13 -2 -33 -51 -27 -62 4 -5 14 -9 24 -9
24 0 67 -46 49 -53 -10 -3 -8 -9 7 -21 16 -12 17 -15 4 -16 -20 0 -39 20 -39
41 0 10 -5 21 -12 25 -8 5 -9 2 -5 -9 3 -9 2 -19 -3 -22 -14 -9 -61 17 -56 31
3 8 0 11 -10 7 -7 -3 -14 -9 -14 -15 0 -5 -4 -7 -9 -3 -6 3 -9 -6 -8 -19 1
-14 -2 -25 -8 -26 -5 -1 -18 -9 -28 -18 -15 -13 -17 -25 -11 -69 3 -29 12 -69
19 -89 15 -44 9 -74 -14 -74 -19 0 -41 -18 -41 -34 0 -5 8 -2 18 7 23 21 32
21 32 3 0 -21 24 -38 37 -25 19 19 21 -5 2 -35 l-18 -30 -10 27 c-6 15 -17 27
-25 27 -24 0 -46 -12 -41 -21 3 -5 -2 -23 -11 -40 -14 -28 -15 -39 -4 -85 7
-28 10 -57 6 -63 -5 -7 -1 -9 8 -5 12 5 16 0 16 -19 0 -31 -27 -57 -36 -34 -3
9 -3 20 -1 24 3 5 -3 10 -14 10 -18 2 -19 -2 -14 -28 4 -18 2 -36 -5 -44 -10
-12 -9 -15 10 -15 16 0 20 -4 16 -16 -3 -9 -6 -17 -6 -20 0 -2 -13 -10 -30
-19 -19 -10 -30 -23 -30 -36 0 -17 -5 -20 -24 -17 -18 4 -26 0 -29 -13 -4 -15
-2 -17 13 -9 10 6 28 10 39 10 29 0 29 -46 1 -53 -17 -4 -20 -2 -15 14 4 11 2
19 -5 19 -8 0 -10 -12 -5 -39 5 -33 4 -40 -12 -43 -12 -3 -3 -9 26 -18 25 -8
47 -21 49 -29 3 -8 -1 -12 -9 -9 -8 3 -24 -4 -37 -16 -18 -16 -25 -18 -31 -7
-11 17 -31 6 -31 -16 0 -9 3 -13 7 -10 10 10 32 -27 23 -38 -4 -6 -2 -16 6
-23 12 -11 14 -10 16 5 0 10 4 -2 7 -27 5 -40 9 -45 34 -48 16 -2 35 2 43 9
18 14 19 0 2 -36 -8 -19 -17 -25 -31 -21 -12 3 -21 -3 -26 -17 -12 -32 -3 -40
26 -22 30 20 38 15 29 -20 -5 -19 -13 -25 -34 -26 -23 0 -22 -2 12 -12 51 -16
57 -34 13 -42 -39 -8 -47 -27 -47 -121 0 -43 3 -52 15 -48 8 4 15 14 15 23 0
18 77 87 86 78 3 -2 2 -17 -2 -31 -5 -20 -12 -26 -28 -24 -20 3 -21 -2 -22
-67 -1 -47 3 -78 13 -94 14 -22 14 -23 -1 -18 -9 4 -23 10 -32 14 -12 4 -15 2
-12 -8 2 -8 15 -15 27 -17 15 -2 21 -9 17 -18 -9 -23 8 -16 51 21 44 37 83 50
45 15 -12 -12 -22 -27 -22 -35 0 -9 -9 -15 -21 -15 -17 0 -20 -4 -14 -22 5
-18 16 -98 24 -178 1 -3 19 -16 40 -30 40 -24 50 -42 52 -95 l1 -30 11 28 c6
15 14 27 19 27 13 0 9 -28 -8 -61 -15 -31 -10 -57 6 -29 5 8 15 24 24 35 14
19 15 19 22 1 5 -13 1 -24 -12 -35 -27 -22 -19 -95 11 -98 17 -1 18 0 5 10
-18 14 -25 63 -10 72 6 4 17 -9 26 -27 l15 -33 -6 40 c-5 37 -4 39 10 21 8
-11 15 -36 15 -55 0 -46 13 -66 35 -57 14 5 16 2 12 -14 -3 -11 -1 -23 4 -26
14 -8 11 -24 -5 -24 -8 0 -16 6 -19 14 -3 7 -19 23 -36 35 -29 21 -31 21 -31
4 0 -26 20 -52 27 -35 8 19 17 14 31 -17 14 -31 42 -37 54 -11 5 11 7 9 7 -8
1 -12 12 -32 26 -44 16 -13 25 -32 25 -50 0 -18 5 -28 15 -28 18 0 20 -16 3
-26 -7 -5 -4 -10 10 -15 12 -4 30 -26 42 -48 11 -23 31 -48 43 -56 13 -8 29
-25 36 -38 19 -34 61 -63 71 -47 14 22 40 3 40 -28 0 -16 7 -35 15 -42 17 -14
51 -8 47 9 -2 8 7 11 25 9 22 -2 29 -10 34 -36 5 -24 3 -35 -10 -42 -14 -8
-13 -9 5 -10 16 0 23 8 29 33 6 29 7 30 15 11 5 -12 14 -25 20 -29 9 -6 9 -10
-1 -16 -11 -7 -10 -9 5 -9 13 0 17 -5 13 -20 -6 -23 31 -54 54 -45 19 7 36 -6
40 -29 2 -11 10 -21 17 -24 7 -2 10 2 6 12 -9 24 8 19 42 -13 23 -22 34 -27
43 -18 8 8 11 6 11 -9 0 -13 7 -20 20 -21 24 -2 26 15 4 45 -21 31 -13 37 15
13 14 -12 25 -36 28 -60 6 -42 23 -57 23 -21 0 22 15 27 26 9 3 -6 1 -16 -5
-22 -6 -6 -11 -16 -11 -22 0 -5 9 1 20 15 13 16 20 20 20 10 0 -10 5 -7 16 8
18 26 39 29 48 6 11 -27 7 -37 -9 -24 -12 10 -15 10 -15 -4 0 -15 15 -20 52
-17 11 1 24 -14 37 -45 12 -26 24 -44 28 -41 3 4 0 18 -7 32 -15 28 -9 41 16
31 12 -4 15 -15 12 -36 -3 -20 0 -30 9 -30 7 0 13 8 13 18 1 14 3 14 19 -5 19
-23 38 -32 26 -13 -3 6 -1 10 4 10 6 0 11 -12 11 -27 0 -25 1 -26 20 -8 16 15
22 15 35 5 8 -7 15 -20 15 -28 0 -13 3 -12 16 4 11 13 17 15 20 7 3 -7 12 -13
20 -13 8 0 17 -7 20 -15 4 -8 16 -15 28 -15 12 0 38 -12 57 -26 26 -19 42 -24
67 -20 23 3 35 1 39 -9 7 -20 66 -55 92 -55 12 0 41 -10 64 -21 34 -18 47 -20
70 -11 23 9 31 7 48 -11 17 -18 21 -19 29 -7 8 12 11 12 28 -3 14 -13 21 -14
30 -5 9 9 12 8 12 -5 0 -18 25 -23 35 -7 10 15 25 12 32 -7 11 -29 31 -45 39
-32 4 6 20 8 40 4 34 -6 34 -5 28 22 -6 27 -5 27 26 -10 29 -34 70 -50 70 -27
0 6 -5 10 -12 10 -8 0 -9 3 -2 10 16 16 48 0 69 -33 11 -18 28 -33 37 -35 14
-3 17 6 20 45 2 26 8 47 13 45 6 -1 8 -23 6 -48 -2 -31 1 -44 8 -40 5 4 8 13
5 20 -7 18 22 40 42 32 16 -6 15 -8 -2 -21 -16 -11 -16 -14 -4 -18 8 -2 31 -9
51 -16 51 -16 80 -14 73 4 -4 8 -1 15 5 15 7 0 16 -10 21 -22 5 -13 9 -18 10
-13 0 6 5 3 10 -5 8 -12 10 -10 10 9 l0 24 23 -21 c13 -12 32 -22 43 -22 16 0
16 2 -5 13 -26 13 -40 37 -22 37 6 0 11 -4 11 -9 0 -17 35 -17 47 -1 11 13 12
12 13 -6 0 -18 11 -24 73 -38 105 -26 130 -26 142 2 12 27 25 28 32 2 3 -11 9
-17 14 -14 5 3 9 -1 9 -8 1 -8 5 -7 14 5 8 10 20 16 27 15 9 -2 15 8 17 25 2
15 8 27 13 27 6 0 9 -14 7 -32 -2 -26 1 -33 17 -35 20 -3 20 -3 0 6 -19 8 -19
8 3 20 18 10 23 9 28 -4 12 -29 30 -16 26 19 -2 18 1 37 7 40 7 5 11 -3 11
-21 0 -31 34 -61 46 -42 3 6 1 16 -5 22 -21 21 -11 29 14 13 23 -15 25 -15 27
1 0 10 0 29 -1 42 -2 21 0 23 13 12 12 -10 14 -24 9 -59 -5 -41 -4 -45 9 -35
11 10 17 10 27 0 10 -9 15 -8 26 7 8 10 12 22 10 26 -7 12 23 33 35 25 8 -5 6
-12 -4 -24 -15 -16 -14 -19 10 -29 30 -14 53 -5 97 40 34 34 47 35 47 6 0 -13
5 -30 10 -38 7 -11 10 -7 10 18 0 37 12 42 28 10 10 -22 11 -21 11 10 1 33 30
59 39 34 2 -7 10 -12 19 -12 8 0 13 -6 10 -12 -2 -7 -12 -12 -21 -12 -9 1 -16
-4 -16 -12 0 -21 18 -26 29 -7 5 10 13 15 17 11 12 -12 54 41 54 68 0 27 18
39 47 31 16 -4 16 -6 -3 -12 -13 -4 -24 -18 -27 -33 -2 -15 -7 -34 -11 -43 -6
-14 0 -16 33 -15 40 1 40 1 16 16 -30 18 -32 30 -6 30 10 0 21 8 24 19 4 17
54 38 65 26 3 -3 -4 -15 -16 -28 -23 -24 -30 -57 -12 -57 6 0 10 9 10 19 0 21
17 37 28 27 3 -4 1 -16 -6 -26 -11 -18 -10 -19 21 -13 17 3 34 10 35 15 2 4 8
6 13 2 5 -3 9 0 9 6 0 6 5 8 10 5 6 -3 10 -1 10 6 0 11 -16 9 -52 -6 -14 -5
-18 -2 -18 14 0 14 6 21 19 21 11 0 22 6 24 13 4 9 8 8 16 -3 9 -12 11 -11 11
7 0 15 5 21 14 17 8 -3 16 2 19 13 3 15 6 14 15 -8 6 -15 18 -29 27 -33 23 -9
25 -8 25 9 0 8 -4 15 -10 15 -5 0 -14 10 -21 22 -10 18 -9 20 6 14 10 -3 23
-2 30 4 10 8 15 6 20 -9 3 -12 4 -25 0 -30 -12 -20 15 -21 35 -1 14 14 33 20
64 20 31 0 46 5 50 16 9 24 -13 47 -30 33 -11 -9 -14 -8 -14 5 0 20 24 31 48
20 17 -7 27 -11 39 -13 4 0 2 -6 -5 -13 -7 -7 -12 -19 -12 -28 1 -10 8 -6 25
13 18 20 25 23 25 12 0 -12 4 -14 19 -5 11 5 41 10 68 10 42 0 51 4 81 37 27
31 35 35 42 23 7 -11 10 -5 10 23 0 43 17 50 23 10 4 -25 4 -25 6 6 1 28 3 32
16 21 20 -17 19 -1 -2 22 -21 23 2 25 27 3 16 -14 18 -14 23 -1 4 9 2 18 -3
21 -15 9 -12 35 4 35 19 0 37 -24 46 -63 5 -22 8 -25 9 -10 1 16 6 20 21 16
11 -3 20 0 20 6 0 6 6 11 14 11 8 0 16 7 20 15 4 12 0 14 -19 9 -34 -8 -32 11
3 41 37 33 52 31 53 -7 l1 -33 8 30 c4 17 8 39 9 50 0 16 -1 17 -9 5 -11 -18
-25 -7 -17 15 7 16 47 21 47 5 0 -5 5 -10 10 -10 6 0 10 7 10 15 0 8 5 15 10
15 6 0 10 11 10 25 0 25 14 33 25 15 9 -14 32 -1 40 23 7 21 7 21 18 -5 13
-33 27 -37 27 -7 0 16 4 19 20 14 17 -5 20 -2 20 26 0 27 2 30 15 19 21 -17
29 -7 16 18 -6 12 -11 25 -11 30 0 10 30 9 48 -2 8 -5 11 0 9 16 -1 18 4 23
27 28 33 6 46 27 21 36 -9 4 -21 -1 -29 -11 -17 -23 -29 -5 -20 29 8 34 46 49
50 20 4 -27 14 -29 14 -2 0 39 13 42 27 6 7 -18 12 -24 10 -12 -4 17 1 21 24
21 16 0 29 -5 30 -11 0 -11 17 22 18 37 1 4 -8 7 -19 7 -17 0 -19 5 -13 33 9
48 22 69 23 35 0 -15 5 -30 10 -33 6 -3 10 3 10 15 0 11 8 24 18 27 9 4 19 9
22 12 13 16 50 30 50 20 0 -5 5 -7 10 -4 6 4 7 13 1 23 -9 17 -15 69 -12 110
1 28 17 29 24 1 8 -30 53 -23 50 9 -2 15 3 22 15 22 10 0 13 3 6 8 -19 12 -26
50 -12 71 17 27 32 26 51 -1 8 -13 18 -20 22 -16 9 8 -16 45 -30 45 -5 0 -11
7 -13 16 -2 9 1 17 7 17 6 0 11 -6 11 -12 0 -7 9 2 20 20 11 18 20 42 20 55 0
12 7 31 15 41 8 11 15 28 15 38 0 10 5 18 10 18 6 0 10 -14 10 -31 0 -24 3
-30 16 -25 9 3 18 6 20 6 3 0 0 9 -6 19 -5 11 -9 36 -8 56 2 29 7 35 21 31 11
-3 17 2 17 13 0 9 6 23 13 31 10 12 9 12 -6 1 -27 -21 -32 -6 -14 50 10 28 17
59 17 69 0 10 11 25 25 34 14 9 25 24 25 34 1 13 4 11 15 -8 14 -25 19 -21 16
12 -1 9 3 19 9 23 5 3 10 19 10 35 0 45 10 63 26 49 17 -14 18 -5 4 22 -6 11
-21 19 -35 19 -16 0 -25 6 -25 16 0 14 3 14 15 4 12 -10 15 -10 15 0 0 8 8 10
25 6 14 -4 25 -2 25 4 0 5 -9 10 -20 10 -11 0 -20 5 -20 10 0 6 6 10 14 10 8
0 16 6 19 13 4 10 -5 14 -31 15 -20 1 -38 6 -40 12 -2 5 -17 10 -33 10 -16 0
-29 4 -29 8 0 12 52 13 66 1 19 -16 18 0 -1 21 -15 16 -12 18 35 24 28 4 48
11 45 16 -4 6 -1 10 4 10 6 0 11 14 11 30 0 17 -4 30 -10 30 -5 0 -10 -9 -10
-19 0 -14 -5 -18 -20 -14 -25 7 -45 39 -30 48 5 3 10 1 10 -5 0 -6 11 -5 30 5
18 9 30 23 30 36 0 17 -3 18 -21 8 -17 -9 -23 -8 -30 2 -9 14 -12 28 -10 41 0
3 -13 11 -29 17 -17 5 -30 15 -30 20 0 6 6 8 14 5 8 -3 16 -1 20 4 8 14 66 2
66 -14 0 -22 -4 -29 -17 -28 -7 1 -10 -2 -7 -7 3 -5 13 -9 23 -9 14 0 17 9 17
63 -1 61 -2 62 -33 72 l-32 11 29 12 c21 9 27 18 23 32 -3 11 -1 26 4 33 14
17 15 155 2 179 -8 15 -8 19 0 14 18 -12 12 16 -6 31 -17 14 -17 14 0 9 17 -5
18 -1 14 36 -3 23 -12 47 -21 53 -21 16 -20 22 4 28 13 3 20 13 19 29 l0 23
-9 -22 c-10 -26 -40 -31 -40 -8 0 8 5 15 10 15 6 0 10 23 10 50 0 43 -3 50
-19 50 -30 0 -51 11 -51 26 0 8 -4 14 -8 14 -13 0 -14 151 -1 167 11 12 2 18
-23 14 -11 -1 -10 7 2 30 8 14 6 29 -9 60 -11 23 -18 45 -16 50 3 4 0 42 -6
84 l-12 76 -25 -23 c-13 -13 -32 -39 -40 -58 -12 -27 -17 -31 -20 -17 -2 10 2
33 9 50 8 18 12 41 10 52 -2 16 0 17 11 7 18 -15 28 -6 28 25 0 13 -6 23 -14
23 -8 0 -15 8 -15 18 0 9 -3 32 -7 51 l-7 34 -13 -24 -12 -24 -11 28 c-6 16
-11 32 -11 37 0 4 -7 11 -16 14 -8 3 -12 10 -9 16 3 5 1 10 -5 10 -6 0 -8 5
-5 11 4 6 13 8 20 5 11 -4 11 1 4 24 -12 32 -39 49 -39 24 0 -9 -5 -13 -12
-10 -7 3 -21 9 -30 12 -10 4 -18 13 -18 22 0 13 -2 13 -18 -1 -27 -24 -32 -21
-32 18 0 24 5 35 15 35 19 0 19 17 1 27 -9 5 -16 28 -19 58 l-3 50 -2 -57 c-2
-58 -2 -58 -33 -58 -23 0 -30 4 -26 14 3 8 9 32 12 53 5 28 4 34 -4 23 -9 -13
-11 -13 -11 1 0 8 5 20 12 27 9 9 9 12 1 12 -7 0 -15 -4 -18 -10 -11 -17 -20
-11 -33 23 -10 24 -15 29 -21 18 -7 -11 -14 -7 -30 20 -12 19 -21 45 -21 58 0
13 -11 34 -25 47 -14 13 -25 33 -25 46 0 13 -9 29 -20 36 -18 11 -20 10 -20
-8 0 -11 6 -20 14 -20 9 0 12 -7 9 -20 -3 -11 0 -26 6 -34 8 -9 8 -16 2 -20
-10 -7 -25 12 -55 69 -8 17 -15 24 -16 18 0 -23 -20 -14 -21 10 0 12 -7 38
-14 57 -11 29 -14 31 -14 12 -1 -29 -25 -24 -29 6 -2 12 -8 22 -14 22 -6 0 -8
-10 -4 -25 4 -14 4 -25 1 -25 -10 0 -35 68 -35 96 0 15 -3 24 -6 21 -4 -3 -15
-2 -25 4 -17 8 -19 6 -19 -21 0 -16 4 -30 10 -30 16 0 32 -39 22 -55 -6 -12
-14 -4 -34 35 -22 43 -27 48 -33 30 -10 -32 -23 -23 -30 21 -5 27 -3 44 4 48
8 5 7 13 -3 26 -12 17 -14 15 -20 -19 -7 -37 -26 -41 -26 -5 0 10 -7 19 -15
19 -12 0 -13 4 -6 19 14 26 1 35 -16 11 -17 -24 -46 -26 -67 -4 -20 20 -21 38
-1 30 18 -6 19 -2 4 26 -10 18 -8 24 12 39 21 16 22 19 5 19 -12 0 -16 5 -12
15 3 9 0 15 -9 15 -11 0 -15 -12 -15 -45 0 -25 -5 -45 -11 -45 -6 0 -8 -8 -4
-19 3 -11 1 -22 -5 -26 -5 -3 -10 -1 -10 5 0 7 -21 36 -46 65 -44 52 -45 54
-29 79 13 20 14 24 2 22 -17 -2 -47 -31 -47 -45 0 -10 -38 -26 -46 -18 -3 2 2
12 11 20 8 9 15 20 15 26 0 6 5 11 11 11 5 0 7 5 4 10 -5 8 -11 7 -21 -1 -11
-9 -14 -9 -14 1 0 10 -4 10 -16 -1 -13 -10 -17 -10 -25 2 -5 8 -8 24 -6 37 3
17 1 20 -8 12 -9 -8 -14 -7 -18 2 -3 10 -9 8 -25 -6 -18 -16 -24 -17 -38 -5
-14 12 -14 14 7 21 12 5 19 11 16 14 -9 9 -47 -16 -47 -31 0 -26 -19 -16 -37
18 -19 37 -25 54 -24 82 0 19 -1 19 -10 2 -6 -10 -8 -35 -4 -56 4 -24 2 -42
-4 -46 -6 -3 -11 0 -11 8 0 20 -36 51 -45 38 -11 -18 -28 -12 -20 7 4 9 8 24
8 32 0 20 18 31 42 25 11 -3 5 2 -14 11 -18 8 -40 13 -47 10 -22 -8 -64 15
-64 35 0 10 -5 21 -11 25 -8 4 -9 -3 -4 -25 6 -28 4 -31 -17 -32 -15 0 -18 -3
-8 -6 8 -3 18 -11 22 -17 5 -7 8 -3 8 8 0 18 1 18 18 3 10 -10 23 -17 29 -17
6 0 14 -7 17 -16 11 -30 6 -37 -14 -19 -11 10 -20 13 -20 7 0 -5 -9 -8 -20 -5
-11 3 -20 1 -20 -5 0 -24 13 -42 32 -42 10 0 16 -5 13 -10 -11 -19 38 -29 63
-14 20 13 22 13 22 -5 0 -22 25 -45 39 -36 6 3 21 -5 34 -17 13 -13 29 -22 35
-20 7 2 12 -1 12 -7 0 -6 7 -8 15 -5 8 4 15 1 15 -5 0 -7 15 -18 33 -26 19 -8
39 -21 47 -29 7 -9 18 -16 24 -16 6 0 39 -18 74 -40 35 -22 68 -38 73 -35 5 4
9 1 9 -4 0 -6 6 -11 14 -11 8 0 26 -15 40 -32 14 -18 26 -27 26 -20 0 21 16
13 28 -13 6 -14 16 -25 22 -25 5 0 19 -8 30 -17 11 -10 30 -20 42 -23 13 -3
25 -16 28 -30 4 -16 14 -26 28 -28 14 -2 22 -10 22 -24 0 -17 3 -18 14 -9 12
10 13 9 9 -8 -4 -16 -1 -19 15 -14 15 3 23 -3 33 -26 8 -17 18 -31 24 -31 5 0
17 -15 26 -32 9 -19 26 -35 40 -38 13 -3 24 -10 24 -16 0 -5 10 -22 23 -38 22
-29 22 -29 22 -5 1 23 1 23 12 4 6 -11 17 -23 23 -27 7 -4 10 -18 8 -31 -4
-17 2 -26 21 -35 20 -9 26 -19 26 -42 0 -30 13 -37 58 -31 6 1 12 -2 12 -7 0
-16 -13 -22 -27 -11 -10 9 -13 8 -13 -4 0 -8 7 -20 16 -28 8 -7 22 -25 29 -39
13 -25 12 -28 -15 -49 -35 -26 -47 -27 -29 -3 7 9 9 14 4 9 -4 -4 -17 0 -27
10 -19 17 -25 39 -8 28 6 -3 10 -1 10 4 0 11 -13 15 -37 12 -7 -1 -13 7 -13
19 0 21 -15 27 -25 9 -4 -6 2 -20 13 -32 28 -31 38 -67 18 -67 -10 0 -16 9
-16 24 0 13 -7 26 -15 30 -10 4 -15 -1 -15 -14 0 -11 -4 -20 -10 -20 -5 0 -10
4 -10 9 0 5 -7 17 -17 26 -13 14 -14 18 -3 25 8 5 18 6 22 4 13 -8 9 21 -4 34
-22 22 -48 13 -63 -22 -8 -19 -25 -38 -37 -42 -13 -4 -28 -14 -35 -23 -6 -9
-15 -12 -19 -8 -5 4 -3 16 4 25 7 9 15 24 18 33 3 8 19 20 35 26 26 10 29 16
27 48 -1 26 -6 35 -18 32 -8 -2 -14 -9 -12 -15 1 -7 3 -18 5 -24 1 -7 -5 -13
-13 -13 -11 0 -15 11 -15 38 0 28 -4 37 -16 37 -9 0 -19 9 -22 20 -3 11 -11
20 -19 19 -10 0 -10 -2 0 -6 19 -7 14 -21 -10 -29 -13 -3 -35 -15 -50 -25 -16
-12 -29 -15 -33 -9 -9 14 37 72 52 66 7 -3 13 1 13 8 0 9 -7 12 -19 9 -15 -4
-20 1 -23 19 -2 19 -8 23 -35 22 -18 -1 -33 2 -33 7 0 5 -6 9 -14 9 -8 0 -18
9 -21 20 -4 11 -10 18 -15 15 -4 -2 -18 11 -31 30 -13 19 -33 36 -44 37 -14 2
-19 9 -17 23 3 16 1 17 -9 8 -19 -19 -59 13 -59 48 0 19 -5 29 -15 29 -8 0
-15 7 -15 15 0 12 -4 13 -19 5 -32 -17 -48 -11 -25 8 21 18 21 19 3 41 -11 13
-19 29 -19 36 0 7 -7 15 -15 19 -8 3 -15 16 -15 28 0 18 -2 20 -10 8 -8 -13
-11 -13 -27 3 -11 10 -13 17 -5 17 19 0 14 20 -5 20 -16 1 -16 2 1 15 19 14
19 15 -6 15 -18 0 -29 7 -33 21 -7 20 -8 20 -26 3 -15 -13 -22 -15 -31 -6 -30
30 -80 -8 -60 -44 8 -14 11 -11 20 15 13 37 26 41 19 5 -3 -18 -1 -22 6 -15 6
6 16 11 23 11 19 0 4 -38 -17 -43 -16 -4 -19 -14 -18 -54 0 -42 2 -45 11 -25
12 24 34 31 24 7 -3 -8 -1 -15 5 -15 6 0 6 -7 -1 -19 -20 -38 -11 -65 30 -94
31 -22 40 -35 40 -57 0 -16 -6 -30 -12 -33 -7 -2 -10 -8 -6 -12 4 -4 14 -2 22
4 12 10 15 8 18 -11 2 -13 10 -23 18 -23 8 0 18 -11 21 -25 5 -17 7 -8 9 30
l2 55 18 -69 c10 -37 23 -73 28 -78 16 -16 31 0 24 25 -5 20 -4 21 12 8 10 -9
15 -23 12 -34 -3 -11 0 -29 5 -39 10 -19 11 -19 23 -2 10 13 15 14 20 5 5 -7
5 -15 2 -18 -3 -3 -1 -14 4 -24 7 -12 6 -19 -3 -22 -6 -3 2 -6 18 -6 21 -1 38
-10 57 -33 22 -27 28 -29 28 -14 0 14 3 16 14 7 11 -9 15 -7 20 11 5 19 8 20
16 8 5 -8 10 -28 11 -45 0 -16 4 -39 8 -49 7 -19 8 -19 16 0 4 10 8 28 9 39 1
25 21 32 21 8 0 -23 20 -36 44 -28 16 5 18 2 14 -15 -4 -16 -2 -19 11 -14 9 4
16 1 16 -6 0 -7 9 -25 21 -41 16 -22 24 -27 34 -19 18 15 37 5 62 -34 12 -19
35 -44 52 -56 l31 -21 -1 33 c-1 18 -3 25 -6 16 -4 -14 -8 -16 -24 -8 -26 14
-24 37 4 46 12 4 25 11 28 17 15 22 24 -5 23 -67 0 -53 2 -63 13 -54 7 6 13
19 13 29 0 26 16 24 25 -3 l8 -23 4 23 c2 12 9 22 14 22 15 0 10 -50 -6 -56
-8 -4 -15 -10 -15 -15 0 -6 15 2 34 17 22 18 37 40 41 61 3 18 10 33 15 33 5
0 10 12 12 27 4 32 17 38 43 19 17 -12 18 -17 7 -40 -6 -15 -22 -30 -36 -35
-29 -12 -36 -28 -28 -67 6 -27 7 -25 12 16 l5 45 21 -32 c11 -18 24 -30 28
-26 4 4 11 1 16 -7 7 -12 12 -12 28 3 27 24 50 23 28 -2 -20 -22 -13 -71 10
-71 8 0 14 -7 14 -15 0 -8 -5 -15 -12 -15 -18 0 12 -26 38 -34 16 -5 24 0 34
21 8 18 14 23 17 15 3 -8 -5 -27 -17 -44 -17 -23 -19 -32 -10 -43 8 -9 9 -29
5 -55 -5 -32 -3 -46 11 -61 25 -28 43 -84 32 -102 -5 -9 -4 -18 2 -22 5 -3 10
1 10 9 0 9 4 16 9 16 5 0 9 -27 8 -59 -1 -32 -6 -57 -11 -53 -13 7 3 -18 27
-45 17 -19 18 -23 5 -23 -14 0 -14 -4 -1 -42 8 -24 21 -47 29 -51 12 -7 13
-12 3 -24 -10 -12 -10 -16 1 -23 8 -5 11 -12 7 -16 -9 -9 -45 23 -52 47 -4 11
-24 28 -45 39 -48 24 -51 25 -43 3 5 -11 3 -14 -6 -8 -8 4 -17 2 -22 -6 -6
-10 -9 -4 -9 19 0 28 -3 32 -19 27 -12 -3 -21 0 -25 10 -3 8 -12 15 -21 15 -8
0 -15 5 -15 11 0 7 -9 5 -24 -5 -17 -11 -27 -12 -32 -5 -4 6 0 15 7 20 11 6
11 11 1 21 -9 9 -12 9 -12 -2 0 -9 -6 -6 -16 8 -17 25 -42 29 -50 7 -9 -22
-24 -8 -25 23 l0 27 -12 -25 -11 -25 -4 30 c-5 40 -22 57 -22 23 0 -15 -5 -30
-11 -33 -17 -11 -24 4 -11 25 10 16 8 22 -15 39 -14 12 -34 21 -43 21 -10 0
-23 7 -30 15 -9 11 -16 12 -26 4 -17 -14 -37 -2 -30 18 5 12 1 14 -19 9 -22
-6 -25 -3 -25 20 0 23 -3 26 -25 22 -14 -3 -25 -1 -25 3 0 5 -7 9 -15 9 -8 0
-22 11 -31 25 -11 17 -26 25 -44 25 -19 0 -30 7 -38 25 -6 13 -17 22 -24 20
-7 -3 -21 7 -30 22 l-17 28 -1 -25 c-1 -24 -2 -24 -10 -4 -4 12 -21 31 -37 43
-15 11 -33 25 -39 30 -6 5 -18 5 -28 -1 -9 -5 -24 -7 -33 -3 -9 3 -20 0 -25
-7 -5 -8 -8 -1 -8 20 0 25 -4 32 -19 32 -11 0 -22 8 -24 18 -3 12 -5 11 -6 -6
-1 -33 -26 -22 -26 11 1 15 -5 27 -12 27 -7 0 -17 9 -23 20 -11 20 -90 63
-115 63 -7 0 -16 12 -18 26 -4 19 -19 33 -49 48 -40 21 -43 21 -62 5 -18 -16
-19 -16 -13 13 7 39 -4 58 -28 49 -12 -5 -16 -4 -11 4 4 6 -2 19 -14 29 -11
10 -20 22 -20 28 0 6 -13 21 -30 33 -16 13 -30 29 -30 36 0 17 -56 66 -76 66
-17 0 -19 16 -1 23 7 3 5 6 -5 6 -9 1 -21 -7 -27 -16 -13 -24 -23 -11 -16 20
5 17 12 24 21 20 8 -3 14 0 14 6 0 7 -7 14 -15 17 -9 4 -13 13 -10 24 3 9 -3
28 -13 41 -11 13 -21 31 -24 39 -3 8 -9 -3 -12 -25 -12 -64 -20 -73 -24 -27
-2 26 2 52 11 65 12 18 11 23 -5 39 -22 22 -32 23 -24 2 3 -8 2 -13 -3 -10
-13 9 -20 56 -8 63 14 9 -33 32 -65 33 -32 0 -34 5 -13 27 12 12 19 13 30 3
21 -17 19 2 -3 31 -17 22 -45 77 -46 90 -2 11 -35 39 -47 39 -10 0 -10 3 -2
11 9 9 8 15 -3 26 -8 8 -12 19 -9 24 4 5 -3 9 -14 9 -12 0 -21 7 -21 15 0 8 7
15 15 15 8 0 15 4 15 9 0 5 -7 14 -15 21 -8 7 -15 20 -15 29 0 26 -27 95 -38
99 -6 2 -8 10 -5 17 3 8 -2 22 -11 31 -17 17 -12 39 6 28 12 -8 10 3 -15 71
-8 21 -20 41 -26 43 -6 2 -11 11 -11 20 0 8 -8 24 -17 35 -13 15 -15 21 -5 24
6 3 12 13 12 24 0 12 -5 16 -14 13 -16 -6 -31 29 -20 47 5 9 -1 10 -20 5 -17
-4 -34 -2 -42 5 -8 6 -14 8 -14 3 0 -5 -9 2 -20 16 -11 14 -20 19 -20 13 0 -7
-5 -13 -11 -13 -5 0 -7 6 -3 13 6 9 4 9 -6 0 -12 -11 -11 -15 3 -25 12 -10 14
-17 7 -28 -9 -13 -12 -12 -25 4 -15 19 -15 19 -40 -4 l-25 -23 0 27 c0 20 7
29 28 37 38 14 54 37 41 60 -11 21 -6 23 20 9 14 -7 23 -5 36 10 17 19 17 21
2 38 -17 18 -23 42 -11 42 3 0 15 -5 26 -11 15 -8 27 -8 44 0 32 14 30 31 -3
31 -30 0 -21 16 12 22 11 2 22 14 25 28 6 24 6 24 19 5 11 -17 12 -17 7 -2 -3
10 -6 21 -6 23 0 2 -7 4 -15 4 -8 0 -15 9 -15 20 0 27 4 26 40 -12 l32 -33
-31 58 c-25 44 -29 61 -22 75 10 15 11 15 17 -5 3 -13 12 -23 20 -23 7 0 18
-9 24 -20 14 -27 40 -26 40 1 0 19 2 20 17 8 9 -8 14 -9 10 -3 -3 6 0 20 8 30
19 25 19 38 0 30 -11 -4 -15 1 -15 18 0 36 10 56 28 56 12 0 13 3 4 12 -21 21
-13 32 9 12 26 -23 40 -6 32 43 -6 33 0 38 34 34 8 -1 10 10 6 36 -9 55 -9 58
2 61 6 1 11 -9 13 -23 5 -35 22 -21 22 17 0 24 3 28 13 19 25 -20 51 21 44 69
-4 34 -2 40 14 40 22 0 54 44 44 60 -4 6 -13 9 -21 6 -8 -3 -21 6 -31 20 -13
21 -14 30 -5 45 10 16 9 19 -8 19 -11 0 -20 5 -20 11 0 6 12 9 28 7 19 -2 27
-9 27 -23 0 -11 6 -24 13 -28 7 -5 9 -13 6 -19 -4 -6 -1 -9 5 -7 7 3 11 7 10
9 -1 3 3 16 10 29 12 22 12 24 -8 18 -17 -4 -21 -1 -21 17 0 17 6 22 23 22 19
-1 22 4 22 39 0 33 -3 39 -17 37 -21 -3 -23 11 -5 30 11 11 11 18 0 38 l-13
25 0 -30 -1 -30 -14 25 c-19 33 -19 55 1 84 10 16 12 26 5 31 -6 3 -11 1 -11
-5 0 -7 -8 -9 -19 -5 -12 4 -18 1 -17 -7 0 -7 -3 -13 -9 -13 -5 0 -9 6 -8 13
1 9 -6 12 -19 9 -16 -4 -17 -3 -7 9 6 8 20 14 30 14 19 0 35 17 25 28 -4 3
-15 1 -26 -5 -15 -10 -23 -8 -44 8 -18 14 -33 18 -48 14 l-23 -7 22 23 23 23
24 -23 c25 -24 56 -25 64 -3 2 6 -4 12 -13 12 -9 0 -21 13 -26 29 -7 20 -15
28 -25 24 -8 -3 -21 0 -29 7 -12 10 -15 10 -15 0 0 -7 -7 -10 -15 -6 -8 3 -15
1 -15 -4 0 -6 5 -10 10 -10 6 0 10 -7 10 -16 0 -9 -7 -14 -17 -12 -21 4 -30
45 -14 61 18 18 13 24 -19 23 -25 -1 -30 -5 -30 -26 0 -14 7 -36 16 -48 8 -12
12 -27 8 -34 -5 -7 0 -9 14 -6 21 6 21 5 7 -23 -17 -32 -19 -59 -5 -59 6 0 10
12 11 28 l1 27 13 -30 c20 -43 19 -58 -5 -52 -21 5 -28 -7 -10 -18 6 -4 10
-16 8 -28 -2 -12 2 -22 9 -22 19 0 26 -13 17 -32 -4 -10 -9 -25 -10 -33 -1 -8
-8 -45 -16 -82 -9 -42 -11 -71 -5 -77 5 -5 6 -15 1 -23 -5 -7 -14 -28 -20 -46
-10 -27 -9 -34 5 -42 14 -8 14 -9 -4 -10 -24 0 -61 -73 -69 -134 -3 -22 -10
-44 -17 -50 -8 -8 -10 -5 -4 12 4 13 2 22 -4 22 -6 0 -11 -6 -11 -12 0 -7 -3
-23 -6 -35 -5 -19 -2 -23 15 -23 13 0 20 -4 15 -11 -3 -6 -17 -8 -30 -5 -21 6
-27 -2 -64 -76 -22 -45 -40 -91 -40 -101 0 -12 -5 -17 -14 -14 -9 4 -25 -12
-45 -44 -16 -27 -35 -49 -41 -49 -5 0 -10 -8 -10 -18 0 -11 -11 -24 -25 -30
-14 -6 -33 -24 -43 -39 -20 -33 -72 -45 -72 -17 0 9 8 22 17 29 15 11 15 15 1
46 -9 19 -19 48 -22 64 -6 24 -5 28 5 18 19 -19 31 -16 25 5 -4 12 3 27 19 42
27 26 34 77 13 99 -11 10 -10 14 5 22 18 11 23 54 7 64 -5 3 -10 15 -10 26 0
10 -5 19 -10 19 -7 0 -6 6 1 18 8 13 6 32 -10 79 -12 34 -21 72 -21 84 0 18
-2 19 -15 9 -13 -11 -15 -7 -15 27 0 21 -6 45 -12 52 -10 11 -10 14 0 18 19 7
14 23 -8 23 -16 0 -20 7 -20 34 0 35 -26 58 -40 35 -6 -8 -9 -8 -14 0 -9 13 2
33 14 26 4 -3 11 2 14 11 9 23 8 26 -6 21 -7 -2 -18 9 -25 24 -6 15 -21 32
-32 38 -18 10 -21 8 -26 -23 -4 -19 -14 -37 -23 -40 -10 -3 -24 -9 -32 -13
-11 -5 -11 -1 3 18 16 22 47 86 47 96 0 2 -10 -3 -22 -11 -26 -18 -38 -20 -38
-6 0 6 7 10 15 10 8 0 15 9 15 19 0 11 3 28 7 38 4 12 -2 9 -20 -9 -29 -31
-47 -36 -47 -12 0 10 -6 14 -15 10 -21 -7 -20 32 1 55 14 16 14 18 -5 24 -12
3 -21 12 -22 18 -1 7 -4 1 -8 -13 -11 -40 -39 -38 -46 3 -5 23 -14 37 -26 40
-25 7 -28 67 -3 67 12 0 15 -6 10 -24 -3 -14 -2 -28 4 -31 6 -4 10 8 10 29 0
24 -5 36 -14 36 -27 0 -46 -12 -46 -30 0 -10 -3 -26 -6 -35 -6 -14 -8 -13 -21
5 -13 18 -12 24 5 54 26 44 17 53 -15 15 -14 -16 -32 -29 -41 -28 -14 0 -12 3
6 16 27 19 28 29 2 36 -11 3 -20 13 -20 23 0 16 -1 16 -19 0 -11 -10 -25 -15
-30 -11 -14 8 -14 35 -1 35 13 0 13 67 1 75 -6 3 -14 -2 -19 -11 -13 -24 -50
-2 -54 33 -2 14 -9 28 -17 31 -10 3 -11 -2 -6 -19z m525 -1582 c0 -7 -6 -22
-14 -33 -14 -20 -13 -20 51 -17 42 2 62 0 58 -7 -3 -5 -1 -10 4 -10 6 0 11 7
11 15 0 19 10 19 37 0 11 -8 46 -18 77 -21 52 -6 56 -5 56 14 0 15 12 27 40
41 32 16 40 16 40 5 0 -8 -11 -19 -25 -24 -30 -12 -31 -24 -4 -74 14 -26 18
-47 14 -67 -6 -24 -2 -31 24 -47 l30 -18 -34 -13 c-41 -14 -43 -26 -12 -51 16
-13 26 -15 35 -8 16 14 15 9 -8 -37 -21 -42 -25 -65 -11 -65 4 0 11 -23 14
-50 3 -28 13 -60 22 -72 8 -13 15 -37 15 -55 0 -17 5 -35 12 -39 8 -5 9 5 5
40 -6 43 -5 46 12 36 15 -8 18 -17 14 -49 -8 -57 4 -108 26 -114 12 -3 21 -18
25 -43 4 -22 18 -60 32 -86 13 -26 24 -54 24 -63 0 -8 9 -15 20 -15 11 0 20
-5 20 -11 0 -6 -7 -8 -16 -5 -12 5 -15 2 -10 -10 3 -8 6 -24 6 -34 0 -13 9
-20 27 -22 22 -2 29 -10 34 -34 3 -18 11 -38 18 -45 7 -8 20 -30 29 -49 10
-21 27 -37 42 -40 16 -4 24 -12 22 -23 -2 -9 2 -17 7 -17 5 0 12 -9 16 -19 4
-13 13 -18 30 -16 16 1 25 -3 25 -12 0 -8 5 -11 10 -8 6 4 10 -6 10 -24 0 -18
7 -35 19 -43 10 -7 20 -22 22 -33 3 -11 11 -20 19 -20 8 0 22 -16 32 -36 9
-19 23 -41 31 -48 13 -10 16 -7 22 19 l7 31 25 -48 c14 -26 31 -55 39 -63 12
-12 14 -12 14 3 0 9 5 17 10 17 10 0 16 -12 36 -65 6 -18 8 -18 11 -2 6 25 21
21 38 -13 19 -37 27 -38 20 -2 -4 17 6 4 27 -33 21 -40 33 -54 36 -42 4 21 22
23 22 2 0 -9 11 -27 25 -41 14 -14 25 -29 25 -35 0 -6 4 -8 9 -5 4 3 6 18 3
33 l-5 28 35 -33 35 -33 15 23 16 23 6 -27 c3 -16 8 -38 11 -50 2 -13 13 -28
24 -35 17 -10 18 -9 14 10 -5 21 -5 21 13 4 15 -14 16 -21 7 -36 -10 -16 -9
-20 5 -25 9 -3 23 -9 30 -12 7 -3 12 1 12 10 0 25 19 19 26 -9 5 -20 11 -24
30 -19 15 4 24 2 24 -5 0 -6 6 -11 14 -11 8 0 23 -11 34 -25 14 -17 22 -21 25
-13 3 7 6 3 6 -9 1 -18 7 -23 28 -23 14 0 35 8 46 17 18 17 19 17 12 -18 -5
-27 -2 -40 10 -52 21 -21 29 -21 46 -1 11 13 15 13 24 2 5 -7 34 -32 63 -56
l52 -43 0 35 c0 32 2 35 23 27 14 -5 23 -18 25 -35 2 -18 9 -26 20 -24 9 2 21
-7 27 -18 18 -37 37 -54 56 -54 11 0 19 -6 19 -14 0 -19 32 -30 41 -14 6 9 10
8 15 -6 7 -18 8 -18 21 0 12 16 15 17 23 4 5 -8 10 -23 10 -33 0 -11 4 -15 11
-11 23 14 69 14 69 0 0 -7 7 -19 15 -26 13 -11 15 -5 15 44 0 31 4 56 9 56 9
0 12 -8 27 -62 4 -12 0 -18 -10 -18 -9 0 -16 -4 -16 -10 0 -12 20 -13 36 -2 6
4 14 17 18 30 10 29 26 18 26 -17 0 -16 8 -35 18 -42 15 -13 16 -12 3 4 -16
21 -15 23 22 32 27 7 39 -8 15 -18 -8 -4 -4 -8 9 -12 13 -4 21 -11 18 -15 -3
-4 2 -10 10 -14 8 -3 15 -10 15 -17 0 -6 -7 -9 -15 -5 -21 8 -20 -45 1 -87
l17 -32 -22 19 -22 20 0 -30 c1 -120 -34 -232 -51 -166 -6 21 -95 55 -104 41
-3 -5 -20 -1 -37 8 -18 9 -36 16 -40 15 -4 -1 -10 5 -13 13 -8 20 -24 19 -24
-2 0 -14 -4 -13 -24 6 -19 18 -68 39 -111 46 -26 5 -55 18 -55 25 0 15 -50 18
-59 2 -6 -11 -10 -9 -15 12 -4 16 -13 26 -25 26 -10 0 -24 7 -31 15 -11 13
-15 13 -22 3 -7 -10 -12 -9 -23 6 -8 10 -16 24 -18 30 -3 8 -9 7 -20 -2 -20
-17 -37 -8 -37 18 0 19 -61 55 -87 51 -6 -1 -21 12 -33 28 -13 19 -26 28 -35
24 -8 -3 -15 0 -15 7 0 7 -6 10 -13 7 -7 -3 -19 4 -25 14 -7 10 -19 19 -27 19
-8 0 -15 4 -15 8 0 10 -61 35 -79 33 -9 -2 -12 3 -8 13 4 10 1 16 -8 16 -8 0
-15 4 -15 10 0 5 -7 7 -15 4 -9 -4 -15 0 -15 10 0 23 -27 20 -35 -4 -3 -11
-11 -20 -16 -20 -12 0 -11 7 1 31 10 17 7 19 -25 19 -31 0 -35 3 -35 25 0 14
-8 33 -19 43 -43 40 -86 72 -97 72 -6 0 -16 11 -22 25 -7 15 -20 25 -32 25
-12 0 -25 10 -32 25 -6 14 -17 24 -24 21 -6 -2 -26 13 -44 35 -17 22 -38 38
-46 37 -8 -2 -20 8 -27 22 -8 16 -26 28 -54 35 -41 10 -68 25 -45 25 7 0 12 7
12 15 0 15 -11 19 -39 15 -8 -1 -12 4 -8 14 4 11 1 13 -10 9 -13 -5 -15 -2
-10 11 7 18 -17 46 -160 192 -24 24 -43 48 -43 53 0 5 -20 33 -45 63 -25 30
-45 60 -45 67 0 6 -5 11 -10 11 -6 0 -18 18 -27 40 -11 25 -24 40 -36 40 -10
0 -20 8 -24 18 -3 9 -12 24 -20 32 -34 38 -63 79 -63 87 0 5 -10 9 -22 9 -17
-1 -24 5 -26 22 -3 22 -2 23 20 12 21 -11 21 -10 -4 14 -15 14 -32 26 -39 26
-7 0 -9 9 -6 21 9 32 -1 48 -26 41 -20 -5 -20 -4 -8 11 9 11 10 17 2 17 -6 0
-11 7 -11 15 0 9 -9 15 -25 15 -14 0 -25 5 -25 10 0 6 5 10 10 10 6 0 15 12
21 27 11 31 -1 69 -38 119 -13 17 -23 38 -23 47 0 9 -4 18 -9 22 -5 3 -13 19
-16 36 -5 24 -9 28 -16 18 -7 -11 -10 -9 -15 9 -4 12 -10 22 -14 22 -4 0 -13
20 -20 46 -9 31 -17 43 -26 40 -8 -3 -14 -1 -14 3 0 5 6 11 14 14 23 9 7 50
-32 80 l-37 29 30 -4 30 -3 -4 50 c-4 62 -6 65 -42 65 -22 0 -29 5 -29 20 0
11 -5 20 -10 20 -6 0 -8 15 -4 40 5 30 3 40 -7 41 -8 1 -23 2 -34 3 -27 1 -34
46 -8 47 10 0 29 13 43 29 27 31 40 37 40 17z m-269 -37 c12 0 23 -8 26 -20 3
-11 10 -20 15 -20 6 0 7 -7 4 -16 -4 -11 -1 -14 12 -10 10 4 27 0 37 -8 19
-13 19 -16 2 -68 -9 -30 -17 -60 -17 -67 0 -7 -7 -19 -15 -27 -8 -9 -15 -31
-15 -49 0 -18 -7 -40 -15 -49 -8 -8 -18 -30 -22 -48 -6 -32 -12 -48 -46 -116
-9 -19 -17 -37 -17 -42 0 -5 -16 -32 -35 -62 -20 -29 -41 -70 -47 -91 -6 -21
-19 -42 -29 -48 -22 -12 -79 -110 -79 -137 0 -11 -5 -33 -11 -49 -10 -26 -12
-27 -19 -8 -7 17 -9 17 -9 3 -1 -10 -21 -39 -46 -65 -25 -25 -45 -52 -45 -59
0 -17 -61 -84 -77 -84 -7 0 -13 -7 -13 -16 0 -21 -22 -42 -50 -46 -16 -2 -27
-12 -31 -28 -4 -14 -8 -20 -8 -15 -1 6 -7 -1 -14 -15 -8 -15 -23 -26 -39 -28
-18 -2 -30 -12 -38 -33 -9 -21 -19 -29 -39 -29 -15 0 -36 -11 -50 -26 -13 -14
-37 -28 -53 -31 -16 -3 -33 -14 -39 -25 -6 -11 -27 -27 -47 -35 -20 -8 -58
-30 -83 -48 -25 -18 -60 -36 -77 -40 -18 -3 -34 -11 -37 -16 -4 -5 -15 -9 -26
-9 -10 0 -27 -4 -37 -10 -9 -5 -34 -16 -54 -24 -21 -8 -38 -20 -38 -27 0 -9
-3 -9 -14 0 -11 10 -16 8 -20 -6 -4 -13 -18 -19 -48 -21 -23 -1 -62 -12 -86
-22 -39 -18 -43 -23 -38 -45 4 -14 2 -25 -4 -25 -5 0 -12 11 -16 25 -5 20 -9
23 -20 14 -8 -6 -14 -20 -14 -31 0 -10 -7 -21 -15 -24 -8 -4 -15 -19 -15 -34
0 -16 -4 -32 -10 -35 -6 -3 -10 4 -10 17 l-1 23 -15 -25 c-15 -25 -15 -24 -9
13 4 26 3 37 -4 32 -6 -3 -11 -19 -11 -34 0 -25 -3 -28 -27 -23 -24 5 -25 6
-8 18 17 13 17 14 1 20 -10 4 -27 2 -39 -4 -12 -6 -39 -13 -59 -17 -21 -3 -38
-10 -38 -15 0 -6 -11 -10 -25 -10 -18 0 -25 -5 -25 -20 0 -27 -19 -25 -29 3
-8 20 -10 20 -16 4 -10 -23 -68 -54 -73 -38 -2 7 -10 6 -25 -4 -24 -17 -51
-20 -42 -5 3 6 0 10 -8 10 -17 0 -53 -38 -44 -46 8 -8 -16 -33 -25 -27 -5 2
-8 13 -8 24 0 17 -5 19 -41 15 -41 -4 -59 -18 -59 -43 0 -7 -4 -13 -10 -13 -5
0 -10 6 -10 14 0 16 -60 30 -73 17 -16 -16 3 -33 29 -27 20 5 24 3 24 -15 0
-18 2 -19 15 -9 12 10 15 10 15 -4 0 -18 -31 -21 -61 -6 -13 8 -19 7 -19 0 0
-6 -15 1 -34 15 -28 21 -39 24 -54 16 -11 -6 -22 -16 -25 -23 -3 -9 -11 -5
-25 12 -21 24 -21 25 -22 3 0 -12 -3 -29 -6 -38 -6 -14 -9 -14 -28 -2 -33 22
-67 27 -87 14 -16 -10 -21 -9 -29 3 -8 12 -10 12 -10 1 0 -8 -7 -11 -20 -8
-15 4 -20 0 -20 -13 0 -13 5 -17 20 -13 11 3 20 0 20 -6 0 -6 -4 -11 -10 -11
-5 0 -10 -7 -10 -15 0 -8 -8 -15 -17 -15 -16 -1 -16 -2 1 -15 19 -15 19 -15
-2 -15 -13 0 -22 6 -22 15 0 8 -4 15 -10 15 -5 0 -10 10 -10 23 0 16 -3 18 -9
9 -4 -8 -14 -13 -22 -12 -36 6 -41 -2 -9 -16 34 -15 35 -16 15 -32 -33 -28
-20 -50 33 -56 124 -14 223 -17 236 -7 7 6 26 10 42 9 16 0 54 4 84 11 30 6
71 14 90 17 19 3 49 9 65 14 17 5 63 17 103 26 40 9 75 20 78 25 3 5 18 9 34
9 16 0 44 6 62 14 18 7 60 22 93 31 33 10 74 26 90 35 17 9 44 17 60 18 41 3
166 56 177 76 6 10 17 14 31 11 17 -3 29 5 52 37 29 41 46 50 53 29 2 -6 -4
-11 -14 -11 -13 0 -15 -3 -7 -11 18 -18 43 -3 43 24 0 14 7 30 15 37 8 7 15
20 15 28 0 13 3 13 12 4 10 -10 9 -19 -4 -42 -21 -37 -12 -38 36 -5 21 14 45
24 54 23 14 -3 16 4 14 41 -3 30 0 41 7 37 6 -4 11 -18 11 -32 0 -15 4 -23 10
-19 6 4 8 10 5 15 -2 4 15 13 40 19 38 9 45 15 45 36 0 31 20 43 27 16 8 -32
25 -25 18 8 -6 28 -6 28 33 21 21 -3 45 -11 53 -15 7 -5 4 4 -9 19 -27 35 -28
50 -2 43 11 -3 23 -1 26 4 14 23 26 7 20 -28 l-6 -38 22 48 c25 53 37 60 39
20 1 -18 3 -21 6 -10 2 9 8 15 13 12 5 -3 14 4 20 15 6 11 19 20 30 20 13 0
18 5 14 15 -4 9 0 15 9 15 8 0 20 7 27 15 10 13 10 19 -4 33 -9 10 -16 25 -16
32 0 9 7 6 20 -8 27 -29 57 -17 51 21 -2 16 18 6 24 -13 8 -25 17 -25 39 -1
11 12 14 21 7 26 -22 13 -10 25 27 25 39 0 62 14 62 36 0 7 11 25 25 40 14 15
25 22 25 15 0 -8 5 -8 20 1 11 7 20 17 20 23 0 6 13 16 29 23 42 19 85 85 78
120 -3 15 -2 34 4 42 7 13 9 13 9 0 0 -8 9 -21 20 -28 18 -11 22 -9 32 15 7
16 15 30 19 33 3 3 11 26 18 52 10 35 19 48 37 52 15 4 24 14 24 26 0 12 12
26 31 35 21 11 28 21 25 33 -3 10 24 77 64 156 38 77 67 143 64 148 -3 4 1 8
9 8 8 0 17 9 20 20 7 28 22 25 47 -10 12 -16 17 -30 11 -30 -6 0 -11 5 -11 10
0 6 -7 10 -16 10 -14 0 -14 -3 -4 -15 7 -8 18 -15 25 -15 13 0 25 -43 25 -91
0 -17 5 -28 12 -26 6 1 14 -7 16 -17 2 -10 12 -28 22 -39 10 -10 24 -32 31
-49 8 -19 15 -25 19 -18 4 7 8 -7 8 -30 1 -24 6 -48 13 -54 9 -8 10 -8 5 2
-10 17 19 15 34 -3 6 -8 9 -23 5 -35 -4 -12 0 -26 9 -36 9 -8 16 -11 16 -5 0
6 5 11 10 11 6 0 10 -9 10 -19 0 -10 7 -22 16 -25 10 -4 15 -16 14 -33 -3 -45
-1 -53 15 -47 11 4 15 -1 16 -17 0 -13 3 -18 6 -11 8 20 23 3 23 -28 0 -22 4
-28 15 -24 8 4 15 1 15 -6 0 -10 3 -10 15 0 22 18 30 5 16 -27 -11 -23 -9 -29
10 -47 14 -13 18 -14 10 -3 -8 9 -9 17 -3 17 15 0 33 -26 24 -36 -4 -4 0 -3
10 4 14 11 17 7 23 -38 6 -46 25 -82 21 -42 0 9 6 17 14 17 11 0 15 -11 15
-38 0 -23 5 -37 13 -37 6 0 12 -12 13 -27 0 -16 3 -22 6 -15 7 17 23 15 23 -4
0 -8 5 -12 10 -9 6 3 10 -4 11 -17 1 -25 4 -19 13 25 8 34 26 26 26 -11 0 -21
3 -23 10 -12 5 8 12 11 15 8 4 -4 0 -17 -9 -30 -20 -29 -20 -35 2 -40 18 -5
71 -74 86 -113 5 -15 9 -16 15 -6 6 9 10 6 15 -11 4 -17 8 -20 15 -9 6 10 10
10 16 1 4 -7 21 -18 39 -26 30 -13 30 -14 9 -20 -30 -8 -29 -24 0 -24 13 0 28
-5 33 -10 8 -8 15 -6 24 5 7 8 17 15 23 15 7 0 7 -4 -1 -12 -9 -9 -5 -22 15
-57 26 -47 88 -97 98 -80 11 18 25 9 25 -16 0 -14 7 -28 15 -31 9 -4 22 -18
30 -33 12 -21 14 -22 13 -6 -5 72 15 84 27 15 8 -45 8 -45 35 -28 25 16 41 0
17 -17 -17 -13 -17 -14 1 -27 10 -7 21 -20 25 -28 4 -11 6 -11 6 4 1 15 4 16
16 6 8 -7 15 -20 15 -29 0 -15 49 -61 66 -61 3 0 19 -14 36 -32 23 -25 31 -29
38 -18 6 10 14 4 31 -24 15 -26 25 -34 32 -27 17 17 24 14 54 -34 30 -49 34
-51 62 -33 15 9 24 7 47 -11 19 -15 30 -18 34 -10 5 7 14 1 26 -16 30 -43 68
-78 72 -65 2 6 -3 19 -12 29 -20 22 -20 31 -1 31 19 0 38 -37 32 -61 -7 -27
10 -34 25 -9 16 26 28 26 28 -1 0 -11 5 -30 11 -41 9 -17 13 -18 20 -7 7 11
17 6 45 -24 27 -29 39 -36 48 -27 10 8 15 6 19 -9 3 -12 19 -23 42 -30 20 -5
44 -18 52 -28 8 -10 11 -12 7 -4 -6 11 -3 13 12 7 10 -4 26 -9 34 -11 8 -1 14
-8 13 -14 -4 -17 15 -13 26 7 10 16 10 16 11 -1 0 -13 5 -16 24 -11 19 4 26 1
31 -16 5 -16 10 -19 18 -11 16 16 24 14 32 -11 l8 -23 4 23 5 24 24 -23 c25
-23 84 -32 97 -14 4 6 10 5 17 -5 8 -13 10 -12 10 3 0 23 17 22 30 -3 10 -19
13 -19 40 -5 39 20 50 19 50 -6 0 -14 5 -19 14 -16 8 3 17 1 20 -6 2 -7 5 0 5
16 1 32 0 31 37 12 23 -12 25 -15 11 -21 -24 -9 -21 -20 6 -28 l22 -7 -22 -9
c-25 -10 -30 -39 -11 -58 9 -9 9 -12 0 -12 -7 0 -12 -13 -12 -28 0 -16 -7 -43
-16 -61 -9 -18 -16 -56 -17 -84 0 -29 -2 -46 -4 -39 -8 22 -23 2 -23 -32 0
-18 -7 -47 -16 -64 -8 -18 -16 -48 -17 -67 -1 -19 -6 -35 -10 -35 -5 0 -6 -4
-2 -9 3 -5 -10 -38 -29 -73 -31 -57 -33 -65 -20 -82 16 -22 18 -36 6 -36 -5 0
-13 10 -19 22 -9 21 -11 18 -29 -27 -10 -28 -32 -75 -48 -105 -16 -30 -29 -66
-28 -78 1 -16 -5 -26 -18 -29 -11 -3 -20 -10 -20 -16 0 -6 -7 -19 -17 -29 -9
-11 -11 -18 -5 -18 7 0 12 -7 12 -15 0 -8 -9 -15 -19 -15 -21 0 -61 -44 -61
-67 0 -7 -7 -16 -15 -20 -9 -3 -25 -23 -35 -44 -11 -21 -49 -66 -84 -99 -35
-34 -69 -72 -76 -85 -7 -14 -18 -25 -24 -25 -20 0 -196 -174 -196 -193 0 -14
-5 -17 -20 -12 -20 6 -31 1 -141 -72 -36 -23 -70 -43 -76 -43 -6 0 -16 -7 -24
-16 -8 -10 -23 -14 -41 -12 -15 3 -28 1 -28 -4 0 -5 -11 -13 -25 -18 -14 -5
-25 -13 -25 -18 0 -17 -175 -96 -274 -124 -28 -7 -54 -22 -60 -33 -6 -11 -12
-22 -14 -24 -1 -3 -8 3 -15 12 -11 15 -16 15 -57 1 -25 -9 -53 -23 -62 -31
-10 -9 -18 -12 -18 -6 0 15 -97 3 -153 -18 -26 -11 -64 -19 -83 -19 -19 0 -43
-4 -53 -9 -23 -13 -225 -41 -336 -47 -49 -3 -117 -9 -150 -13 -47 -7 -63 -6
-77 6 -9 8 -18 10 -22 5 -3 -6 -25 -9 -48 -7 -24 1 -49 -2 -56 -8 -9 -7 -20
-6 -36 3 -26 13 -86 5 -86 -12 0 -5 -12 0 -27 12 -15 11 -36 20 -47 18 -12 -1
-26 1 -32 4 -6 4 -45 9 -86 12 -42 3 -88 8 -103 12 -18 5 -30 2 -36 -7 -7 -11
-11 -10 -24 6 -12 15 -18 17 -22 7 -3 -8 -9 -10 -16 -4 -20 15 -65 23 -72 12
-10 -16 -25 -12 -25 6 0 11 -5 14 -16 10 -9 -3 -22 -6 -30 -6 -8 0 -14 -6 -14
-14 0 -16 -24 -38 -33 -30 -3 3 -1 14 6 25 9 14 7 22 -7 38 -20 22 -46 28 -46
11 0 -6 -13 -1 -28 10 -26 19 -31 20 -62 6 -37 -15 -61 -5 -52 22 3 9 -3 11
-22 6 -19 -4 -28 -2 -32 10 -9 24 -24 19 -24 -9 0 -16 -6 -25 -15 -25 -10 0
-15 10 -15 30 0 22 -5 30 -18 30 -10 0 -23 -5 -30 -12 -9 -9 -13 -7 -18 5 -3
9 -17 17 -30 17 -13 0 -24 6 -24 13 0 14 -40 37 -65 37 -8 0 -15 -9 -15 -20 0
-11 -4 -20 -9 -20 -10 0 -21 24 -21 49 0 11 -15 21 -45 30 -25 7 -49 11 -52 8
-3 -4 -15 0 -27 8 -11 8 -28 15 -37 15 -9 0 -28 9 -43 21 -26 20 -26 20 -26 0
0 -11 -4 -23 -10 -26 -5 -3 -10 1 -10 10 0 9 -9 19 -20 22 -17 5 -18 8 -8 21
11 13 10 14 -10 8 -17 -6 -22 -3 -22 10 0 15 -4 14 -25 -6 -14 -13 -25 -22
-26 -19 -7 41 -11 55 -21 66 -6 7 -13 11 -16 8 -3 -3 -13 2 -22 10 -10 9 -30
17 -46 18 -18 1 -32 9 -37 22 -6 16 -10 17 -17 6 -7 -12 -14 -8 -34 16 -25 30
-130 97 -151 98 -6 0 -37 26 -70 58 -33 31 -63 57 -67 57 -9 0 -96 59 -103 70
-3 5 -12 7 -20 4 -9 -4 -18 2 -23 16 l-8 21 -18 -20 c-22 -25 -36 -27 -36 -6
0 8 5 15 11 15 14 0 5 68 -11 84 -8 8 -9 6 -5 -5 4 -10 0 -19 -9 -22 -11 -5
-18 4 -26 33 -7 25 -31 61 -68 100 -31 33 -66 71 -77 85 -11 14 -27 25 -36 25
-9 0 -19 7 -23 15 -4 12 -11 13 -31 5 -38 -14 -55 -13 -49 5 4 9 19 15 40 15
25 0 34 4 34 16 0 11 -6 15 -20 11 -21 -5 -25 5 -21 50 1 13 -7 28 -19 35 -11
7 -20 23 -20 35 0 13 -4 23 -9 23 -5 0 -21 25 -36 55 -16 30 -32 55 -36 55 -4
0 -12 14 -18 30 -5 17 -17 33 -26 36 -8 3 -15 17 -15 30 0 31 -26 94 -38 94
-5 0 -12 19 -15 42 -3 22 -15 54 -27 70 -11 15 -16 28 -11 28 7 0 7 9 1 26 -6
14 -19 71 -31 127 -11 56 -28 113 -36 126 -11 18 -12 25 -3 31 9 6 9 13 1 29
-7 11 -16 21 -21 21 -6 0 -10 5 -10 10 0 6 6 10 13 10 9 0 12 39 12 159 0 150
-1 159 -17 144 -11 -9 -24 -13 -35 -8 -16 6 -16 8 5 16 27 10 55 68 41 86 -6
7 -6 12 1 15 8 2 8 11 1 31 -13 35 -14 60 -2 52 5 -3 12 -1 15 4 3 5 -1 11 -9
15 -8 3 -15 10 -15 17 0 6 6 9 14 6 22 -9 33 63 12 75 -20 11 -21 32 -1 24 10
-4 15 1 15 15 0 14 -5 19 -14 16 -8 -3 -26 3 -41 15 -31 24 -26 37 7 14 41
-29 51 -22 44 33 -4 30 -2 52 4 56 5 3 10 -1 10 -9 0 -9 6 -16 14 -16 9 0 12
7 9 20 -4 14 0 20 11 20 25 0 29 23 12 64 -13 32 -7 51 9 26 10 -17 26 0 20
21 -4 13 -2 19 8 19 17 0 28 45 15 58 -5 5 -2 14 7 22 20 16 19 39 -2 62 -15
17 -15 18 2 18 15 0 16 3 7 12 -19 19 -15 26 19 33 23 5 28 10 20 18 -13 13
-15 41 -2 32 5 -3 12 -1 16 5 4 6 11 7 17 4 6 -4 8 1 3 15 -5 18 -3 21 17 19
19 -3 24 2 26 30 3 24 8 32 23 32 16 0 19 5 14 20 -4 11 -2 20 4 20 6 0 11 12
11 26 0 20 4 24 18 20 33 -11 57 29 56 91 -2 50 0 53 15 38 22 -19 31 -19 31
0 0 8 -4 15 -10 15 -5 0 -10 5 -10 10 0 6 7 10 16 10 14 0 14 3 3 16 -11 13
-9 14 14 9 21 -6 27 -4 27 9 0 19 20 22 21 4 0 -10 2 -10 6 0 2 6 11 12 18 12
8 0 27 21 42 48 29 51 46 67 52 51 6 -18 51 33 51 58 0 13 4 23 8 23 4 0 14
15 21 33 l14 32 7 -35 c7 -32 8 -33 15 -12 4 12 12 22 17 22 6 0 7 13 2 32 -6
29 -5 31 10 19 10 -9 16 -10 16 -2 0 6 9 11 20 11 13 0 20 7 20 19 0 27 10 51
22 51 6 0 7 -11 4 -26 -6 -23 -5 -24 13 -14 11 5 26 22 33 38 8 16 21 26 30
24 10 -1 25 9 34 23 9 14 22 25 29 25 6 0 20 9 29 19 10 11 31 23 47 26 16 4
31 15 34 26 4 12 13 18 21 15 9 -3 14 1 14 14 0 14 7 20 23 20 13 0 32 9 43
21 27 31 118 89 138 89 23 0 66 29 66 45 0 7 -10 15 -22 18 -12 4 -19 9 -15
13 8 8 67 -15 67 -26 0 -5 11 -3 25 3 14 7 25 15 25 20 0 4 11 7 24 7 18 0 27
8 37 33 l13 32 3 -32 c5 -40 15 -41 41 -8 21 27 42 33 43 13 0 -10 2 -10 6 0
2 6 17 12 32 12 21 0 31 7 42 33 14 31 15 32 71 29 49 -2 59 1 68 18 6 11 15
18 21 15 5 -4 27 8 49 25 22 17 40 27 40 21 0 -6 5 -11 10 -11 6 0 10 9 10 19
0 11 5 23 10 26 6 3 10 -5 10 -19 0 -24 2 -24 31 -14 18 6 34 19 36 29 6 23
23 25 23 2 0 -15 2 -15 19 1 11 10 26 16 33 13 13 -4 62 18 86 41 18 16 42 15
42 -2 0 -21 19 -30 35 -16 8 7 55 12 111 13 l97 2 9 -30 c12 -44 3 -69 -32
-82 -16 -6 -30 -8 -30 -4 0 5 -12 6 -27 3 -22 -4 -25 -2 -20 14 6 14 3 13 -11
-5 -13 -16 -22 -20 -26 -12 -4 6 -4 16 -1 21 8 13 -8 13 -21 0 -7 -7 -15 -2
-24 15 -12 23 -14 23 -27 7 -11 -13 -16 -14 -20 -4 -4 10 -8 10 -21 0 -12 -10
-16 -11 -20 0 -2 8 -11 3 -25 -14 -11 -14 -34 -32 -51 -40 -21 -9 -25 -13 -12
-14 28 0 2 -27 -34 -35 -16 -4 -29 -10 -29 -13 4 -28 -1 -34 -17 -21 -15 12
-16 11 -10 -7 7 -23 -1 -54 -15 -54 -4 0 -6 7 -3 15 9 23 -12 18 -42 -10 -15
-14 -34 -23 -41 -21 -9 4 -13 -5 -13 -29 0 -29 -4 -36 -25 -41 -25 -6 -33 -28
-15 -39 19 -12 10 -25 -19 -25 -21 0 -28 -5 -27 -17 0 -12 -5 -17 -15 -15 -9
1 -19 -5 -23 -13 -3 -9 -10 -13 -16 -10 -5 3 -10 2 -10 -4 0 -5 -14 -12 -31
-16 -23 -5 -28 -10 -20 -18 8 -8 14 -8 23 1 7 7 16 12 20 12 15 0 8 -26 -12
-43 -22 -18 -26 -42 -10 -52 13 -8 13 -62 1 -70 -13 -7 -22 25 -23 84 l-1 50
-22 -22 c-12 -12 -18 -26 -13 -31 14 -17 9 -33 -12 -39 -11 -3 -19 -11 -18
-17 2 -7 -3 -15 -9 -17 -9 -3 -13 7 -13 32 0 52 -17 34 -25 -26 -5 -33 -3 -55
4 -62 6 -6 11 -17 11 -24 0 -24 -18 -13 -34 22 -9 19 -21 35 -26 35 -12 0 -12
-11 -1 -30 11 -16 3 -38 -8 -23 -3 6 -21 13 -38 16 -31 6 -33 5 -33 -22 0 -46
-10 -64 -26 -50 -12 10 -12 13 2 24 11 8 13 14 6 19 -12 7 -72 -40 -72 -56 0
-6 7 -16 16 -22 15 -12 10 -46 -7 -46 -4 0 -6 7 -3 15 4 9 0 15 -9 15 -8 0
-18 10 -22 23 -7 21 -7 21 -12 2 -3 -10 0 -21 6 -23 6 -2 18 -17 27 -34 14
-28 14 -30 -3 -26 -10 2 -22 13 -28 26 -12 28 -21 28 -29 0 -4 -17 -8 -20 -17
-11 -15 15 -69 -15 -69 -39 0 -9 -6 -19 -12 -21 -10 -4 -10 -7 -1 -14 14 -10
38 -111 28 -121 -10 -11 -25 21 -25 56 0 18 -7 40 -15 48 -8 9 -15 27 -15 41
l0 26 -28 -29 c-16 -16 -28 -33 -28 -39 1 -5 -6 -9 -15 -9 -11 1 -15 -6 -12
-20 4 -24 -21 -61 -35 -52 -6 3 -8 25 -5 48 4 29 3 39 -5 34 -7 -4 -12 -18
-12 -32 0 -14 -7 -27 -16 -31 -13 -5 -12 -8 5 -25 25 -22 27 -38 6 -38 -8 0
-15 -7 -15 -16 0 -8 -4 -12 -10 -9 -5 3 -10 17 -10 31 0 26 -20 40 -45 30 -19
-7 -9 -33 16 -39 16 -4 20 -12 17 -38 -2 -18 -8 -34 -14 -36 -7 -2 -10 6 -6
22 3 20 0 27 -16 31 -11 3 -25 15 -31 27 l-11 22 6 -22 c7 -28 -11 -30 -26 -3
-6 11 -16 20 -22 20 -7 0 -7 -4 1 -14 8 -10 9 -16 1 -21 -5 -3 -10 -13 -10
-21 0 -8 5 -12 10 -9 18 11 11 -11 -9 -29 -26 -24 -44 -12 -36 25 4 18 3 29
-4 29 -6 0 -11 -4 -11 -10 0 -5 -9 -10 -19 -10 -17 0 -18 -4 -9 -37 18 -68 21
-99 10 -88 -5 6 -12 19 -14 30 -3 17 -6 16 -23 -12 -16 -27 -23 -31 -47 -26
-24 5 -30 2 -35 -16 -5 -19 -9 -22 -30 -20 -5 0 -6 8 -4 17 3 16 1 15 -16 -1
-24 -21 -34 -22 -26 -1 4 12 0 14 -21 8 -20 -5 -26 -2 -26 10 0 9 -3 16 -7 16
-14 -1 -43 -27 -43 -38 0 -6 -7 -9 -15 -6 -11 5 -15 -2 -15 -27 0 -26 -3 -30
-10 -19 -5 8 -10 25 -10 38 0 32 -20 27 -26 -8 -4 -16 -10 -30 -15 -30 -5 0
-9 -12 -9 -26 0 -19 4 -25 15 -20 10 3 15 -1 15 -12 0 -30 29 -62 57 -62 20 0
24 -4 20 -20 -6 -23 11 -28 19 -6 3 8 12 12 20 9 19 -7 56 26 50 44 -11 29 16
11 29 -19 l14 -33 1 45 c0 44 0 44 16 21 l16 -23 29 28 c16 15 32 25 35 21 4
-4 14 -2 21 5 11 9 16 9 23 -2 6 -10 15 -6 39 18 19 18 31 25 31 16 0 -8 2
-14 5 -14 9 0 45 40 45 50 0 6 6 10 14 10 7 0 28 6 46 13 30 13 31 15 15 31
-25 24 -15 38 38 51 43 11 47 10 47 -7 0 -10 4 -18 9 -18 23 0 41 14 41 31 0
12 5 16 15 13 8 -4 15 -1 15 5 0 6 -7 11 -15 11 -8 0 -15 9 -15 21 0 11 4 17
10 14 5 -3 18 10 27 30 16 33 19 35 30 19 9 -13 10 -21 2 -31 -9 -10 -8 -13 5
-13 9 0 16 -7 16 -15 0 -8 4 -15 10 -15 5 0 7 6 4 14 -3 7 3 16 12 20 15 6 14
9 -7 33 -21 23 -22 25 -4 18 44 -17 65 -17 71 -1 3 9 1 23 -6 31 -10 12 -9 15
9 15 11 0 21 -4 21 -10 0 -17 26 -11 45 10 10 11 24 20 32 20 7 0 13 7 13 16
0 10 5 14 15 10 13 -4 13 -2 5 14 -13 25 -13 33 2 28 7 -3 16 -15 19 -29 l7
-24 7 22 c4 12 22 31 41 42 28 17 34 26 34 56 0 19 2 35 4 35 2 0 11 2 19 5
10 5 13 -2 9 -27 -3 -27 -2 -31 9 -21 7 7 16 32 19 55 l7 43 13 -30 c11 -24
14 -26 17 -12 3 12 10 16 20 13 12 -5 14 -1 9 18 -4 18 -1 28 11 35 10 6 13
11 6 11 -16 0 7 60 24 60 7 0 13 -4 13 -8 0 -5 11 -14 24 -20 22 -10 29 -6 70
36 25 26 46 56 46 66 0 20 0 20 -15 0 -14 -18 -14 -18 -15 4 0 27 21 37 48 23
15 -8 24 -6 41 13 13 14 18 25 11 28 -7 2 -5 10 5 23 11 13 18 16 21 8 7 -16
50 29 58 62 5 18 1 36 -9 52 -13 19 -14 27 -4 39 17 20 28 17 22 -6 -4 -16 -2
-19 11 -14 19 7 22 -17 6 -47 -17 -30 -1 -22 36 18 19 20 34 47 34 60 0 16 6
23 19 23 29 0 71 39 71 65 0 18 6 24 28 27 24 3 27 7 24 33 -3 24 -1 27 9 18
9 -9 22 -3 57 28 29 25 49 36 56 30 6 -5 21 -12 34 -15 17 -6 22 -3 23 11 1
10 6 4 12 -15 12 -38 4 -51 -19 -31 -14 11 -19 10 -35 -11 -10 -14 -19 -33
-19 -42 0 -10 -7 -18 -15 -18 -8 0 -15 -6 -15 -14 0 -8 -9 -18 -20 -21 -11 -4
-27 -19 -35 -35 -8 -16 -24 -35 -35 -43 -17 -12 -18 -16 -6 -20 12 -5 12 -10
3 -30 -6 -14 -17 -23 -24 -20 -15 6 -34 -12 -50 -47 -9 -18 -12 -20 -12 -7 -1
23 -17 22 -24 -3 -3 -12 -14 -20 -27 -20 -15 0 -26 -11 -37 -37 -12 -28 -18
-33 -21 -20 -3 14 -7 16 -18 6 -8 -6 -14 -16 -14 -22 0 -12 -47 -57 -61 -57
-5 0 -9 -13 -9 -29 0 -20 -6 -30 -20 -34 -12 -3 -20 -14 -20 -26 0 -12 -4 -21
-10 -21 -5 0 -10 9 -10 20 0 11 -4 20 -10 20 -11 0 -19 -29 -22 -89 -2 -25 -8
-46 -14 -48 -8 -3 -10 11 -7 44 2 27 1 43 -4 37 -4 -7 -17 -14 -28 -16 -16 -3
-20 -11 -18 -41 1 -20 -2 -37 -7 -37 -6 0 -10 6 -10 14 0 7 -7 19 -15 26 -12
10 -15 6 -21 -28 -4 -29 -10 -39 -20 -35 -8 3 -21 0 -28 -6 -11 -9 -15 -9 -19
1 -3 7 -6 3 -6 -9 -1 -16 -7 -23 -21 -23 -11 0 -20 -7 -20 -15 0 -8 -7 -15
-15 -15 -8 0 -15 -7 -15 -16 0 -11 -6 -14 -20 -9 -16 5 -20 2 -20 -19 0 -20
-5 -26 -21 -26 -26 0 -67 -31 -61 -48 2 -6 -1 -12 -7 -12 -6 0 -11 5 -11 11 0
18 -99 -75 -100 -93 0 -11 -8 -18 -20 -18 -11 0 -20 -3 -20 -7 0 -5 -13 -8
-28 -9 -41 -1 -85 -47 -91 -95 -7 -49 -27 -48 -24 1 2 31 1 33 -11 18 -7 -10
-17 -18 -22 -18 -5 0 -14 -10 -19 -22 -6 -14 -21 -24 -37 -26 -20 -2 -28 -9
-28 -23 0 -10 -4 -19 -10 -19 -5 0 -10 7 -10 15 0 16 -9 19 -34 9 -9 -3 -13
-11 -10 -16 9 -14 -17 -29 -38 -22 -20 6 -68 -23 -68 -40 0 -7 -7 -21 -15 -32
-14 -18 -14 -18 -8 4 3 13 1 22 -6 22 -6 0 -11 -5 -11 -11 0 -5 -5 -7 -11 -3
-17 10 -116 -46 -103 -59 3 -3 1 -14 -5 -26 -7 -12 -7 -22 -1 -26 5 -3 7 -12
4 -20 -14 -36 -78 -21 -72 18 2 15 9 21 21 19 10 -2 17 3 17 13 0 24 -28 18
-46 -10 -9 -14 -22 -25 -29 -25 -7 0 -16 -7 -19 -16 -3 -8 -10 -13 -14 -10 -5
3 -7 -6 -4 -20 4 -21 1 -25 -14 -22 -15 3 -18 11 -16 41 3 34 1 37 -15 29 -49
-26 -111 -52 -122 -52 -6 0 -10 -14 -10 -32 2 -32 2 -32 6 -5 3 16 9 27 16 24
21 -7 18 -27 -7 -50 -18 -17 -22 -27 -15 -34 7 -7 7 -13 1 -17 -6 -4 -17 3
-25 15 -9 13 -17 16 -22 10 -9 -16 -25 -13 -25 3 0 8 10 22 22 30 12 9 19 18
16 21 -10 11 -97 -59 -97 -78 -1 -10 -5 -15 -11 -12 -13 8 -13 -8 0 -21 5 -5
16 -27 25 -49 l15 -40 -6 42 c-6 47 9 92 21 61 5 -13 18 -18 45 -18 41 0 55
-11 46 -36 -5 -13 -9 -13 -36 1 -30 15 -50 13 -50 -6 0 -5 8 -9 19 -9 11 0 21
-9 25 -22 6 -22 8 -21 41 17 23 27 35 34 35 23 0 -9 -6 -19 -12 -21 -7 -3 -3
-6 8 -6 12 -1 27 6 34 14 7 9 23 13 36 11 13 -3 24 -2 24 2 0 14 54 32 61 21
5 -8 8 -8 13 0 4 6 18 11 31 11 22 0 23 3 18 35 -4 28 -2 35 10 35 9 0 19 -5
23 -11 3 -6 17 -8 29 -5 13 3 27 1 30 -5 5 -7 13 -5 25 6 10 9 21 15 26 14 22
-5 43 16 49 49 9 57 20 70 45 55 11 -7 25 -13 31 -13 7 0 17 -8 24 -17 11 -15
14 -12 20 30 4 26 11 47 16 47 5 0 9 -4 9 -10 0 -5 9 -10 19 -10 25 0 38 -20
14 -21 -16 -1 -16 -2 -1 -6 9 -2 26 1 38 7 17 9 19 14 9 26 -9 12 -6 14 20 14
19 0 31 5 31 13 0 21 -12 28 -27 16 -19 -17 -16 1 7 36 11 17 20 38 20 48 0
11 8 17 21 17 19 0 20 -4 15 -34 -7 -36 8 -51 39 -40 22 9 18 21 -7 29 -14 4
-18 8 -10 12 6 2 12 20 12 38 0 44 20 57 21 13 0 -27 2 -29 9 -13 7 18 8 16
11 -10 2 -16 8 -28 14 -25 5 3 8 15 7 28 -4 26 22 31 36 6 7 -13 11 -7 15 23
5 27 15 45 37 61 22 16 30 31 30 52 0 33 3 35 31 20 15 -8 19 -7 19 4 0 8 5
18 10 21 6 4 10 -7 10 -26 0 -18 -3 -29 -7 -26 -11 12 -33 -15 -33 -41 0 -13
-7 -30 -17 -37 -17 -13 -11 -51 7 -40 6 4 7 11 4 17 -5 8 -1 9 10 5 12 -5 32
7 68 43 48 47 50 51 34 68 -24 27 -20 33 11 17 26 -14 28 -13 41 10 14 27 27
32 36 13 3 -7 3 -3 0 10 -7 26 13 82 29 82 5 0 16 8 23 18 16 20 17 9 5 -36
-9 -28 -7 -32 10 -32 16 0 18 5 13 25 -5 19 -2 25 10 25 8 0 23 11 32 25 15
23 43 37 29 15 -3 -5 3 -10 14 -10 25 0 27 13 6 30 -8 7 -15 22 -15 34 0 15 3
17 9 8 4 -7 20 -19 34 -27 25 -13 28 -12 47 12 11 14 20 33 20 41 0 13 -3 12
-20 -3 -27 -25 -26 -1 2 27 l22 22 6 -22 c8 -36 25 -31 28 8 3 33 23 60 45 60
5 0 7 -9 4 -20 -8 -32 10 -23 38 17 16 25 25 52 25 78 1 38 1 39 14 17 12 -23
13 -22 26 20 17 54 30 72 43 59 6 -6 2 -22 -11 -45 -12 -20 -17 -36 -12 -36 5
0 16 14 25 30 17 33 35 40 35 13 0 -15 3 -15 21 4 20 20 20 22 4 47 -9 14 -15
33 -11 41 6 17 27 21 23 4 -1 -6 3 -13 10 -16 6 -2 13 6 15 18 3 22 4 22 21 5
15 -15 17 -16 17 -1 0 8 -7 18 -15 20 -49 15 -49 15 -37 27 9 9 15 9 24 0 7
-7 20 -12 30 -12 10 0 18 -7 18 -17 1 -15 4 -14 20 6 12 14 20 38 20 62 0 39
13 52 24 23 8 -20 17 -13 94 72 20 22 27 40 27 71 0 25 5 45 13 48 6 2 13 -1
14 -8 0 -7 4 9 7 36 6 50 23 64 31 25 2 -14 6 -1 10 31 3 31 11 56 18 59 7 2
10 -2 6 -12 -3 -9 -2 -16 3 -16 5 0 17 20 27 45 11 25 23 45 27 45 5 0 15 16
24 36 13 32 13 38 -3 62 -9 15 -28 37 -40 49 -28 26 -21 43 17 43 31 0 59 24
41 35 -20 12 -11 36 13 30 13 -3 32 2 47 14 24 19 25 19 43 0 10 -10 27 -19
38 -19z"/>
<path d="M5558 14398 c9 -12 7 -17 -12 -28 -14 -7 -38 -10 -55 -8 -20 3 -32 0
-36 -9 -2 -8 -9 -11 -15 -8 -5 3 -15 -5 -22 -19 -6 -14 -19 -26 -29 -26 -20 0
-29 -19 -29 -61 0 -34 -15 -39 -23 -8 -7 26 -31 20 -35 -9 -2 -12 -12 -26 -22
-32 -10 -5 -26 -32 -35 -60 -9 -27 -21 -52 -26 -55 -5 -4 -9 -18 -9 -33 0 -16
-12 -38 -30 -56 -31 -30 -38 -46 -19 -46 6 0 8 -9 4 -20 -7 -23 4 -45 24 -45
8 0 16 -6 19 -14 3 -10 0 -12 -12 -8 -10 4 -16 1 -16 -8 0 -8 -4 -15 -9 -15
-5 0 -12 -7 -15 -16 -4 -10 -1 -14 6 -12 7 3 18 -5 24 -16 6 -12 16 -20 22
-18 14 2 16 -14 3 -23 -5 -3 9 -25 32 -49 l42 -43 23 26 23 26 -5 -37 c-2 -21
0 -40 5 -43 5 -4 9 -1 9 4 0 21 20 11 32 -15 11 -24 13 -25 25 -8 12 17 13 17
13 -1 0 -14 3 -16 11 -8 6 6 18 9 25 6 9 -3 14 2 15 13 0 11 3 14 6 7 8 -22
19 -15 33 22 16 42 30 45 30 8 0 -35 17 -18 22 22 l4 30 10 -24 c7 -16 13 -20
18 -13 4 7 0 22 -8 34 -9 12 -16 32 -16 43 1 19 1 19 14 3 15 -20 27 -24 24
-7 -2 6 3 14 11 17 10 3 12 0 8 -12 -5 -12 -3 -16 5 -13 7 2 13 16 13 30 -1
15 5 27 11 27 7 0 14 12 16 28 2 16 9 27 18 27 10 0 14 -8 13 -22 -4 -32 13
-29 21 3 6 21 10 23 21 14 11 -9 16 -7 24 9 14 25 14 68 1 76 -15 9 -12 25 5
25 16 0 21 25 6 35 -5 3 -7 21 -4 40 4 24 2 35 -6 35 -8 0 -11 11 -9 28 2 15
9 27 17 27 27 0 23 25 -5 36 -21 8 -25 12 -15 19 12 7 12 11 -2 24 -8 9 -20
16 -26 16 -6 0 -11 17 -12 38 0 20 -3 31 -6 25 -10 -27 -23 -11 -29 37 -6 44
-9 50 -30 50 -13 0 -24 6 -24 13 0 6 -6 3 -12 -8 -12 -19 -13 -18 -18 10 -3
19 -12 31 -25 34 -16 3 -17 1 -7 -11z"/>
<path d="M6838 14309 c23 -20 21 -49 -1 -31 -7 5 -27 13 -44 17 -29 6 -34 3
-44 -19 -11 -24 -13 -24 -25 -8 -12 15 -13 15 -14 -9 0 -32 -43 -60 -62 -41
-16 16 -28 15 -28 -3 0 -8 5 -15 10 -15 6 0 10 -7 10 -15 0 -18 -16 -20 -23
-2 -3 7 -7 5 -12 -8 -4 -11 -18 -31 -30 -45 -28 -30 -40 -66 -25 -75 17 -10
11 -32 -9 -38 -11 -2 -29 -24 -42 -48 -18 -36 -20 -48 -11 -73 13 -32 7 -50
-13 -42 -8 3 -19 -2 -26 -10 -7 -8 -8 -14 -3 -13 23 4 36 -2 31 -15 -3 -7 0
-19 6 -25 8 -8 7 -11 -6 -11 -22 0 -23 -36 -1 -57 9 -9 13 -25 10 -37 -6 -26
26 -59 49 -50 8 4 17 -1 21 -10 3 -9 12 -16 20 -16 8 0 14 -10 14 -25 0 -16 6
-25 15 -25 9 0 15 9 15 23 1 18 4 15 16 -13 11 -25 17 -31 23 -21 12 19 34
-23 29 -53 -4 -18 1 -21 29 -22 33 0 43 9 23 21 -8 5 -7 11 1 21 6 8 9 15 5
15 -3 1 -10 3 -16 4 -5 1 -14 3 -20 4 -5 0 -10 9 -10 19 0 11 3 13 8 6 7 -12
59 -13 77 -2 6 4 17 3 25 -2 11 -7 20 -3 32 13 17 21 18 21 18 2 1 -18 1 -19
11 -2 5 9 16 17 24 17 10 0 17 17 21 50 6 44 9 49 22 38 10 -8 13 -8 9 -2 -4
7 2 14 13 17 11 3 20 14 20 25 0 24 37 72 56 72 8 0 14 7 14 16 0 11 6 14 20
9 21 -7 29 10 33 70 1 17 7 33 12 38 6 4 3 12 -7 21 -23 17 -23 29 1 21 10 -3
23 1 30 9 18 21 -4 60 -30 53 -21 -6 -25 3 -8 20 10 10 14 62 8 107 -2 18 -3
18 -17 0 -12 -16 -15 -17 -20 -4 -3 8 -18 28 -34 43 -15 16 -28 35 -28 44 0
13 -3 13 -26 -2 -25 -16 -27 -16 -43 0 -15 16 -15 17 6 11 12 -4 24 -2 28 5
11 17 -17 30 -34 16 -11 -9 -15 -9 -18 1 -3 6 -13 12 -24 12 -21 0 -26 16 -6
23 7 3 5 6 -5 6 -10 1 -18 5 -18 9 0 4 -12 9 -27 10 l-27 2 22 -21z"/>
<path d="M5899 13155 c-11 -24 -24 -47 -29 -50 -18 -11 -10 -26 10 -20 15 5
20 2 20 -13 0 -27 36 -58 52 -44 7 6 26 12 42 14 16 1 35 13 43 25 15 22 12
25 -43 78 -33 30 -63 55 -67 55 -4 0 -17 -20 -28 -45z"/>
<path d="M4641 13123 c-1 -13 -5 -23 -10 -23 -5 0 -13 -9 -16 -20 -4 -11 -15
-20 -26 -20 -13 0 -18 4 -13 12 5 7 3 8 -6 3 -8 -5 -10 -20 -6 -43 4 -27 2
-32 -6 -24 -7 7 -19 12 -27 12 -13 0 -13 -2 -2 -9 10 -6 10 -13 2 -29 -14 -26
-4 -57 14 -42 16 13 25 -7 25 -58 0 -30 -2 -33 -12 -21 -7 9 -35 26 -61 40
-43 22 -63 40 -115 106 -9 12 -29 25 -44 29 -24 5 -29 2 -38 -21 -11 -28 -5
-69 9 -61 4 3 20 -8 35 -23 19 -20 24 -30 15 -33 -8 -3 7 -10 32 -16 34 -8 54
-21 73 -47 15 -19 32 -33 38 -29 14 9 88 -28 88 -43 0 -7 11 -13 24 -13 14 0
26 -7 28 -16 3 -14 7 -13 30 5 l27 22 -6 -34 c-7 -45 12 -81 35 -68 26 15 52
-5 52 -39 0 -20 5 -30 15 -30 9 0 18 -13 22 -31 4 -19 14 -34 29 -39 12 -5 25
-17 28 -27 4 -10 13 -27 21 -38 15 -19 15 -19 31 3 22 32 46 29 42 -5 -3 -31
33 -78 54 -70 8 4 7 6 -4 6 -27 1 -21 20 8 27 17 4 31 1 42 -10 15 -15 15 -16
-1 -16 -10 0 -15 -4 -12 -10 3 -5 0 -10 -7 -10 -8 0 -6 -6 5 -17 17 -17 19
-17 33 1 13 18 14 17 14 -20 1 -35 2 -37 14 -21 19 24 29 21 24 -8 -6 -29 6
-33 21 -7 10 16 10 16 11 0 0 -30 23 -68 40 -68 9 0 20 -4 26 -9 5 -5 23 -11
39 -13 24 -2 31 -8 33 -30 2 -18 8 -25 17 -22 7 3 16 1 20 -5 3 -6 11 -11 16
-11 6 0 7 5 3 11 -6 10 11 28 28 29 4 0 9 -17 11 -37 l4 -38 1 43 c2 36 -2 44
-20 51 -20 7 -19 9 12 19 18 7 35 12 36 12 2 0 5 -24 6 -52 l2 -53 3 48 c2 26
8 45 14 42 5 -4 9 1 9 9 0 9 5 16 10 16 6 0 10 -22 10 -49 0 -53 27 -100 49
-87 9 6 7 12 -6 22 -17 13 -17 15 7 34 14 11 30 20 35 19 6 0 3 -5 -6 -12 -15
-11 -12 -49 4 -48 20 2 27 0 27 -9 0 -5 -5 -9 -12 -7 -6 1 -13 -7 -15 -18 -3
-15 -2 -17 5 -6 13 19 42 7 82 -34 l33 -34 29 20 c15 11 28 17 29 12 1 -4 4 3
9 17 8 28 12 23 31 -50 6 -25 14 -38 16 -30 13 43 13 43 29 30 10 -9 11 -15 4
-20 -7 -4 -5 -14 8 -30 14 -18 24 -21 38 -15 18 8 18 9 -3 12 -25 5 -32 23 -9
23 11 0 16 15 18 53 l3 52 17 -33 c14 -27 15 -37 6 -52 -10 -15 -9 -23 5 -38
9 -10 17 -28 17 -40 0 -26 6 -27 26 -8 16 17 19 36 4 36 -5 0 -10 7 -10 15 0
8 -4 15 -10 15 -5 0 -10 7 -10 15 0 8 4 15 8 15 15 0 44 -38 38 -48 -3 -5 1
-16 10 -23 14 -11 18 -10 30 5 15 21 44 15 44 -9 0 -9 4 -14 9 -11 4 3 16 -3
26 -14 10 -11 22 -20 27 -20 13 0 9 22 -9 42 -15 17 -15 18 0 18 13 0 15 5 8
23 -6 14 -6 30 0 38 7 11 9 10 9 -6 0 -11 7 -29 15 -39 8 -11 16 -43 16 -70 1
-28 3 -43 6 -33 6 24 34 22 40 -3 3 -12 10 -19 16 -17 19 6 18 24 -2 30 -10 2
-24 15 -31 27 -11 20 -10 22 4 17 19 -8 21 4 4 22 -10 11 -10 14 0 18 6 3 12
11 12 18 0 7 7 15 15 19 12 4 15 -6 16 -57 1 -53 2 -57 9 -28 4 18 15 40 24
49 15 15 16 15 16 -1 0 -9 6 -17 14 -17 18 0 22 -6 31 -47 5 -27 4 -33 -11
-33 -16 0 -16 -1 -1 -18 19 -21 13 -32 -17 -32 -20 -1 -20 -1 -2 -12 16 -9 23
-6 43 16 18 22 21 31 13 47 -6 10 -9 19 -8 20 17 4 61 3 70 -2 6 -4 22 6 36
23 19 22 22 32 13 38 -7 4 -11 18 -9 31 4 22 6 21 22 -14 16 -35 16 -40 0 -73
-10 -20 -24 -38 -33 -41 -39 -12 -61 -28 -61 -43 0 -13 6 -16 26 -12 17 3 22
7 14 12 -19 11 -2 30 26 30 15 0 24 6 24 15 0 9 8 14 23 12 15 -1 21 2 18 13
-8 29 -6 63 4 67 6 2 20 -3 30 -11 16 -12 18 -17 8 -27 -7 -7 -13 -20 -13 -29
0 -21 40 -23 55 -3 13 18 35 10 35 -13 0 -20 16 -18 24 3 6 15 8 15 16 3 7
-11 10 -6 10 20 0 26 3 31 10 20 5 -8 10 -36 10 -62 0 -26 5 -50 11 -54 8 -4
9 0 4 15 -11 36 4 44 42 21 29 -17 41 -19 71 -10 24 6 38 6 40 0 9 -25 17 -6
16 35 -1 25 1 45 4 45 3 0 16 -10 30 -22 23 -22 24 -22 37 -5 12 17 14 17 29
-5 15 -22 16 -22 16 -2 0 25 34 59 50 49 8 -5 7 -12 -3 -23 -19 -23 -28 -50
-17 -57 4 -3 11 8 15 25 4 16 10 30 15 30 5 0 10 8 13 18 3 13 7 11 22 -14 18
-30 19 -30 37 -12 10 10 18 23 18 28 0 19 22 10 27 -11 3 -11 11 -18 19 -15 7
3 15 0 18 -7 2 -7 5 -2 5 10 1 12 7 26 14 30 8 4 24 32 37 61 13 28 26 52 30
52 10 0 44 -83 43 -105 -1 -19 0 -19 14 3 20 29 53 30 53 1 0 -18 2 -19 15 -9
12 10 15 9 15 -6 0 -16 2 -17 10 -4 5 8 10 32 10 53 0 33 17 67 33 67 11 0 17
-53 7 -65 -8 -9 -6 -14 6 -19 14 -6 16 0 11 39 -4 42 -3 47 20 56 30 11 44 4
36 -19 -6 -15 -5 -15 10 -3 14 11 20 11 32 1 13 -10 18 -11 28 -1 9 10 9 12
-2 9 -18 -4 -23 13 -10 32 8 11 12 12 16 3 2 -7 20 -13 38 -13 27 0 34 -5 38
-22 4 -22 4 -22 6 2 2 42 14 50 75 52 48 1 55 4 42 13 -14 10 -8 15 36 28 136
42 163 55 176 87 9 23 17 30 31 25 10 -3 24 1 31 10 7 8 26 15 42 15 17 0 31
6 35 16 3 9 20 22 37 30 17 7 25 13 18 14 -26 0 0 20 26 20 27 0 75 36 171
130 26 25 66 60 89 78 24 19 42 42 42 53 0 11 7 22 15 25 8 4 12 10 9 15 -3 6
0 17 7 25 17 21 -17 47 -44 32 -25 -13 -34 -2 -18 23 13 22 9 32 -14 35 -8 1
-15 -4 -15 -12 0 -8 -7 -14 -15 -14 -9 0 -19 -8 -22 -17 -8 -22 -35 -43 -45
-37 -5 3 -8 19 -8 35 0 18 -4 28 -10 24 -5 -3 -10 -18 -10 -32 0 -17 -4 -23
-14 -20 -7 3 -19 0 -25 -6 -8 -8 -11 -5 -11 11 0 13 7 25 15 28 9 4 14 14 13
23 -2 11 4 15 19 14 36 -4 45 19 17 44 -21 18 -24 19 -22 5 2 -11 -5 -18 -20
-20 -18 -3 -21 -8 -16 -30 l5 -27 -15 25 c-8 14 -12 37 -9 51 3 15 0 30 -7 34
-16 10 -50 -24 -50 -52 0 -19 -4 -22 -23 -18 -32 8 -78 -11 -71 -29 3 -8 -1
-25 -10 -38 -9 -12 -16 -31 -16 -41 0 -13 -5 -17 -15 -13 -8 3 -15 1 -15 -3 0
-5 -8 -7 -18 -4 -13 3 -28 -6 -45 -27 -14 -17 -30 -31 -34 -31 -4 0 -12 -7
-16 -15 -4 -8 -15 -14 -22 -14 -8 0 -15 -5 -15 -11 0 -8 -4 -8 -14 0 -11 9
-15 8 -20 -5 -10 -26 -7 -34 12 -27 15 6 15 5 3 -10 -18 -23 -30 -21 -41 6 -8
21 -9 21 -9 1 -1 -20 -18 -44 -33 -44 -4 0 -5 8 -1 18 5 16 5 16 -8 0 -8 -9
-26 -22 -41 -27 -18 -7 -28 -18 -28 -30 0 -26 -10 -51 -21 -51 -5 0 -9 7 -9
15 0 21 -26 19 -50 -5 -11 -11 -20 -22 -20 -25 0 -3 0 -8 0 -12 0 -4 -5 -2
-12 5 -7 7 -18 12 -26 12 -12 0 -11 -5 3 -26 16 -25 16 -25 -4 -15 -11 6 -29
11 -41 11 -26 0 -108 -41 -148 -74 -16 -15 -33 -26 -38 -26 -4 0 -18 -10 -31
-22 -13 -12 -23 -16 -23 -10 0 7 -4 12 -10 12 -5 0 -7 -6 -4 -14 6 -17 -12
-31 -21 -16 -8 13 -86 13 -121 -1 -16 -5 -44 -12 -64 -14 -19 -2 -47 -6 -62
-10 -19 -5 -28 -3 -28 5 0 8 -8 7 -26 -5 -20 -13 -28 -14 -34 -5 -6 9 -9 9
-15 0 -4 -6 -13 -9 -21 -6 -7 3 -16 1 -20 -5 -4 -6 -15 -4 -31 6 -20 13 -27
14 -39 4 -13 -10 -17 -10 -24 1 -7 11 -11 11 -23 1 -10 -7 -17 -8 -21 -2 -11
17 -78 17 -179 1 -70 -12 -79 -11 -96 4 -17 16 -22 16 -56 2 -21 -9 -41 -16
-46 -16 -17 0 -9 29 9 33 11 3 7 5 -10 6 -14 0 -29 -5 -32 -11 -5 -10 -7 -10
-12 0 -5 10 -9 10 -20 1 -11 -9 -14 -7 -14 10 0 24 -10 27 -28 9 -7 -7 -26
-13 -43 -14 -28 -2 -30 0 -24 24 6 26 6 26 -14 8 -18 -17 -21 -17 -21 -3 0 10
-5 14 -15 11 -9 -4 -15 0 -15 10 0 9 -4 16 -10 16 -5 0 -10 -10 -10 -22 0 -22
-1 -21 -25 7 -13 17 -24 24 -25 16 0 -10 -3 -11 -13 -2 -10 7 -17 7 -24 0 -8
-8 -13 -5 -18 11 -6 20 -8 20 -19 4 -15 -20 -66 -12 -66 11 0 18 -21 20 -38 3
-15 -15 -43 8 -35 29 6 16 -6 16 -49 -2 -14 -6 -18 -2 -18 16 -1 22 -2 22 -14
7 -10 -13 -15 -15 -24 -6 -9 9 -12 9 -12 0 0 -7 -7 -12 -15 -12 -8 0 -15 7
-15 15 0 8 5 15 11 15 5 0 7 5 4 10 -11 18 -35 11 -35 -11 0 -33 -24 -16 -30
22 -5 33 -6 33 -14 9 l-9 -25 -4 24 c-4 18 -7 21 -13 10 -7 -11 -14 -9 -34 10
l-24 23 -5 -24 -4 -23 -8 23 c-6 18 -10 20 -16 10 -7 -10 -13 -8 -28 11 -12
16 -20 20 -25 12 -6 -9 -11 -9 -21 -1 -10 8 -14 7 -18 -2 -4 -8 -8 -5 -13 10
-3 12 -11 22 -18 21 -17 -3 -81 28 -96 45 -7 9 -27 16 -45 16 -24 0 -34 5 -38
20 -4 17 -11 19 -31 14 -20 -5 -26 -2 -26 11 0 14 -3 15 -14 6 -12 -10 -17 -8
-25 8 -6 11 -11 27 -11 35 0 23 -17 20 -25 -4 -9 -30 -25 -14 -25 25 0 47 -30
64 -47 27 -11 -27 -11 -27 -12 12 l-1 38 -19 -23 c-15 -19 -22 -21 -32 -12
-10 10 -9 14 4 19 24 9 21 40 -5 58 -34 24 -38 20 -38 -30 0 -27 -4 -43 -10
-39 -5 3 -10 22 -10 42 0 25 -11 53 -36 90 -32 48 -40 54 -63 50 -24 -5 -27
-3 -26 21 0 21 -5 28 -22 30 -19 3 -23 -1 -23 -22 0 -14 -4 -28 -10 -31 -6 -4
-10 12 -10 40 0 42 -2 46 -20 40 -16 -5 -20 -2 -20 19 0 16 -6 26 -15 26 -8 0
-15 9 -15 20 0 13 -7 20 -20 20 -15 0 -20 7 -20 29 0 24 -4 28 -19 24 -10 -3
-22 1 -26 8 -5 8 -4 10 3 5 14 -8 14 16 2 54 -8 24 -8 24 -9 3z"/>
<path d="M5040 17706 c-20 -24 -26 -27 -28 -13 -5 27 -22 20 -28 -12 -5 -21
-12 -29 -25 -28 -21 1 -26 23 -7 29 9 3 9 6 0 12 -13 8 -34 -32 -25 -48 3 -4
26 -6 51 -2 34 5 50 2 63 -10 16 -14 18 -14 28 3 6 12 6 25 0 34 -6 10 -9 10
-9 2 0 -7 -4 -13 -10 -13 -5 0 -10 8 -10 19 0 13 7 19 24 19 20 0 25 -7 30
-37 3 -20 14 -47 25 -60 15 -20 19 -21 24 -7 4 9 1 16 -5 16 -8 0 -6 7 5 17
15 15 18 15 34 1 12 -10 32 -15 56 -13 34 3 38 1 34 -16 -4 -15 -2 -17 12 -9
36 19 42 36 20 56 -20 18 -21 18 -31 1 -14 -25 -38 -4 -38 34 0 15 -4 31 -10
34 -6 4 -10 -6 -10 -22 0 -42 -14 -60 -34 -44 -9 8 -16 18 -16 23 0 5 -7 16
-15 24 -8 9 -15 11 -15 5 0 -6 -4 -11 -10 -11 -5 0 -10 6 -10 14 0 9 -7 12
-19 9 -12 -3 -21 1 -23 9 -2 10 -11 5 -28 -16z"/>
<path d="M7170 16198 c14 -46 12 -58 -5 -58 -17 0 -20 -36 -6 -73 12 -32 50
-46 63 -23 11 19 28 21 28 3 0 -18 57 -44 108 -50 38 -5 44 -2 52 16 8 20 9
19 16 -11 4 -19 14 -36 23 -39 9 -3 35 -14 58 -24 24 -10 49 -19 56 -19 7 0
18 -5 25 -12 7 -7 12 -8 12 -3 0 4 9 0 20 -10 12 -11 26 -15 37 -11 17 7 17 8
1 17 -13 7 -16 22 -14 75 1 36 -2 68 -6 70 -4 3 -8 -4 -8 -15 0 -12 -4 -21
-10 -21 -5 0 -10 7 -10 15 0 10 -7 15 -17 13 -11 -2 -17 2 -15 10 2 10 -2 10
-17 2 -27 -14 -31 -13 -31 10 0 13 7 20 19 20 11 0 23 5 26 10 4 7 -3 8 -22 4
-43 -10 -45 -13 -41 -57 2 -26 -1 -42 -9 -44 -8 -3 -13 5 -13 22 0 24 -3 26
-25 21 -18 -5 -25 -2 -25 8 0 8 10 16 22 18 33 4 48 53 24 76 -17 16 -18 16
-5 -5 11 -18 11 -25 1 -35 -9 -9 -16 -8 -30 5 -10 9 -24 17 -30 17 -17 0 -26
41 -11 51 11 7 11 9 1 9 -7 0 -16 -9 -20 -20 -7 -18 -9 -19 -36 -5 -38 20 -46
19 -46 -5 0 -12 -7 -20 -18 -20 -21 0 -62 27 -62 41 0 15 22 10 36 -8 17 -23
18 -3 1 21 -10 14 -17 15 -41 6 -37 -14 -44 -6 -20 22 15 18 16 20 2 9 -14
-11 -21 -11 -33 -1 -12 10 -13 7 -5 -22z"/>
</g>
</svg>
