<?xml version="1.0" standalone="no"?>
<!DOCTYPE svg PUBLIC "-//W3C//DTD SVG 20010904//EN"
 "http://www.w3.org/TR/2001/REC-SVG-20010904/DTD/svg10.dtd">
<svg version="1.0" xmlns="http://www.w3.org/2000/svg"
 width="1291.000000pt" height="1786.000000pt" viewBox="0 0 1291.000000 1786.000000"
 preserveAspectRatio="xMidYMid meet">
<metadata>
Created by potrace 1.16, written by Peter Selinger 2001-2019
</metadata>
<g transform="translate(0.000000,1786.000000) scale(0.100000,-0.100000)"
fill="#ffffff" stroke="none">
<path d="M7985 11465 c-33 -14 -60 -25 -60 -25 0 -48 -6 -84 -16 -96 -10 -13
-10 -17 2 -25 12 -8 11 -11 -4 -20 -13 -7 -15 -15 -8 -28 6 -10 6 -22 2 -27
-14 -15 -22 -169 -9 -182 8 -8 8 -13 -3 -17 -12 -4 -15 -24 -13 -90 1 -48 6
-91 13 -99 9 -10 9 -16 1 -21 -6 -4 -8 -15 -5 -25 3 -10 1 -21 -5 -25 -5 -3
-8 -16 -4 -29 3 -12 1 -34 -5 -48 -8 -21 -7 -28 6 -32 12 -5 13 -9 4 -20 -14
-17 -17 -149 -11 -534 4 -210 2 -286 -7 -293 -8 -8 -9 -18 -1 -40 6 -17 8 -50
5 -75 -2 -24 -1 -44 4 -44 10 0 -11 -52 -26 -62 -6 -4 -5 -19 3 -41 7 -18 12
-52 12 -75 0 -27 5 -42 13 -42 6 0 4 -5 -6 -11 -12 -7 -15 -15 -9 -27 5 -9 8
-56 7 -104 -1 -48 1 -87 4 -86 19 2 20 -5 4 -32 -13 -23 -15 -32 -5 -42 9 -9
12 -9 12 0 0 7 7 12 15 12 20 0 19 -7 -5 -37 -22 -28 -26 -58 -10 -68 8 -5 8
-11 0 -19 -15 -19 -1 -102 21 -122 24 -22 24 -30 -2 -37 -20 -5 -21 -10 -13
-69 4 -35 8 -74 9 -88 2 -14 3 -25 4 -25 1 0 5 -36 8 -80 3 -44 9 -82 13 -85
5 -3 5 -25 -1 -48 -6 -28 -6 -57 0 -80 5 -20 9 -63 8 -95 -2 -47 1 -60 16 -69
17 -9 17 -11 1 -22 -16 -12 -15 -14 5 -28 22 -15 22 -17 7 -46 -9 -17 -16 -47
-16 -66 0 -28 5 -37 29 -49 18 -9 34 -11 42 -6 23 14 29 10 29 -17 0 -23 -2
-25 -16 -13 -14 11 -18 10 -29 -5 -8 -11 -19 -15 -26 -10 -9 5 -10 2 -6 -10 4
-10 7 -25 7 -33 0 -14 3 -14 20 2 24 22 38 14 15 -8 -10 -10 -12 -18 -5 -22 7
-4 7 -11 2 -18 -27 -34 -23 -161 4 -150 16 6 19 -13 4 -22 -5 -3 -10 -16 -10
-28 0 -21 0 -21 16 2 12 17 19 20 27 12 9 -9 4 -18 -17 -35 -22 -17 -27 -27
-21 -42 12 -30 15 -117 3 -131 -8 -10 -5 -13 11 -13 17 0 21 -6 21 -34 0 -30
2 -33 25 -28 18 3 25 0 25 -11 0 -21 -17 -31 -24 -15 -3 7 -4 -8 -2 -34 2 -26
-1 -51 -6 -56 -13 -13 11 -112 28 -112 8 0 14 -7 14 -15 0 -17 16 -20 25 -5 7
11 25 4 25 -10 0 -4 -13 -13 -30 -19 -35 -12 -45 -53 -10 -44 21 6 29 -20 11
-32 -12 -7 -7 -55 9 -84 6 -12 8 -21 4 -21 -3 0 -1 -7 6 -15 7 -8 23 -15 36
-15 27 0 31 -12 9 -30 -9 -8 -13 -21 -9 -36 6 -24 -11 -35 -19 -11 -9 26 -15
0 -8 -38 5 -25 12 -39 20 -37 10 2 11 -7 6 -37 -5 -28 -3 -41 8 -48 19 -11 28
-41 15 -45 -19 -7 0 -38 22 -38 23 0 26 -13 6 -29 -10 -8 -12 -25 -9 -54 7
-50 10 -54 25 -39 22 22 29 12 13 -18 -11 -22 -13 -35 -5 -49 5 -11 7 -27 4
-35 -3 -9 -3 -28 0 -42 6 -22 9 -24 23 -12 14 12 15 8 9 -35 -6 -39 -4 -51 8
-60 10 -7 17 -29 18 -54 1 -27 6 -43 14 -43 9 0 10 -8 4 -29 -11 -39 1 -92 25
-105 11 -6 22 -12 24 -14 3 -1 -2 -8 -11 -15 -12 -9 -13 -19 -6 -45 8 -32 9
-32 34 -16 13 9 27 15 29 12 10 -10 -18 -68 -32 -68 -10 0 -13 -6 -9 -16 3 -9
6 -25 6 -35 0 -11 4 -18 8 -15 4 2 16 -27 26 -65 10 -38 22 -69 27 -69 6 0 7
-5 4 -10 -8 -13 13 -80 25 -80 4 0 11 -20 14 -44 4 -24 14 -50 22 -57 9 -8 13
-21 10 -35 -4 -13 -2 -25 3 -28 5 -3 12 -22 15 -41 6 -31 9 -34 26 -25 31 16
39 12 27 -15 -7 -14 -22 -25 -37 -27 -28 -3 -42 -38 -16 -38 9 0 16 5 16 10 0
6 8 10 18 10 14 0 18 -10 20 -53 2 -28 7 -56 12 -61 5 -5 6 -14 4 -21 -3 -7
-1 -16 5 -20 6 -3 11 -17 11 -29 0 -13 7 -29 15 -36 8 -7 15 -21 15 -31 0 -11
7 -19 15 -19 15 0 35 -57 35 -102 0 -16 9 -37 20 -48 14 -14 18 -28 14 -49 -4
-16 -1 -31 5 -35 6 -4 11 -15 11 -25 0 -10 6 -24 14 -30 8 -7 12 -21 9 -31 -3
-12 1 -22 11 -26 9 -3 16 -17 16 -30 0 -13 6 -24 13 -24 9 0 12 -11 9 -33 -2
-21 2 -39 10 -48 8 -8 18 -27 22 -42 3 -15 17 -33 31 -39 28 -13 34 -38 8 -38
-14 0 -14 -2 2 -20 10 -11 13 -20 8 -20 -8 0 -8 -12 -1 -41 7 -27 15 -38 24
-35 10 4 14 -4 15 -27 0 -18 3 -26 6 -19 8 21 23 13 23 -12 0 -14 5 -28 10
-31 6 -3 10 -19 10 -35 0 -16 4 -31 9 -34 5 -3 14 -28 21 -56 7 -28 18 -50 25
-50 15 0 25 -22 25 -55 0 -13 5 -27 10 -30 6 -3 10 -16 10 -28 0 -21 -4 -22
-103 -23 -56 -1 -130 -8 -165 -16 -34 -9 -65 -11 -68 -7 -6 11 -58 12 -67 2
-4 -3 -30 -7 -58 -8 -36 -1 -54 -7 -61 -18 -12 -22 -28 -22 -28 0 0 13 -3 14
-12 5 -7 -7 -20 -12 -30 -12 -10 0 -18 -7 -18 -17 0 -15 -2 -15 -17 -1 -16 14
-28 14 -123 -3 -68 -12 -115 -27 -134 -41 -24 -17 -28 -18 -23 -4 6 14 1 15
-36 10 -23 -3 -49 -15 -59 -25 -18 -21 -54 -27 -42 -7 5 8 2 9 -12 3 -18 -7
-30 -9 -91 -13 -12 -1 -31 -12 -43 -24 -14 -15 -20 -17 -20 -7 0 8 -10 14 -25
14 -17 0 -25 -5 -25 -18 0 -14 -4 -16 -20 -7 -21 11 -195 -14 -217 -31 -7 -7
-14 -6 -18 1 -4 7 -12 7 -25 0 -11 -6 -49 -12 -85 -15 -35 -2 -73 -9 -84 -15
-11 -5 -31 -10 -45 -10 -14 0 -26 -5 -26 -11 0 -8 -5 -8 -15 1 -18 15 -20 -1
-3 -18 6 -6 9 -14 6 -18 -11 -11 -46 6 -51 25 -4 17 -15 18 -143 14 -77 -3
-155 -9 -174 -14 -24 -6 -36 -5 -42 4 -5 9 -10 9 -19 0 -8 -8 -18 -9 -29 -3
-10 6 -30 6 -48 1 -26 -8 -31 -6 -35 11 -4 14 -11 19 -22 14 -16 -6 -89 8
-135 26 -50 20 -171 45 -195 40 -17 -3 -25 0 -25 9 -1 8 -8 2 -16 -13 -18 -34
-23 -35 -17 -4 6 27 -31 57 -41 33 -3 -9 -9 -7 -19 6 -8 9 -20 17 -27 17 -8 0
-21 6 -29 14 -9 8 -34 16 -56 18 -30 2 -41 8 -45 23 -7 24 -59 34 -71 14 -6
-10 -11 -6 -18 14 -8 20 -18 27 -38 28 -53 2 -58 4 -55 18 3 12 1 12 -13 1
-14 -11 -18 -11 -25 -1 -6 11 -8 11 -12 1 -3 -10 -10 -9 -30 4 -15 10 -33 14
-43 9 -14 -5 -17 -3 -12 10 8 20 -3 22 -22 5 -11 -11 -13 -10 -8 4 8 22 -14
49 -38 47 -11 -1 -33 -1 -49 -1 -24 2 -27 4 -16 17 7 9 10 18 6 22 -3 3 -6 1
-6 -5 0 -13 -28 -1 -62 26 -9 8 -21 11 -27 8 -5 -4 -12 -2 -16 4 -21 33 -151
67 -139 36 3 -7 -3 -16 -12 -20 -22 -8 -31 1 -16 16 19 19 14 28 -17 28 -17 0
-33 5 -36 10 -4 6 -10 8 -15 5 -4 -3 -10 5 -13 16 -5 17 -11 20 -31 15 -19 -5
-26 -2 -26 9 0 15 -16 20 -52 17 -10 -1 -18 2 -18 6 0 4 -14 8 -30 9 -21 2
-28 -1 -24 -9 4 -7 3 -8 -4 -4 -7 4 -12 16 -12 27 0 17 -6 20 -33 18 -18 -2
-37 0 -44 4 -7 5 -14 -4 -18 -24 -9 -38 -25 -21 -25 26 0 30 -1 31 -56 33 -31
1 -63 -3 -70 -9 -11 -9 -14 -6 -14 15 0 22 -4 26 -28 26 -15 0 -42 4 -60 9
-20 6 -32 6 -32 0 0 -5 -4 -9 -10 -9 -5 0 -10 7 -10 15 0 21 -16 19 -25 -2 -6
-17 -7 -17 -19 -1 -16 22 -76 36 -76 18 0 -10 -3 -10 -15 0 -12 10 -18 10 -30
0 -10 -9 -15 -9 -15 -1 0 6 -7 11 -15 11 -8 0 -15 -7 -15 -16 0 -15 -2 -15
-24 0 -16 10 -27 12 -31 6 -4 -6 -11 -8 -16 -5 -5 4 -9 -3 -9 -15 0 -31 -20
-14 -21 18 -1 15 -3 20 -6 10 -7 -25 -31 -30 -69 -12 -31 15 -38 15 -61 3 -21
-11 -27 -11 -30 -1 -3 7 -21 12 -44 12 -49 0 -169 -29 -169 -41 0 -5 -11 -9
-24 -9 -13 0 -27 -7 -30 -16 -3 -8 -11 -12 -16 -9 -6 4 -17 1 -25 -5 -11 -9
-15 -9 -15 -1 0 7 -15 4 -40 -9 l-39 -20 -11 41 c-15 54 -7 73 13 29 15 -35
15 -35 16 -7 1 19 5 26 13 21 8 -5 9 -2 3 12 -16 39 -17 73 -2 95 l16 22 7
-27 c4 -16 13 -26 25 -26 24 0 24 4 -2 50 -14 24 -27 36 -35 33 -8 -3 -14 0
-14 6 0 6 5 11 10 11 6 0 10 9 10 20 0 11 7 20 15 20 9 0 15 9 15 23 0 12 4
29 10 37 8 12 10 12 16 -3 3 -9 11 -14 16 -11 6 4 6 -2 -1 -14 -6 -11 -18 -22
-26 -26 -9 -3 -13 -11 -10 -16 4 -6 2 -17 -4 -23 -8 -10 -4 -13 17 -12 23 0
27 5 30 33 2 20 9 32 18 32 11 0 13 -6 9 -20 -3 -11 -2 -20 4 -20 31 0 23 65
-9 73 -14 3 -20 13 -20 31 0 14 -9 35 -21 47 l-21 21 7 -31 c8 -37 -11 -44
-21 -7 -10 41 -1 91 19 94 10 2 17 -3 17 -12 0 -8 11 -28 25 -43 l24 -28 1 24
c0 33 17 15 23 -24 3 -16 4 -7 2 20 -2 28 -7 65 -10 82 -5 22 -3 33 4 33 6 0
11 5 11 10 0 6 -7 10 -15 10 -22 0 -38 37 -19 44 38 14 64 6 70 -21 11 -50 12
-49 13 5 1 51 -29 138 -53 154 -6 4 -8 10 -4 13 3 4 28 -4 55 -17 l48 -23 0
37 c0 26 -3 34 -11 27 -17 -14 -24 1 -24 55 0 38 -3 47 -10 36 -9 -13 -12 -12
-25 4 -20 26 -10 37 25 29 27 -5 30 -3 30 21 l0 27 25 -28 c24 -27 24 -28 25
-5 0 12 -7 25 -15 28 -8 4 -15 14 -14 23 0 11 2 12 6 3 10 -26 33 10 33 52 1
38 2 40 15 22 8 -11 15 -14 15 -8 0 7 6 11 12 10 7 -2 14 8 16 21 2 14 11 36
20 50 16 24 16 25 0 13 -23 -19 -39 -6 -32 24 5 18 1 29 -12 39 -11 8 -14 14
-6 15 7 0 12 15 12 40 0 34 3 40 22 40 21 0 21 0 2 -21 l-18 -20 52 4 c61 5
72 11 43 27 -24 12 -28 45 -6 54 8 3 15 0 15 -6 0 -7 5 -6 15 2 21 17 19 36
-6 61 -15 15 -18 24 -10 28 6 4 9 15 5 24 -3 9 -10 14 -15 11 -5 -3 -9 1 -9 9
0 19 26 41 39 33 5 -4 12 -2 16 4 4 6 11 8 16 5 5 -4 9 4 9 15 0 15 -5 20 -14
17 -8 -3 -17 -3 -20 0 -11 11 16 33 41 33 20 0 23 4 18 21 -4 11 -1 34 6 50 9
23 9 33 0 42 -8 8 -11 2 -11 -23 l-1 -35 -18 22 c-16 19 -17 27 -8 47 7 14 15
20 18 14 4 -6 12 -7 18 -4 6 4 14 0 17 -8 11 -29 24 -16 24 24 0 23 7 55 16
72 13 25 14 36 5 50 -15 24 -14 31 4 24 22 -8 30 20 11 39 -10 10 -16 33 -16
60 0 30 -5 45 -16 49 -24 9 -34 7 -31 -6 1 -6 -9 -14 -23 -18 -24 -6 -42 -40
-21 -40 6 0 11 -6 11 -13 0 -18 -28 -18 -34 0 -3 8 -10 11 -16 8 -5 -3 -10 0
-10 9 0 8 -3 21 -6 29 -4 10 5 16 30 21 19 4 36 12 38 18 2 6 26 10 53 10 35
0 44 2 30 8 -18 7 -18 9 -3 15 9 4 22 4 28 0 5 -3 10 -2 10 3 0 6 -7 12 -15
16 -8 3 -15 17 -15 31 0 14 -5 25 -11 25 -7 0 -9 -10 -5 -25 10 -39 -3 -49
-25 -21 -16 20 -18 30 -9 46 6 11 8 30 4 43 -4 19 -1 25 16 30 13 3 23 0 26
-8 3 -8 12 -11 20 -8 11 4 14 -5 14 -38 0 -27 3 -40 10 -33 5 5 7 47 3 100
l-6 92 -38 -5 c-37 -5 -39 -4 -39 21 0 26 13 35 25 16 9 -15 45 -12 45 4 0 7
-7 19 -15 26 -17 14 -20 40 -5 40 6 0 10 -7 10 -15 0 -8 9 -19 20 -25 12 -7
20 -21 20 -38 0 -21 2 -24 10 -12 6 8 9 31 8 50 -3 33 -1 35 30 35 31 0 43 17
22 30 -6 4 -2 18 11 36 17 24 19 38 14 72 -4 23 -13 55 -21 71 -11 24 -12 31
-2 38 9 5 6 8 -9 8 -24 0 -29 10 -14 26 5 5 11 20 13 34 4 31 33 38 59 15 15
-14 19 -15 23 -4 10 32 13 69 5 69 -5 0 -18 21 -30 47 -18 41 -21 60 -16 136
4 83 14 118 24 89 4 -10 9 -7 20 8 8 11 22 19 31 18 24 -4 27 29 3 37 -26 8
-27 34 -3 41 9 3 26 10 37 14 19 9 19 9 -2 16 -13 3 -23 13 -23 20 0 18 10 17
34 -1 11 -8 23 -15 27 -15 14 0 16 40 2 59 -13 19 -12 21 6 21 22 0 29 16 9
22 -7 3 -8 10 -4 17 7 11 10 11 17 0 5 -9 10 -5 14 13 4 15 4 31 1 37 -3 5 -1
11 6 13 6 2 -7 13 -30 24 -40 19 -42 21 -27 39 12 14 18 16 22 7 8 -21 34 -42
44 -37 24 16 -12 85 -45 85 -22 0 -29 17 -16 39 10 20 11 19 39 -9 27 -29 49
-41 36 -19 -4 5 1 19 10 29 16 18 16 20 1 35 -21 21 -21 49 0 41 12 -4 14 -1
9 14 -4 13 -1 22 9 26 8 3 15 13 16 22 0 9 3 41 6 70 4 34 2 58 -5 65 -19 19
-12 37 14 37 16 0 25 6 25 15 0 11 -9 14 -32 13 -28 -3 -34 1 -36 21 -2 13 2
27 8 31 22 14 1 28 -41 28 -23 1 -44 4 -47 7 -13 13 25 26 73 24 28 -1 59 -1
70 0 19 2 19 3 -2 13 -28 14 -30 32 -3 23 21 -7 25 2 14 29 -5 13 -9 14 -20 5
-20 -16 -22 -11 -15 41 6 45 9 48 59 52 18 2 12 47 -10 77 -22 29 -13 48 13
25 18 -17 19 -15 19 39 0 32 4 57 10 57 5 0 2 16 -7 36 -12 24 -26 37 -45 41
-15 3 -28 11 -28 19 0 14 62 30 79 19 6 -3 14 1 17 9 3 9 14 16 25 16 10 0 24
8 31 18 7 10 22 24 33 30 l20 11 -20 7 c-30 11 -55 35 -54 53 0 12 3 11 9 -4
l9 -20 0 20 c1 18 4 16 26 -10 19 -23 24 -26 25 -12 0 9 -4 17 -10 17 -5 0
-10 8 -10 18 0 9 -14 25 -31 35 -30 16 -31 19 -14 31 13 9 15 15 7 20 -16 10
-15 43 1 50 10 5 10 7 0 12 -7 3 -13 19 -13 36 0 26 2 29 15 18 8 -7 15 -19
15 -26 0 -27 18 -14 24 17 11 56 7 67 -25 78 -23 8 -30 15 -25 27 3 8 6 21 6
27 1 7 8 -1 17 -18 l17 -30 14 75 c7 41 18 78 24 81 7 4 6 9 -1 13 -16 11 -13
37 9 81 22 43 20 68 -4 59 -11 -4 -15 3 -18 28 -3 32 -4 33 -43 30 l-40 -3 22
22 c19 19 24 20 38 9 11 -9 19 -10 26 -3 8 8 2 15 -18 25 -17 8 -29 23 -32 38
-3 24 -2 24 16 7 11 -9 30 -17 43 -17 21 0 22 -3 16 -40 -5 -34 -3 -41 15 -51
20 -10 21 -9 16 11 -6 24 8 71 25 81 17 10 -2 31 -23 26 -23 -6 -26 18 -3 27
10 4 14 12 10 22 -4 12 -2 15 9 10 8 -3 15 -2 16 2 0 4 2 16 4 27 3 19 3 19
-9 3 -7 -10 -17 -18 -21 -18 -12 0 2 140 16 156 9 11 8 18 -5 33 -16 17 -16
21 0 60 13 34 14 47 5 68 -6 14 -9 34 -6 44 4 13 1 19 -9 19 -8 0 -18 5 -22
11 -5 8 4 10 29 7 32 -3 36 -1 39 22 2 16 8 24 18 22 12 -3 13 -1 3 9 -19 19
-17 53 2 45 9 -3 15 0 15 9 0 8 -9 15 -20 15 -13 0 -20 -7 -20 -20 0 -14 -7
-20 -21 -20 -15 0 -19 4 -15 16 4 9 1 23 -6 31 -10 12 -5 21 24 49 36 34 56
83 42 105 -5 8 -2 10 9 6 9 -3 18 0 21 9 3 9 -1 14 -13 14 -17 0 -18 3 -8 24
7 14 20 27 29 30 23 6 36 38 18 44 -17 6 -60 48 -60 59 0 5 10 13 22 18 24 11
52 81 42 105 -5 12 -8 10 -15 -7 -9 -24 -33 -31 -44 -13 -3 6 1 13 10 16 13 5
15 15 10 44 -4 23 -2 41 4 45 7 4 11 -4 11 -19 0 -28 14 -35 24 -11 3 8 12 15
21 15 17 0 20 16 5 25 -5 3 -10 11 -10 16 0 6 5 7 10 4 6 -3 10 5 10 19 0 13
-6 26 -12 28 -10 4 -10 10 0 32 11 24 15 26 28 15 9 -8 7 2 -7 26 -13 21 -18
35 -11 31 8 -5 12 0 12 14 0 14 4 19 13 14 6 -4 4 2 -6 13 -16 18 -16 21 -2
26 8 4 15 12 15 18 0 8 -4 8 -15 -1 -12 -10 -16 -9 -21 4 -3 9 -4 26 -1 39 3
12 -1 31 -9 41 -8 11 -14 25 -14 30 0 6 7 2 15 -8 14 -19 15 -18 15 10 0 40 9
47 36 29 21 -14 23 -13 29 14 3 16 3 39 0 53 -4 16 -1 29 8 37 13 10 13 16 2
38 -9 18 -11 32 -4 44 5 10 9 22 9 27 0 12 -83 48 -132 57 -21 4 -42 13 -49
21 -20 24 -38 16 -38 -18 -2 -58 -10 -200 -17 -304 -4 -63 -3 -104 3 -107 6
-4 3 -28 -9 -64 -12 -36 -18 -72 -15 -95 4 -27 1 -38 -8 -38 -8 0 -15 -19 -18
-52 -3 -29 -18 -116 -33 -193 -15 -77 -28 -164 -28 -193 -1 -28 -4 -52 -8 -52
-5 0 -8 -13 -8 -28 0 -15 -5 -33 -12 -40 -9 -9 -9 -12 0 -12 12 0 6 -56 -9
-76 -5 -5 -6 -26 -3 -45 4 -25 1 -39 -10 -48 -20 -17 -21 -37 -1 -45 18 -7 20
-36 2 -36 -8 0 -17 -23 -24 -57 -35 -176 -38 -213 -11 -197 15 10 29 -18 16
-33 -6 -7 -19 -13 -29 -13 -12 0 -19 -7 -19 -20 0 -13 7 -20 20 -20 19 0 19
-2 5 -23 -8 -13 -12 -26 -9 -30 3 -3 3 -16 -1 -28 l-7 -22 -13 23 c-12 22 -13
20 -19 -26 -4 -27 -12 -72 -18 -100 -9 -43 -8 -56 5 -74 14 -20 14 -23 -3 -40
-12 -12 -18 -30 -16 -53 2 -28 -1 -37 -15 -40 -22 -6 -27 -64 -9 -98 8 -15 6
-24 -10 -41 -11 -12 -18 -28 -15 -35 3 -7 8 -20 11 -28 5 -11 2 -13 -10 -9
-12 4 -16 0 -16 -16 0 -11 3 -19 8 -17 4 3 16 1 27 -3 19 -7 18 -8 -6 -18 -23
-9 -28 -19 -34 -64 -4 -29 -11 -58 -16 -63 -4 -6 -9 -41 -10 -78 -1 -37 -6
-67 -11 -67 -4 0 -8 -9 -8 -20 0 -11 -7 -37 -16 -58 -18 -45 -25 -122 -10
-123 6 0 1 -5 -11 -11 -30 -14 -29 -24 2 -32 31 -8 32 -18 3 -31 -26 -12 -36
-35 -14 -35 9 0 16 -7 16 -16 0 -8 -3 -13 -8 -10 -17 11 -40 -21 -39 -55 2
-26 -2 -33 -14 -31 -14 2 -16 -5 -11 -43 3 -33 0 -55 -14 -80 -15 -28 -16 -36
-5 -49 11 -13 11 -19 0 -33 -8 -9 -13 -25 -11 -35 2 -11 -2 -26 -9 -34 -17
-20 -29 -94 -16 -94 7 0 7 -4 -1 -12 -18 -18 -15 -49 8 -83 11 -16 20 -39 19
-50 0 -15 -5 -10 -19 17 -29 53 -38 54 -46 3 -7 -49 -1 -66 18 -47 8 8 14 7
24 -3 19 -19 18 -22 -12 -41 -22 -15 -27 -15 -36 -3 -6 9 -8 -13 -4 -70 5 -79
5 -83 -14 -78 -11 3 -25 -1 -31 -9 -10 -12 -7 -20 11 -39 13 -14 22 -25 19
-26 -2 0 -13 -2 -24 -4 -22 -4 -47 -34 -39 -46 11 -18 44 -9 44 11 0 24 15 26
24 4 9 -22 -21 -67 -40 -60 -10 4 -14 -3 -14 -24 0 -17 -4 -30 -9 -30 -5 0 -9
-16 -8 -36 1 -24 -5 -41 -17 -49 -11 -8 -13 -15 -7 -20 17 -10 13 -22 -9 -28
-12 -3 -20 -14 -20 -27 0 -11 5 -18 10 -15 6 3 10 13 10 21 0 8 5 14 11 14 7
0 9 -9 5 -22 -3 -13 -6 -29 -6 -37 0 -7 -6 -11 -14 -8 -11 5 -17 -5 -22 -39
-3 -24 -10 -47 -15 -50 -5 -3 -9 -14 -9 -26 0 -17 2 -18 15 -8 30 25 15 -10
-16 -38 -29 -26 -30 -30 -24 -76 6 -37 10 -45 17 -32 11 20 32 21 48 1 9 -11
9 -17 -3 -29 -23 -23 -44 -23 -66 3 -12 13 -21 22 -21 20 -1 -2 -3 -35 -6 -73
-3 -46 -13 -84 -29 -115 -28 -52 -32 -89 -10 -117 18 -24 19 -34 1 -34 -8 0
-18 -9 -21 -20 -3 -11 -11 -20 -16 -20 -5 0 -9 -5 -9 -11 0 -5 5 -7 10 -4 6 3
10 -3 10 -14 0 -13 -7 -21 -17 -21 -15 0 -15 -1 0 -18 10 -10 17 -32 16 -48 0
-25 -2 -26 -8 -9 -14 35 -35 -60 -35 -162 -1 -51 -4 -93 -8 -93 -4 0 -13 9
-21 21 -23 31 -26 11 -14 -73 6 -43 8 -80 5 -84 -13 -12 -45 21 -43 44 1 12
-1 19 -5 15 -4 -4 -10 -37 -13 -73 -2 -36 -3 -57 0 -47 2 9 11 17 18 17 10 0
12 6 8 18 -6 14 -4 15 9 4 9 -7 19 -24 22 -38 l7 -25 29 21 c17 12 30 29 31
38 0 11 3 12 6 5 2 -7 14 -13 25 -13 13 0 18 -6 16 -17 -2 -12 -11 -17 -26
-15 -18 3 -22 -2 -22 -25 0 -21 -3 -24 -10 -13 -7 11 -12 12 -20 4 -9 -9 -9
-14 -1 -18 6 -4 11 -14 11 -23 0 -14 -4 -13 -23 5 -22 21 -54 31 -43 14 2 -4
1 -14 -4 -22 -7 -12 -14 -9 -33 12 -14 15 -22 30 -18 34 3 4 1 4 -6 0 -6 -3
-14 -20 -18 -36 -4 -16 -11 -32 -16 -35 -23 -15 -7 -27 26 -21 32 6 36 4 45
-20 12 -31 6 -42 -14 -25 -11 9 -16 9 -22 0 -5 -9 -9 -8 -14 5 -6 17 -7 17
-23 2 -9 -10 -17 -32 -17 -50 0 -17 -5 -37 -12 -44 -9 -9 -8 -12 5 -12 9 0 17
5 17 10 0 6 5 10 10 10 6 0 3 -16 -6 -37 -9 -21 -18 -44 -21 -51 -5 -11 5 -13
43 -10 48 3 49 2 52 -26 3 -27 2 -28 -13 -16 -9 7 -15 9 -14 4 1 -5 1 -21 0
-36 -1 -31 -21 -39 -21 -10 0 10 -6 26 -13 36 -11 16 -17 16 -55 4 -41 -13
-42 -14 -42 -58 0 -33 -5 -50 -20 -63 -22 -18 -19 -37 6 -37 8 0 14 -4 14 -8
0 -14 -23 -32 -42 -32 -10 0 -18 -4 -18 -10 0 -5 4 -10 9 -10 4 0 6 -12 3 -26
-3 -16 -9 -23 -18 -20 -10 4 -14 -2 -14 -19 0 -13 -4 -26 -9 -29 -5 -3 -12
-33 -16 -66 -4 -33 -12 -66 -19 -73 -19 -22 -36 -56 -36 -75 0 -10 -3 -22 -7
-26 -16 -15 -9 -46 9 -46 13 0 18 -6 16 -17 -3 -13 -12 -17 -31 -15 -24 2 -27
-1 -27 -27 0 -31 -15 -50 -23 -29 -2 7 -8 -9 -12 -37 -4 -27 -14 -62 -21 -77
-8 -15 -14 -44 -15 -65 0 -21 -3 -32 -6 -24 -4 9 -10 2 -18 -20 -7 -21 -8 -39
-2 -46 6 -9 6 -13 -2 -13 -6 0 -11 -7 -11 -15 0 -8 -4 -15 -9 -15 -5 0 -12 -7
-15 -16 -4 -12 -1 -14 14 -9 27 9 25 -5 -6 -38 -21 -23 -23 -28 -9 -33 9 -4
22 1 30 12 13 17 16 17 25 4 5 -8 9 -19 9 -25 0 -5 -3 -4 -6 3 -4 10 -8 10
-19 1 -19 -16 -18 -33 6 -54 19 -17 20 -17 30 6 10 23 10 22 6 -6 -3 -19 2
-37 11 -48 9 -9 14 -20 11 -22 -11 -11 -56 18 -67 42 -11 24 -13 24 -30 9 -10
-9 -25 -16 -33 -16 -21 0 -27 -18 -17 -52 9 -34 1 -43 -23 -21 -15 14 -18 14
-18 1 0 -8 -9 -23 -19 -32 -10 -10 -21 -27 -25 -39 -4 -19 -3 -20 7 -6 16 21
57 31 57 14 0 -8 -9 -17 -20 -20 -11 -3 -20 -14 -21 -23 0 -10 -3 -12 -5 -5
-4 8 -12 5 -25 -8 -15 -15 -19 -28 -14 -49 3 -16 2 -31 -4 -35 -7 -3 -11 3
-12 17 0 19 -3 16 -13 -12 -12 -32 -11 -35 7 -40 19 -5 19 -7 -6 -23 -17 -11
-27 -27 -27 -41 0 -13 -9 -30 -20 -37 -15 -10 -21 -29 -25 -74 -4 -46 -3 -54
5 -37 13 30 32 19 24 -14 -4 -15 -2 -24 5 -24 6 0 16 -11 21 -25 5 -14 14 -25
20 -25 7 0 8 6 0 19 -13 26 -13 31 5 31 18 0 19 4 3 30 -17 26 3 50 25 31 21
-17 27 -49 11 -55 -8 -3 -14 -16 -13 -28 0 -13 3 -17 6 -10 2 6 13 12 23 12
22 0 39 22 22 28 -7 2 -12 12 -12 23 0 12 5 16 15 13 8 -4 22 -1 30 6 18 15
20 50 3 50 -6 0 -1 12 13 26 l24 26 5 -23 c7 -27 30 -38 30 -14 0 9 -4 13 -10
10 -5 -3 -10 3 -10 14 0 14 9 23 26 27 19 5 22 9 12 15 -10 7 -10 12 4 26 17
16 19 16 33 -2 14 -19 14 -19 15 6 0 14 6 32 13 40 15 19 93 69 106 69 6 0 14
6 18 13 4 7 31 18 58 24 28 6 84 20 125 32 134 37 365 28 615 -25 66 -14 129
-26 140 -27 11 -1 24 -8 28 -14 4 -7 20 -13 34 -13 15 0 54 -13 87 -29 34 -17
79 -32 101 -35 68 -8 109 -19 132 -34 13 -8 30 -12 38 -8 9 3 15 0 15 -9 0 -8
5 -15 10 -15 6 0 10 6 8 13 -2 6 2 13 7 15 6 1 10 -4 10 -10 0 -28 31 -36 38
-10 4 13 5 13 6 -4 1 -25 31 -56 31 -33 1 10 4 9 14 -3 7 -10 23 -18 35 -18
14 0 21 -6 21 -20 0 -14 5 -18 16 -13 9 3 14 13 11 24 -4 14 0 19 14 19 15 0
19 -7 19 -31 0 -19 4 -28 11 -24 6 4 19 -2 30 -14 11 -12 32 -21 47 -21 25 0
69 -19 47 -20 -15 -1 105 -60 121 -60 8 0 14 5 14 11 0 7 11 0 25 -15 13 -14
35 -26 49 -26 14 0 28 -5 31 -10 4 -6 11 -8 16 -5 5 4 12 0 15 -9 3 -8 12 -12
19 -9 8 2 24 -4 36 -16 12 -11 44 -25 72 -31 28 -6 67 -20 86 -32 34 -21 35
-21 19 -2 -20 23 -23 50 -8 59 6 3 10 -3 10 -14 0 -11 9 -22 20 -26 11 -3 20
-13 20 -21 0 -16 16 -19 25 -4 11 18 25 11 22 -12 -1 -14 4 -23 15 -26 13 -2
16 1 12 12 -3 9 -1 16 5 16 6 0 11 -6 11 -12 1 -8 6 -6 14 5 16 21 27 22 20 2
-5 -13 40 -64 59 -65 13 0 7 18 -7 22 -9 2 -5 12 15 31 l29 28 0 -25 c0 -19 5
-26 20 -26 10 0 24 -8 29 -18 10 -16 10 -16 11 1 0 10 -5 27 -10 38 -15 27 5
25 24 -3 9 -12 16 -18 16 -13 1 6 16 -8 34 -29 24 -28 43 -40 67 -42 19 -2 50
-6 69 -10 33 -6 34 -5 15 10 -11 8 -26 16 -32 16 -15 0 -17 16 -3 25 6 3 10
23 10 43 l0 36 20 -39 c11 -21 18 -41 15 -43 -5 -5 12 -16 63 -43 19 -11 26
-9 45 9 29 27 42 28 60 1 8 -11 17 -16 21 -11 3 5 -1 18 -9 28 -23 31 -17 39
10 14 14 -13 25 -29 25 -36 0 -6 9 -14 20 -17 16 -4 20 0 20 19 0 27 15 32 24
9 3 -8 17 -20 30 -27 22 -9 28 -8 45 13 17 20 20 21 21 7 0 -19 40 -26 40 -8
0 7 8 7 22 -1 16 -9 23 -9 26 -1 2 7 19 9 47 5 33 -4 51 -1 70 11 16 10 25 12
25 5 0 -7 10 -9 28 -5 15 3 74 7 132 10 163 6 281 23 313 47 15 11 32 17 37
14 11 -7 40 34 40 58 0 16 3 17 15 7 9 -7 13 -21 10 -31 -13 -40 53 -15 69 26
7 19 8 18 22 -7 8 -16 17 -28 20 -28 3 0 2 5 -1 10 -3 6 3 10 15 10 12 0 18 5
15 10 -8 13 1 13 25 0 13 -7 19 -6 23 4 4 9 27 14 72 15 37 1 75 5 84 10 9 4
36 9 61 10 25 2 80 12 123 22 43 11 82 17 88 14 15 -10 122 15 142 33 15 13
17 13 17 0 0 -13 12 -15 73 -10 39 2 77 9 84 14 7 5 21 7 33 3 12 -4 27 -2 33
4 8 6 18 6 27 1 8 -6 35 -10 59 -10 35 0 41 3 32 13 -8 10 -7 17 1 25 19 19
31 14 25 -10 -5 -21 -5 -21 7 -5 17 22 26 22 26 -3 0 -24 9 -26 25 -4 10 15
15 14 52 -9 30 -19 45 -37 55 -68 8 -24 20 -45 27 -47 9 -3 11 2 6 17 -4 12
-2 21 4 21 6 0 11 -15 11 -34 0 -19 5 -38 10 -41 6 -3 10 -22 10 -41 0 -31 8
-40 34 -35 17 3 24 -22 14 -44 -7 -16 -7 -29 1 -41 10 -18 10 -17 11 4 0 23
20 32 20 10 1 -24 40 34 40 58 0 27 17 32 27 8 5 -14 9 -13 25 7 l20 24 -6
-31 c-6 -36 -1 -45 20 -37 11 4 12 9 4 19 -7 7 -10 25 -7 41 4 27 5 27 12 5 8
-23 20 -28 30 -12 3 6 11 10 17 10 7 0 6 -5 -1 -14 -7 -8 -8 -17 -3 -20 14 -9
46 54 33 67 -6 6 -11 35 -11 63 0 29 -4 56 -10 59 -6 4 -10 -7 -10 -24 0 -34
-19 -41 -40 -16 -11 13 -6 22 28 55 26 26 46 38 56 34 9 -3 16 -2 16 4 0 5 15
24 33 42 25 26 28 31 11 26 -14 -4 -27 0 -40 16 -12 13 -13 18 -4 13 13 -8 13
-6 2 8 -20 24 -51 31 -69 15 -12 -9 -17 -10 -20 -2 -2 7 -13 10 -23 7 -12 -3
-20 0 -20 7 0 7 -7 10 -16 6 -13 -5 -16 -1 -12 22 3 21 0 29 -10 28 -9 -1 -16
12 -18 34 -6 51 -24 82 -46 77 -10 -3 -28 3 -41 14 -12 10 -17 18 -10 19 6 0
15 -4 18 -10 3 -5 13 -10 21 -10 20 0 19 61 -2 86 -14 18 -15 18 -10 1 19 -60
19 -70 2 -64 -10 4 -20 7 -22 7 -2 0 -4 31 -4 69 0 49 -4 72 -15 81 -12 10
-15 10 -15 -4 0 -20 -36 -21 -43 -2 -3 8 3 26 14 39 21 27 26 48 7 29 -18 -18
-27 -15 -21 8 6 21 -20 29 -32 10 -14 -23 -25 -7 -25 35 0 29 -4 45 -12 45 -7
1 -3 9 9 19 17 14 20 24 15 50 l-7 33 -28 -22 -27 -21 0 21 c0 11 7 23 15 26
26 10 17 27 -11 20 -21 -6 -25 -4 -21 8 3 8 -2 16 -14 19 -16 4 -19 14 -19 61
0 31 7 73 15 92 14 35 14 36 -5 31 -17 -4 -21 1 -26 33 -5 27 -10 37 -20 33
-8 -3 -14 0 -14 6 0 6 5 11 11 11 6 0 7 5 2 13 -4 6 -8 23 -8 37 0 20 -6 26
-30 30 -16 3 -30 11 -29 18 2 30 5 34 19 28 10 -4 15 1 15 14 0 14 -7 20 -24
20 -13 0 -26 -6 -29 -12 -2 -7 -7 -10 -11 -7 -3 3 1 25 9 49 19 55 19 60 -5
60 -29 0 -44 35 -30 71 11 25 10 32 -4 48 -10 11 -14 25 -10 37 6 16 4 16 -15
-3 -12 -13 -27 -23 -32 -23 -14 0 -2 53 12 59 17 6 -23 41 -46 41 -13 0 -26 7
-29 16 -13 35 -2 129 14 119 5 -3 11 -1 15 5 3 5 1 10 -4 10 -6 0 -11 14 -11
31 0 25 -3 29 -13 20 -8 -6 -17 -8 -20 -4 -4 3 -7 1 -7 -5 0 -6 8 -13 18 -15
14 -4 14 -6 -5 -12 -13 -4 -23 -15 -23 -26 0 -23 -12 -30 -30 -19 -12 7 -12
12 -2 22 6 6 12 29 12 50 0 31 3 38 18 36 26 -4 27 36 3 83 -12 22 -21 57 -21
79 0 41 -6 45 -52 41 -22 -3 -22 -1 -3 35 8 16 14 43 14 59 -1 26 -3 24 -11
-13 -5 -24 -11 -42 -12 -40 -10 11 -15 148 -6 148 5 0 10 -8 11 -17 0 -12 2
-13 6 -5 6 16 -16 72 -28 72 -5 0 -9 10 -9 23 0 23 -20 62 -20 40 0 -7 -5 -13
-11 -13 -6 0 -9 11 -7 26 2 17 -4 31 -21 43 -24 18 -24 19 -4 25 12 4 24 13
27 21 4 13 1 12 -19 -1 -19 -12 -29 -14 -38 -5 -10 8 -17 7 -25 -1 -9 -9 -12
-6 -12 14 0 33 23 52 55 46 28 -6 32 3 11 21 -10 8 -16 9 -21 1 -8 -13 -35
-13 -35 -1 0 5 9 13 20 16 11 4 18 10 15 15 -3 5 -1 11 5 15 16 10 12 25 -5
19 -9 -4 -15 0 -15 10 0 9 -4 16 -10 16 -6 0 -6 9 -1 23 13 32 -7 55 -39 46
-37 -10 -50 -10 -50 1 0 6 10 10 21 10 16 0 20 5 17 18 -6 20 9 46 31 53 9 3
6 12 -13 29 -29 29 -34 42 -10 33 12 -4 15 -2 12 8 -3 8 -15 14 -27 13 -25 -1
-26 4 -4 36 11 16 16 39 14 69 -3 47 -10 65 -18 44 -3 -7 -9 -13 -14 -13 -15
0 -10 32 7 51 14 16 14 18 -3 27 -20 11 -73 10 -92 -3 -10 -6 -11 -2 -6 16 8
24 7 24 -13 5 -18 -16 -24 -17 -38 -5 -15 12 -14 14 3 20 10 4 35 8 55 8 34 1
37 3 40 34 2 17 8 31 13 30 6 -1 10 11 10 27 0 16 -4 28 -10 27 -5 -1 -11 12
-13 28 -1 17 -5 41 -8 54 -9 40 -25 3 -17 -39 5 -31 4 -33 -9 -22 -13 10 -17
10 -21 0 -2 -7 -7 -10 -10 -7 -4 3 1 31 10 63 11 40 23 61 37 66 19 8 18 9 -7
9 -16 1 -30 -5 -33 -14 -9 -21 -39 -36 -59 -29 -12 5 -13 10 -5 20 7 7 18 10
26 7 9 -3 14 2 14 16 0 12 7 24 15 27 17 7 21 64 5 64 -5 0 -10 -4 -10 -10 0
-5 -5 -10 -11 -10 -6 0 -9 9 -6 20 3 11 1 23 -4 26 -15 9 -10 32 9 38 25 8 17
66 -9 73 -11 3 -19 14 -19 25 0 15 3 17 19 9 15 -8 20 -7 25 5 9 23 9 22 -26
26 -18 2 -31 8 -28 13 3 6 11 9 18 9 6 -1 12 8 12 20 0 17 -2 18 -10 6 -8 -12
-10 -12 -16 3 -3 9 -12 17 -20 17 -21 0 -33 33 -32 84 0 36 3 44 13 36 9 -7
16 -6 23 3 9 10 6 19 -10 37 -13 14 -23 19 -26 12 -2 -7 -10 -12 -18 -12 -8 0
-14 -6 -14 -13 0 -18 -38 -52 -47 -43 -4 4 -1 11 7 16 8 6 12 10 7 10 -17 0
57 70 75 70 10 0 18 5 18 11 0 7 -11 9 -29 6 -34 -7 -66 18 -37 29 9 3 23 4
31 0 8 -3 15 -1 15 4 0 6 -7 10 -15 10 -23 0 -18 16 10 28 14 6 25 16 25 22 0
6 -11 15 -25 20 -14 6 -25 17 -25 28 0 11 -9 31 -20 45 -24 30 -25 37 -6 37
19 0 46 38 46 64 0 26 -31 48 -47 34 -17 -13 -17 2 -2 36 18 39 4 93 -27 100
-14 4 -22 11 -18 17 3 6 13 8 21 5 20 -8 39 4 22 15 -10 6 -10 13 -2 32 13 28
1 47 -29 47 -19 0 -25 34 -8 45 6 4 8 11 5 16 -4 5 6 14 22 20 15 5 23 13 18
17 -6 4 -15 21 -21 39 -10 26 -9 34 4 47 14 13 14 16 2 16 -8 0 -21 4 -29 9
-12 8 -12 12 -2 25 15 18 6 37 -13 30 -28 -11 -29 19 -3 42 33 29 34 34 2 34
-16 0 -25 -6 -25 -15 0 -8 -4 -15 -10 -15 -5 0 -10 6 -10 14 0 30 13 46 39 46
19 0 22 3 12 9 -12 8 -12 12 -2 24 9 12 9 16 -1 21 -10 5 -10 7 0 12 19 9 16
62 -4 60 -26 -2 -41 30 -26 54 16 26 16 27 -8 33 -21 6 -28 27 -8 27 6 0 3 6
-8 14 -19 14 -19 15 2 42 11 16 31 31 44 34 22 5 22 6 4 20 -10 8 -15 10 -11
4 4 -7 -5 -11 -24 -11 -22 0 -28 4 -24 15 3 8 -6 30 -21 49 l-26 34 26 -7 c23
-5 26 -3 26 20 0 19 5 26 19 26 10 0 21 7 25 15 3 9 0 15 -10 15 -12 0 -13 4
-4 21 7 11 9 23 6 26 -3 3 -8 -2 -12 -11 -3 -9 -10 -16 -15 -16 -12 0 -11 37
1 45 13 8 13 45 -1 45 -5 0 -8 -4 -5 -9 10 -15 -20 -45 -39 -37 -17 6 -17 7 2
24 10 9 17 25 15 34 -2 9 6 21 17 27 16 9 20 8 24 -7 3 -9 5 -4 6 13 1 23 -8
38 -39 66 -28 25 -40 45 -40 64 0 34 17 65 35 65 24 0 17 22 -17 53 -31 27
-28 29 15 12 17 -7 18 -6 6 13 -7 11 -23 23 -36 27 -28 7 -32 55 -7 76 13 11
15 10 12 -6 -1 -10 3 -20 10 -22 8 -3 12 6 12 26 0 23 5 31 18 32 13 0 12 2
-5 9 -26 10 -31 38 -9 46 18 7 9 85 -10 97 -20 12 -17 29 4 25 18 -4 59 38 47
50 -3 4 -11 -1 -16 -11 -11 -18 -39 -24 -39 -7 0 6 4 10 9 10 5 0 11 10 13 23
2 14 9 21 21 21 24 -2 21 21 -5 39 -15 11 -19 19 -12 24 19 14 24 79 8 101 -9
13 -11 23 -4 27 5 3 10 26 10 51 0 33 -4 44 -16 44 -8 0 -20 13 -25 30 -12 32
-29 32 -29 -1 0 -14 -6 -19 -17 -17 -27 5 -22 30 9 47 23 13 30 13 52 1 14 -7
29 -10 33 -7 3 4 -1 7 -10 7 -9 0 -17 7 -17 15 0 8 -6 12 -14 9 -8 -3 -17 -1
-21 5 -3 6 4 15 17 20 l23 9 -25 10 c-14 5 -27 6 -30 2 -9 -13 -48 -21 -54
-11 -4 6 14 19 38 31 45 20 66 44 66 74 0 10 -6 13 -15 10 -11 -5 -13 -2 -9
10 3 9 11 16 16 16 6 0 5 6 -2 15 -9 10 -9 15 -1 15 6 0 11 16 11 35 0 19 5
35 10 35 6 0 10 5 10 10 0 6 -6 10 -12 9 -18 -3 -48 11 -48 22 0 5 7 9 16 9
13 0 15 8 12 38 -3 20 -8 45 -13 56 -7 17 -6 17 16 6 22 -12 23 -12 11 3 -11
12 -11 19 -1 36 11 17 10 23 -5 40 -11 12 -16 21 -12 21 4 0 2 9 -4 19 -8 16
-6 22 7 30 11 7 14 14 8 18 -12 9 -13 48 -2 59 14 14 7 32 -15 38 -22 6 -22 7
-5 20 14 11 17 29 17 99 0 50 4 89 11 92 11 7 3 62 -13 82 -6 7 -4 13 4 16 10
4 10 7 -1 15 -10 7 -10 14 -2 30 6 11 11 35 11 52 0 17 5 40 10 51 8 15 7 19
-5 19 -20 0 -19 20 3 36 16 11 15 13 -11 23 -36 14 -32 15 -102 -14z"/>
<path d="M7316 10955 c-3 -10 -9 -15 -13 -11 -3 3 -15 -1 -25 -11 -15 -13 -18
-13 -18 -2 0 11 -14 15 -50 17 -44 2 -50 0 -50 -17 0 -18 -2 -19 -27 -5 -31
16 -68 20 -44 5 7 -5 10 -14 6 -20 -5 -9 -10 -9 -21 0 -11 9 -15 8 -19 -3 -4
-9 -16 -14 -33 -12 -31 3 -42 -10 -42 -48 0 -16 -4 -28 -10 -28 -5 0 -10 9
-10 20 0 22 -15 27 -26 9 -4 -8 -9 -7 -15 2 -6 10 -11 11 -20 2 -8 -8 -6 -13
10 -18 35 -11 25 -28 -13 -21 -26 5 -35 3 -40 -10 -5 -14 -9 -14 -22 -3 -14
11 -18 10 -30 -5 -7 -11 -11 -23 -8 -27 7 -13 -10 -11 -23 2 -7 7 -12 -2 -16
-31 -6 -45 -14 -60 -25 -44 -4 5 -13 9 -19 8 -7 -1 -21 -2 -30 -3 -14 -1 -15
-3 -4 -10 11 -7 9 -10 -9 -16 -16 -5 -19 -9 -10 -15 19 -12 1 -32 -21 -25 -11
4 -27 1 -35 -6 -24 -19 -39 5 -40 64 -2 84 0 80 -39 74 -20 -3 -35 -2 -35 4 0
6 -4 8 -9 5 -5 -3 -11 1 -15 9 -7 18 -37 20 -55 3 -11 -11 -12 -8 -7 13 5 24
3 26 -26 27 -17 0 -35 7 -39 14 -5 7 -9 9 -9 4 0 -5 -7 -3 -15 4 -13 11 -14
10 -9 -5 6 -16 3 -17 -21 -11 -16 4 -35 16 -43 28 -10 13 -18 16 -25 9 -7 -7
-16 -7 -29 0 -14 8 -18 6 -18 -7 0 -12 -3 -14 -13 -5 -10 7 -17 7 -24 0 -8 -8
-13 -8 -17 0 -9 14 -93 15 -101 1 -4 -6 -15 -4 -30 6 -22 14 -24 14 -35 -6 -8
-15 -15 -18 -24 -11 -7 6 -17 6 -26 1 -8 -5 -21 -5 -32 1 -11 6 -18 6 -18 0 0
-5 -8 -8 -17 -7 -12 1 -17 -5 -15 -17 3 -15 -1 -17 -17 -12 -10 3 -22 1 -26
-5 -3 -6 -10 -8 -15 -5 -5 3 -17 1 -27 -4 -10 -5 -30 -12 -45 -16 -18 -3 -28
-12 -28 -23 0 -10 -7 -28 -16 -40 -11 -17 -14 -34 -10 -60 4 -20 7 -52 6 -69
0 -20 5 -32 11 -30 6 1 14 -4 16 -10 3 -7 -1 -13 -7 -13 -9 0 -9 -5 1 -17 11
-13 11 -17 2 -20 -16 -6 -18 -109 -3 -118 6 -3 10 -15 10 -27 0 -16 -3 -18
-14 -9 -19 16 -26 -6 -26 -79 0 -37 6 -69 17 -89 17 -29 10 -59 -7 -31 -17 27
-21 -12 -16 -156 4 -146 12 -225 26 -271 8 -27 9 -27 15 -5 8 24 20 28 31 11
4 -8 9 -7 16 2 7 11 11 11 15 2 7 -18 33 -16 33 2 0 8 5 15 10 15 6 0 10 -7
10 -15 0 -8 4 -15 9 -15 5 0 18 -3 28 -6 15 -6 16 -4 6 7 -7 7 -13 18 -13 25
0 16 50 5 57 -13 5 -11 9 -11 24 3 12 10 19 13 19 5 0 -6 11 -16 25 -23 19 -9
29 -8 50 6 14 9 25 24 25 33 0 13 3 14 12 5 9 -9 14 -7 24 6 11 14 13 15 14 2
0 -9 -5 -21 -12 -28 -17 -17 4 -15 30 4 12 8 22 22 22 30 0 8 5 14 10 14 6 0
10 -4 10 -10 0 -5 9 -10 20 -10 11 0 20 5 20 10 0 6 11 10 25 10 14 0 25 4 25
9 0 5 8 12 18 15 43 16 72 39 72 57 0 10 5 19 10 19 6 0 10 -9 10 -20 0 -25
19 -26 26 -2 11 36 22 47 55 58 26 9 35 19 39 40 5 27 8 29 48 26 45 -3 47 -1
32 29 -9 16 -7 19 10 19 11 0 20 -5 20 -11 0 -5 5 -7 11 -4 6 4 8 20 4 38 -6
30 -5 31 10 13 13 -17 15 -18 15 -3 0 9 4 17 9 17 14 0 69 58 73 77 5 28 35
27 59 -1 13 -14 29 -26 38 -26 11 0 10 -4 -5 -15 -18 -14 -18 -16 -2 -25 10
-6 15 -17 11 -26 -3 -8 1 -22 10 -32 8 -9 18 -28 22 -40 4 -14 21 -30 42 -38
27 -12 33 -19 28 -35 -5 -13 2 -32 21 -56 24 -31 30 -35 61 -30 28 5 34 3 29
-8 -3 -8 -1 -15 4 -15 6 0 10 -6 11 -12 0 -19 56 -60 64 -48 4 7 12 7 24 0 10
-5 21 -6 25 -2 4 3 11 0 16 -8 8 -13 10 -12 10 3 0 24 17 21 25 -4 5 -16 9
-18 15 -9 4 7 12 10 18 6 5 -3 12 3 15 14 3 11 11 20 17 20 8 0 10 -9 5 -27
-6 -24 -5 -25 10 -13 11 9 15 23 12 39 -6 32 8 61 30 61 13 0 14 -3 5 -12 -14
-14 -16 -64 -3 -72 5 -3 11 1 15 9 3 8 12 12 21 9 23 -9 65 23 81 61 14 35 34
55 34 35 0 -6 4 -9 9 -5 11 6 10 64 -1 81 -4 6 -3 26 2 45 14 46 13 136 -1
145 -8 5 -6 10 5 16 12 7 14 13 6 29 -8 13 -8 19 0 19 7 0 8 6 0 19 -5 11 -10
33 -10 50 0 32 15 50 23 29 3 -7 6 4 6 26 1 33 -1 37 -14 26 -9 -8 -15 -8 -15
-2 0 6 7 17 15 26 17 16 19 114 6 221 -6 45 -4 63 6 73 7 7 13 29 13 48 0 19
7 51 15 71 14 33 14 38 0 45 -19 11 -19 34 0 42 9 3 15 0 15 -9 0 -8 5 -15 10
-15 23 0 9 46 -20 62 -17 9 -30 24 -30 33 0 10 -9 15 -27 15 -16 0 -51 3 -79
6 -43 5 -52 4 -58 -11z m-1406 -179 c0 5 4 4 8 -3 4 -7 58 -13 142 -18 74 -3
139 -10 144 -15 6 -6 25 -10 44 -10 24 0 33 -4 29 -13 -5 -13 49 -47 97 -61
10 -4 16 -12 13 -20 -3 -8 0 -17 8 -19 14 -6 45 -62 45 -83 0 -6 16 -21 35
-33 19 -11 35 -25 35 -31 0 -5 7 -10 15 -10 8 0 15 -4 15 -10 0 -5 6 -7 14 -4
10 4 16 -2 18 -18 2 -13 8 -23 13 -23 6 0 21 -8 34 -17 23 -16 24 -18 8 -36
-9 -10 -17 -31 -17 -46 0 -14 -7 -29 -15 -32 -8 -3 -17 -14 -20 -24 -3 -10
-19 -35 -35 -55 -17 -21 -30 -47 -30 -57 0 -11 -9 -22 -20 -25 -11 -3 -20 -9
-20 -14 0 -5 -5 -9 -11 -9 -6 0 -36 -21 -67 -46 -30 -25 -77 -56 -103 -69 -26
-14 -49 -28 -51 -33 -4 -11 -126 -60 -170 -69 -18 -3 -38 -10 -45 -15 -7 -5
-14 -5 -18 2 -3 6 -11 8 -16 4 -6 -3 -48 0 -95 6 -96 14 -107 23 -123 101 -5
24 -12 52 -16 62 -4 10 -4 17 1 15 5 -2 10 2 12 7 2 6 -7 12 -19 15 -12 3 -25
12 -27 19 -3 10 2 12 20 8 l25 -7 7 98 c4 57 3 111 -3 131 -12 38 -6 54 10 31
8 -11 9 -9 4 10 -4 14 -8 50 -10 80 -1 30 -8 56 -14 58 -17 6 -3 22 20 22 22
0 25 10 7 28 -6 6 -12 38 -14 71 -2 54 1 63 24 86 77 73 87 81 100 72 6 -5 12
-6 12 -1z m1486 -21 c3 -14 3 -38 0 -53 -13 -51 -25 -147 -32 -247 -3 -55 -6
-102 -6 -105 -1 -3 2 -13 7 -24 5 -11 3 -21 -4 -25 -8 -5 -16 -65 -23 -167
-13 -186 -18 -195 -87 -182 -44 8 -71 -1 -71 -26 0 -6 -13 -11 -30 -11 -32 0
-36 5 -20 21 5 5 6 15 0 24 -8 13 -11 12 -24 -5 -13 -19 -15 -19 -21 -2 -4 9
-13 17 -20 17 -8 0 -16 8 -18 18 -2 9 -3 4 -2 -11 2 -38 -12 -44 -26 -10 -26
63 -73 154 -86 164 -7 6 -13 18 -13 25 0 8 -6 11 -15 8 -12 -5 -15 2 -15 29 0
45 -43 143 -48 110 -4 -27 -6 -27 -31 -11 -19 11 -18 13 10 30 34 21 36 32 8
51 -17 12 -19 19 -10 35 18 34 14 54 -9 47 -18 -6 -19 -5 -5 22 14 25 13 29
-3 41 -11 9 -31 11 -54 8 -28 -5 -38 -3 -38 7 0 21 101 97 193 145 45 23 87
50 94 58 7 9 13 11 17 5 7 -11 55 5 67 22 4 5 10 4 13 -2 4 -6 11 -9 16 -6 5
3 66 6 135 6 73 0 125 4 125 9 0 21 20 9 26 -15z"/>
<path d="M7336 8765 c-12 -9 -24 -11 -35 -6 -19 11 -71 -29 -71 -54 0 -8 -7
-15 -15 -15 -8 0 -22 -11 -31 -24 -10 -16 -21 -23 -31 -19 -12 5 -14 1 -8 -16
5 -18 3 -22 -12 -21 -31 4 -36 1 -23 -15 14 -17 4 -37 -18 -34 -29 3 -52 -12
-52 -35 0 -14 -14 -29 -40 -45 -21 -14 -37 -28 -34 -33 3 -4 -7 -18 -21 -30
-14 -13 -27 -34 -29 -48 -2 -14 -11 -42 -20 -62 -9 -20 -13 -43 -10 -51 3 -8
1 -18 -5 -22 -19 -11 -12 -43 17 -74 15 -16 35 -40 44 -53 15 -20 17 -20 11
-3 -6 19 -5 19 18 -2 35 -32 76 -45 100 -33 10 6 19 15 19 19 0 5 19 7 43 4
35 -5 40 -3 30 8 -19 20 -16 27 11 22 17 -4 25 0 29 16 3 13 13 21 26 21 22 0
56 60 39 71 -10 6 19 69 33 69 5 0 9 -11 9 -24 0 -14 4 -28 10 -31 6 -4 8 7 6
26 -3 24 1 33 14 36 15 4 18 13 15 48 -1 24 -6 48 -9 54 -13 20 5 12 25 -11
15 -19 18 -20 19 -6 0 9 -6 19 -12 22 -10 3 -8 8 4 16 19 12 14 38 -11 58 -15
12 -15 14 1 23 16 9 16 12 -8 34 -15 14 -32 25 -38 25 -19 -1 -56 -70 -56
-104 0 -26 -6 -35 -26 -45 -18 -8 -24 -17 -20 -27 4 -11 2 -15 -8 -11 -9 4
-16 -3 -20 -19 -4 -14 -18 -30 -31 -36 -14 -6 -25 -19 -25 -27 0 -20 -79 -83
-99 -79 -21 4 -24 23 -6 41 9 9 15 33 15 57 0 32 4 43 18 47 10 2 34 34 53 71
18 37 37 69 41 70 5 2 8 9 8 16 0 23 41 66 82 86 39 19 40 19 90 -1 47 -18 52
-19 75 -3 14 9 28 25 30 35 3 10 12 19 20 19 13 0 13 3 3 15 -10 12 -10 19 -2
27 20 20 13 31 -13 24 -20 -5 -25 -3 -25 14 0 16 -7 20 -30 20 -16 0 -30 5
-30 10 0 14 -11 12 -34 -5z"/>
<path d="M5963 8605 c-12 -8 -28 -12 -36 -9 -13 5 -59 -12 -97 -35 -8 -5 -39
-20 -67 -32 -29 -13 -53 -29 -53 -36 0 -7 -7 -13 -15 -13 -8 0 -15 -6 -15 -14
0 -8 -7 -16 -15 -20 -8 -3 -15 -14 -15 -25 0 -22 -20 -40 -21 -19 0 7 -4 3 -9
-9 -5 -13 -14 -23 -19 -23 -7 0 -7 -9 -1 -26 14 -35 13 -39 -7 -23 -14 12 -17
12 -21 0 -2 -7 -13 -22 -23 -32 -11 -11 -19 -28 -19 -38 0 -11 -4 -23 -10 -26
-5 -3 -10 -15 -10 -26 0 -10 -7 -19 -15 -19 -13 0 -19 -21 -28 -89 -1 -8 -11
-15 -21 -17 -21 -3 -38 -23 -30 -36 3 -4 -2 -18 -11 -31 -8 -13 -17 -42 -19
-65 -3 -22 -9 -50 -15 -61 -13 -24 -14 -61 -2 -61 4 0 6 -12 3 -26 -4 -20 2
-32 24 -51 17 -14 24 -26 18 -29 -9 -4 -9 -11 0 -29 12 -28 36 -34 36 -10 0
13 4 14 20 5 11 -6 20 -20 20 -30 0 -24 18 -26 35 -3 11 15 13 15 19 -4 4 -11
17 -23 29 -26 12 -2 30 -8 40 -12 12 -5 17 -2 17 9 0 15 2 15 26 0 24 -16 27
-16 69 5 23 12 46 29 49 37 5 13 16 15 50 12 54 -6 66 0 71 38 2 16 4 31 5 34
0 3 7 -4 15 -14 8 -11 15 -15 15 -9 0 7 10 13 22 15 13 2 24 11 26 21 4 17 12
29 59 80 9 9 25 17 35 17 10 0 18 5 18 12 0 6 7 20 17 30 9 10 12 18 6 18 -5
0 -8 14 -5 30 3 25 7 28 18 19 11 -9 14 -7 14 14 0 14 6 32 13 39 8 7 12 19 9
26 -2 6 3 12 12 12 9 0 16 6 16 14 0 7 7 19 15 26 8 7 15 21 15 32 0 10 7 29
16 43 14 21 14 24 -1 33 -15 8 -15 10 2 27 13 13 14 20 5 23 -19 6 -14 40 8
54 26 17 26 53 -1 72 -16 11 -23 29 -27 68 -5 54 -19 78 -46 78 -9 0 -21 9
-28 20 -13 21 -48 28 -48 10 0 -22 -40 -9 -52 18 -11 20 -20 27 -40 25 -20 -1
-25 2 -21 13 7 18 3 18 -24 -1z m28 -72 c5 -5 -3 -21 -16 -37 -14 -16 -25 -33
-25 -38 0 -4 -7 -8 -15 -8 -8 0 -15 -8 -15 -19 0 -10 -7 -24 -16 -32 -14 -12
-14 -14 5 -21 12 -4 21 -12 21 -19 0 -6 -7 -9 -15 -5 -8 3 -15 1 -15 -4 0 -6
4 -10 9 -10 5 0 16 -3 24 -6 10 -4 15 2 15 21 0 14 7 34 16 44 9 9 16 22 16
28 0 6 8 17 17 24 15 13 16 12 11 -8 -7 -25 -6 -26 16 -17 9 3 16 15 16 25 0
52 61 -2 90 -80 25 -65 25 -97 0 -149 -11 -22 -20 -48 -20 -56 0 -23 -11 -46
-20 -41 -8 5 -23 -43 -19 -61 4 -18 -14 -44 -30 -44 -10 0 -22 -10 -28 -22
-12 -25 -125 -164 -153 -188 -10 -8 -23 -25 -29 -38 -7 -12 -17 -20 -23 -16
-6 4 -16 1 -22 -7 -6 -8 -18 -15 -26 -16 -8 -1 -37 -10 -63 -19 -36 -13 -58
-14 -90 -8 -36 8 -45 15 -69 59 -30 56 -37 145 -17 220 6 22 13 57 16 77 3 24
9 35 18 32 12 -5 40 50 36 70 -1 4 6 14 16 21 16 12 16 14 0 38 -9 15 -13 28
-8 32 6 3 14 -3 20 -12 9 -16 10 -14 11 10 0 19 5 27 18 27 11 0 24 11 30 25
6 14 16 25 21 25 5 0 12 13 16 30 4 16 11 33 16 36 6 3 14 17 19 30 5 13 18
24 27 24 10 0 24 9 31 20 7 12 34 35 60 51 37 24 54 29 81 25 19 -3 38 -9 42
-13z"/>
<path d="M7366 7535 c-3 -9 -6 -30 -6 -46 0 -39 -21 -121 -34 -136 -28 -31
-33 -40 -40 -66 -3 -15 -11 -27 -16 -27 -8 0 -30 -40 -44 -82 -3 -10 -14 -18
-26 -18 -13 0 -24 -11 -34 -35 -8 -19 -22 -35 -30 -35 -8 0 -19 -7 -23 -15 -7
-12 -95 -65 -109 -65 -2 0 -4 9 -4 20 0 11 4 20 8 20 4 0 8 8 9 18 7 73 10 86
21 90 6 2 15 26 18 54 4 32 12 52 23 56 9 3 21 12 27 20 8 12 12 11 23 -2 11
-13 17 -14 28 -5 7 7 16 9 19 6 8 -8 111 70 118 90 10 25 -2 50 -27 57 -33 9
-37 8 -37 -10 0 -11 -5 -14 -16 -10 -16 6 -33 -6 -52 -39 -10 -18 -11 -15 -9
17 1 21 7 38 12 39 6 0 1 4 -10 8 -27 11 -35 5 -35 -30 0 -46 -30 -38 -32 9
-1 36 -1 36 -5 5 -4 -33 -27 -45 -36 -20 -3 8 -12 5 -28 -10 -19 -19 -20 -24
-9 -38 7 -8 11 -17 9 -18 -2 -2 -16 -11 -31 -20 -21 -13 -28 -25 -28 -50 0
-22 -7 -36 -21 -45 -17 -11 -20 -20 -15 -43 3 -16 1 -29 -4 -29 -6 0 -10 -7
-10 -15 0 -8 -6 -25 -12 -36 -10 -17 -10 -23 -1 -26 10 -4 9 -10 -2 -26 -20
-28 -20 -67 0 -67 18 0 20 -17 3 -22 -21 -7 8 -57 39 -69 16 -6 35 -17 44 -25
13 -12 25 -12 68 -3 28 6 51 15 51 21 0 7 5 7 13 -1 10 -8 19 -6 35 10 12 11
22 24 22 29 0 6 7 10 15 10 19 0 55 31 55 47 0 7 5 13 10 13 6 0 10 6 10 14 0
7 9 16 20 19 11 3 20 14 20 25 0 10 9 27 19 36 15 14 18 23 11 42 -8 19 -5 26
10 34 14 8 20 6 24 -8 3 -9 4 -1 2 18 -3 28 1 41 20 59 27 26 31 59 9 67 -14
6 -13 8 1 19 11 8 15 20 11 34 -3 14 0 24 9 28 12 4 12 8 -3 19 -17 12 -16 13
7 14 14 1 19 4 13 7 -18 7 -16 23 2 23 8 0 15 7 15 16 0 11 -6 13 -19 9 -17
-5 -20 0 -23 37 -3 45 -29 65 -42 33z"/>
<path d="M5984 6496 c-7 -11 -14 -14 -18 -8 -3 5 -15 8 -26 5 -16 -4 -18 -8
-9 -19 7 -8 10 -16 8 -17 -2 -1 -19 -12 -37 -25 -18 -13 -37 -20 -42 -17 -6 3
-10 2 -10 -3 0 -6 -9 -8 -21 -5 -15 4 -22 0 -26 -15 -3 -11 -11 -23 -19 -26
-9 -3 -14 -21 -14 -48 0 -26 -3 -38 -9 -30 -13 22 -31 -10 -35 -62 -2 -26 -12
-56 -21 -66 -10 -11 -13 -20 -8 -20 6 0 13 -8 16 -17 2 -10 8 -26 12 -37 7
-16 6 -17 -13 -7 -24 13 -29 2 -10 -17 8 -8 8 -15 -1 -26 -14 -17 -5 -63 17
-89 13 -15 14 -20 3 -26 -10 -6 -10 -10 -2 -16 9 -5 9 -10 0 -21 -9 -11 -7
-14 11 -14 15 0 20 -4 16 -15 -3 -8 2 -18 11 -23 11 -6 12 -11 4 -16 -16 -10
-14 -26 5 -26 8 0 13 -4 10 -9 -3 -5 1 -14 9 -21 8 -7 15 -20 16 -29 0 -10 2
-11 6 -3 9 23 23 12 23 -20 1 -31 1 -32 15 -14 8 11 15 31 16 45 0 19 4 13 12
-18 14 -54 37 -67 37 -22 0 17 5 40 11 50 10 15 5 28 -32 82 -24 35 -47 66
-51 67 -5 2 -8 28 -8 58 0 52 -11 71 -24 38 -3 -8 -10 -12 -16 -9 -16 10 -12
23 10 30 36 11 42 40 16 66 -13 13 -29 35 -36 49 l-13 25 30 -27 c31 -30 53
-24 53 16 0 11 7 28 17 38 10 11 12 18 4 18 -8 0 -9 5 -1 19 5 11 10 31 10 45
0 20 8 29 38 42 49 21 161 14 199 -12 16 -11 39 -21 53 -24 21 -4 26 -12 28
-43 2 -26 -1 -37 -10 -35 -7 2 -17 -7 -23 -19 -10 -24 -25 -31 -25 -13 0 21
-18 9 -31 -21 -12 -30 -13 -30 -20 -10 -5 13 -17 21 -31 21 -20 -1 -21 -2 -5
-11 9 -5 17 -20 17 -32 0 -44 11 -66 31 -62 10 2 21 -1 25 -6 4 -6 11 -5 21 3
12 10 15 9 13 -7 -4 -34 0 -45 15 -45 7 0 18 8 24 17 8 15 11 15 25 4 14 -12
20 -11 37 7 11 12 28 22 38 22 28 0 42 23 35 59 -6 26 -4 30 10 25 20 -8 33
21 18 39 -6 7 -9 22 -6 33 3 12 -1 26 -10 33 -9 8 -16 28 -16 46 0 43 -9 65
-26 65 -8 0 -14 10 -14 24 0 37 -11 61 -21 45 -6 -10 -11 -10 -22 0 -13 10
-16 9 -20 -6 -4 -16 -6 -15 -12 4 -4 13 -11 20 -16 17 -5 -3 -7 1 -4 8 8 20
-12 45 -25 32 -13 -13 -62 -6 -54 7 6 11 -14 11 -41 -1 -13 -5 -26 -3 -37 8
-16 14 -18 13 -18 -1 0 -28 -18 -19 -22 11 -3 25 -4 25 -14 8z"/>
<path d="M5120 6035 c0 -9 -9 -15 -22 -15 -17 0 -19 -3 -10 -12 17 -17 15 -25
-8 -31 -12 -3 -20 -14 -20 -26 0 -12 -9 -38 -20 -58 -11 -21 -20 -45 -20 -55
0 -9 -5 -18 -11 -20 -8 -3 -6 -10 6 -21 12 -12 14 -21 7 -30 -26 -32 -45 -298
-22 -312 6 -4 7 -13 2 -21 -4 -8 -4 -49 0 -92 7 -61 13 -80 30 -93 14 -11 17
-18 9 -23 -7 -5 -3 -18 14 -40 14 -18 25 -37 25 -43 0 -5 18 -26 40 -46 22
-19 40 -41 40 -47 0 -6 14 -10 33 -9 17 2 46 -5 64 -14 30 -16 32 -16 38 2 3
11 19 21 37 25 25 5 29 9 20 18 -16 16 -15 28 3 28 10 0 15 10 15 30 0 17 5
30 10 30 6 0 10 -6 10 -14 0 -8 5 -18 12 -22 8 -5 9 -2 5 10 -9 23 2 43 14 25
8 -14 8 -14 24 37 3 9 12 13 22 10 14 -4 18 0 19 19 1 14 10 38 20 53 10 15
20 43 22 62 7 53 6 171 -1 210 -17 89 -20 100 -28 100 -5 0 -9 6 -9 14 0 8 -5
18 -11 22 -8 4 -9 -1 -5 -17 l7 -24 -18 21 c-10 12 -23 30 -29 40 -10 17 -13
17 -29 4 -15 -13 -19 -12 -31 5 -13 18 -14 17 -14 -8 0 -20 -7 -30 -25 -37
-13 -5 -30 -18 -37 -30 -7 -11 -21 -20 -31 -20 -13 0 -16 -5 -11 -24 3 -14 -1
-59 -10 -101 -15 -74 -13 -155 5 -155 4 0 15 -7 24 -16 15 -15 17 -15 29 2 17
23 29 118 16 122 -6 2 1 13 15 24 22 17 25 25 19 54 -4 22 -2 34 5 34 6 0 11
7 11 15 0 16 18 20 36 7 25 -16 54 -79 54 -115 0 -28 -6 -44 -22 -58 -13 -10
-17 -18 -10 -19 21 0 14 -15 -28 -59 -22 -23 -40 -48 -40 -55 0 -7 -11 -18
-25 -24 -14 -6 -25 -16 -25 -21 0 -14 -65 -41 -100 -41 -43 0 -66 15 -75 47
-3 15 -14 33 -23 40 -16 11 -16 12 2 13 13 0 16 5 11 18 -4 9 -11 30 -16 46
-4 15 -16 34 -26 42 -15 11 -15 15 -4 23 9 6 11 16 5 32 -10 33 -12 169 -2
163 4 -3 8 15 8 40 0 36 -3 44 -15 40 -18 -7 -19 -3 -2 29 13 24 15 25 30 9
16 -15 17 -15 17 5 0 12 -6 24 -12 27 -9 3 -7 9 6 20 19 15 19 16 1 36 -14 15
-15 20 -4 20 8 0 21 15 30 33 9 17 31 42 50 55 38 26 48 42 27 42 -17 0 -58
41 -58 57 0 6 -7 14 -16 17 -22 9 -24 8 -24 -9z"/>
<path d="M7300 5325 c0 -9 -7 -18 -15 -21 -8 -4 -15 -15 -15 -25 0 -10 -4 -19
-8 -19 -4 0 -13 -13 -19 -29 -7 -19 -19 -30 -34 -33 -17 -2 -25 -10 -27 -28
-5 -49 -13 -71 -22 -65 -6 4 -10 -7 -10 -25 0 -18 -4 -29 -10 -25 -6 4 -10
-20 -10 -66 0 -57 4 -75 18 -85 19 -15 33 -18 30 -6 -1 4 4 20 10 35 7 16 12
39 12 52 0 29 46 99 92 141 l34 31 45 -23 c24 -13 56 -24 71 -24 20 0 26 -4
22 -14 -3 -8 5 -34 19 -58 19 -33 23 -53 20 -86 -3 -23 -9 -45 -15 -48 -5 -3
-1 -12 9 -19 17 -12 16 -14 -10 -20 -15 -4 -27 -11 -27 -17 0 -5 -4 -6 -10 -3
-5 3 -10 1 -10 -4 0 -6 5 -11 10 -11 6 0 10 -4 10 -10 0 -5 -9 -10 -20 -10
-11 0 -20 -7 -20 -15 0 -8 -6 -15 -14 -15 -7 0 -19 -7 -26 -15 -7 -8 -16 -12
-21 -9 -5 3 -9 -2 -9 -10 0 -27 -60 -45 -119 -35 -91 14 -146 64 -201 184 -44
94 -64 97 -68 11 -2 -32 1 -80 7 -106 12 -55 74 -163 79 -137 2 10 8 17 14 17
6 0 8 -12 4 -31 -6 -31 -6 -31 29 -25 31 6 35 4 35 -14 0 -21 21 -33 73 -44
16 -4 27 -13 27 -22 0 -13 3 -14 14 -5 11 9 15 9 19 -1 3 -7 6 -3 6 10 1 12 5
22 10 22 5 0 12 -10 16 -22 6 -20 8 -20 12 -5 6 24 20 21 27 -5 4 -19 7 -20
18 -9 10 11 10 14 0 18 -18 7 -4 23 21 23 16 0 18 3 8 9 -9 6 -10 11 -2 15 6
4 11 16 11 27 0 10 5 19 10 19 6 0 10 -8 10 -17 0 -13 3 -14 12 -5 7 7 20 12
30 12 10 0 18 5 18 10 0 6 10 10 21 10 16 0 20 5 16 20 -3 11 -2 22 3 25 4 2
10 23 14 46 6 35 9 39 21 29 13 -10 15 -8 15 12 0 13 9 41 19 61 19 38 19 38
-1 31 -17 -5 -18 -3 -10 13 17 31 26 133 12 133 -8 0 -10 8 -6 24 6 25 -24
108 -43 120 -6 4 -11 16 -11 28 0 25 -37 78 -54 78 -8 0 -21 10 -29 23 -14 19
-16 20 -16 4 -1 -10 -6 -15 -11 -12 -6 4 -8 15 -5 26 4 11 2 19 -4 19 -6 0
-11 -9 -11 -19 0 -24 -30 -18 -56 10 -21 23 -34 24 -34 4z"/>
</g>
</svg>
