<?xml version="1.0" standalone="no"?>
<!DOCTYPE svg PUBLIC "-//W3C//DTD SVG 20010904//EN"
 "http://www.w3.org/TR/2001/REC-SVG-20010904/DTD/svg10.dtd">
<svg version="1.0" xmlns="http://www.w3.org/2000/svg"
 width="1291.000000pt" height="1786.000000pt" viewBox="0 0 1291.000000 1786.000000"
 preserveAspectRatio="xMidYMid meet">
<metadata>
Created by potrace 1.16, written by Peter Selinger 2001-2019
</metadata>
<g transform="translate(0.000000,1786.000000) scale(0.100000,-0.100000)"
fill="#ffffff" stroke="none">
<path d="M2115 14948 c-2 -7 -9 -32 -15 -55 -15 -59 -24 -54 -16 10 l7 52 -20
-29 c-15 -23 -17 -34 -9 -49 13 -25 -7 -50 -22 -27 -9 13 -11 13 -20 0 -5 -8
-10 -25 -10 -38 0 -13 -4 -21 -9 -17 -15 9 -41 -51 -28 -64 8 -8 7 -11 -4 -11
-9 0 -30 -20 -48 -45 -17 -24 -37 -50 -44 -57 -28 -30 -87 -126 -87 -141 0 -9
-10 -27 -22 -39 -35 -34 -58 -71 -58 -94 0 -17 -5 -20 -25 -16 -24 4 -25 3
-14 -21 15 -32 6 -57 -20 -57 -22 0 -51 -35 -51 -61 0 -10 -3 -19 -8 -21 -16
-7 -72 -87 -87 -126 -10 -23 -23 -42 -30 -42 -20 0 -29 -20 -16 -33 6 -6 11
-20 11 -32 0 -16 -2 -17 -9 -6 -14 21 -58 -1 -73 -36 -7 -16 -15 -30 -19 -33
-3 -3 -8 -13 -12 -22 -3 -10 -13 -18 -22 -18 -8 0 -15 -7 -15 -15 0 -8 -4 -15
-9 -15 -5 0 -7 -9 -4 -20 4 -15 0 -20 -15 -20 -12 0 -23 -9 -27 -20 -3 -11
-14 -20 -23 -20 -10 0 -23 -14 -31 -31 -7 -17 -21 -33 -29 -37 -29 -11 -82
-71 -83 -94 -1 -17 -2 -19 -6 -5 -6 22 -23 12 -23 -13 0 -11 -10 -20 -25 -24
-13 -3 -35 -20 -47 -36 -12 -17 -30 -30 -40 -30 -13 0 -18 -8 -18 -28 0 -16
-3 -32 -7 -35 -9 -10 -33 62 -26 79 3 8 2 22 -2 32 -4 9 -9 50 -10 89 -2 40
-7 77 -10 83 -4 6 -1 21 7 33 14 23 17 123 4 167 -7 24 -7 24 9 5 13 -17 17
-18 25 -5 12 19 1 62 -19 76 -13 10 -12 12 6 18 25 8 44 66 30 92 -7 13 -7 19
1 22 7 2 12 24 12 53 0 27 4 49 9 49 15 0 23 51 10 66 -9 11 -7 14 9 14 15 0
20 5 15 16 -4 10 1 17 16 21 23 6 27 18 11 28 -7 5 -8 11 -1 19 6 7 6 17 1 26
-14 22 -12 40 5 40 11 0 15 12 14 48 0 26 -4 56 -9 67 -7 17 -9 16 -10 -10 -1
-16 -4 -24 -7 -17 -9 24 -23 12 -23 -21 0 -30 -3 -33 -32 -35 -18 -2 -34 -7
-36 -12 -2 -6 -13 -10 -24 -10 -19 0 -19 -1 2 -31 24 -33 22 -49 -3 -24 -21
20 -27 19 -27 -5 0 -11 -6 -23 -14 -26 -8 -3 -22 -17 -32 -31 -15 -24 -15 -26
0 -20 12 5 16 0 16 -20 0 -14 -3 -24 -6 -20 -4 3 -14 -4 -24 -15 -15 -19 -15
-24 -4 -36 19 -18 19 -59 1 -43 -32 26 -38 -38 -7 -69 21 -21 19 -40 -5 -40
-7 0 -20 -6 -27 -13 -7 -7 -22 -17 -33 -21 -20 -8 -20 -8 -1 -15 14 -6 16 -10
7 -15 -8 -5 -10 -21 -5 -51 7 -48 -2 -77 -17 -54 -6 10 -9 8 -9 -8 0 -12 -5
-23 -11 -25 -9 -3 -9 -10 1 -27 10 -19 9 -28 -1 -48 -10 -19 -10 -28 -1 -43
16 -26 16 -27 -10 -34 -21 -6 -21 -7 -5 -17 9 -5 17 -21 17 -35 0 -21 -3 -24
-22 -19 -22 6 -22 5 -4 -9 10 -9 23 -13 27 -10 8 5 49 -26 49 -37 0 -3 -17 -6
-37 -5 -35 1 -38 -1 -41 -29 -4 -38 -22 -58 -22 -24 0 33 -22 74 -40 75 -30 2
-35 6 -18 12 12 5 14 12 9 21 -7 11 -14 10 -40 -8 -34 -24 -37 -20 -32 37 1
15 -2 21 -8 17 -6 -3 -11 1 -11 9 0 10 -6 13 -15 10 -10 -4 -15 0 -15 15 0 11
-9 25 -19 31 -11 5 -23 19 -26 30 -3 11 -14 20 -23 20 -15 1 -15 2 2 15 17 13
17 15 3 21 -10 3 -17 17 -17 31 0 17 -5 24 -17 22 -31 -3 -36 1 -23 16 15 18
-1 20 -18 3 -9 -9 -12 -5 -12 20 0 23 5 32 17 32 13 0 14 3 5 12 -7 7 -12 25
-12 40 0 15 -4 28 -10 28 -5 0 -10 15 -10 34 0 19 -4 38 -10 41 -5 3 -10 18
-10 32 0 18 -4 24 -15 19 -11 -4 -15 2 -15 22 0 21 -7 30 -30 39 -17 6 -30 16
-30 22 0 8 6 9 19 1 45 -24 72 3 32 31 -11 8 -22 24 -26 36 -5 19 -3 22 11 16
12 -5 15 -3 9 6 -4 8 -18 11 -36 7 -33 -6 -35 -4 -13 19 12 11 13 19 5 29 -6
7 -14 40 -17 74 -4 38 -12 63 -21 66 -10 4 -11 10 -3 25 17 33 12 42 -17 35
-25 -6 -26 -5 -15 8 20 25 -9 88 -40 88 -18 0 -20 -2 -8 -10 12 -8 12 -10 -3
-16 -9 -3 -23 -1 -31 5 -11 9 -15 8 -20 -5 -9 -24 -7 -28 9 -14 20 17 19 1 -1
-21 -15 -16 -14 -17 8 -12 20 6 22 5 9 -10 -7 -9 -18 -14 -24 -10 -6 4 -8 -2
-4 -16 3 -12 -1 -27 -9 -35 -8 -8 -11 -22 -7 -32 5 -14 3 -16 -13 -11 -15 5
-14 3 4 -10 20 -14 21 -17 7 -33 -14 -15 -13 -19 6 -44 17 -21 19 -29 9 -41
-15 -18 1 -20 18 -3 17 17 15 -3 -3 -38 -21 -41 -20 -61 1 -43 15 13 16 11 12
-21 -4 -26 0 -42 17 -65 18 -25 37 -72 37 -95 0 -13 23 -30 35 -26 18 7 17
-14 -2 -28 -8 -6 -17 -25 -21 -42 -5 -27 -3 -32 18 -38 17 -4 20 -8 10 -14
-10 -7 -10 -11 3 -22 8 -7 15 -23 15 -36 0 -16 6 -24 16 -24 14 0 16 -7 11
-40 -4 -33 -2 -42 15 -51 11 -6 17 -17 14 -25 -4 -12 -2 -12 15 -4 22 12 63 4
54 -11 -4 -5 -11 -9 -16 -9 -6 0 -7 5 -4 10 3 6 2 10 -4 10 -13 0 -23 -33 -15
-54 4 -11 13 -14 29 -10 15 4 24 0 29 -12 8 -20 -8 -42 -18 -25 -4 6 -12 11
-19 11 -6 0 -2 -7 9 -15 10 -8 27 -15 37 -15 11 0 21 -9 24 -20 3 -11 11 -20
19 -20 10 0 11 -6 4 -25 -6 -16 -6 -25 0 -25 6 0 10 7 10 15 0 8 7 15 15 15
17 0 20 -16 5 -25 -6 -4 -8 -16 -4 -27 4 -15 3 -19 -7 -14 -8 4 -5 0 5 -8 11
-9 33 -16 50 -16 23 0 27 -3 19 -11 -9 -9 -6 -17 12 -30 13 -11 28 -19 34 -19
6 0 11 -7 11 -16 0 -12 7 -14 29 -9 26 5 29 4 24 -13 -5 -20 20 -37 38 -26 5
3 9 -6 9 -19 0 -28 22 -51 36 -38 15 14 62 22 69 11 3 -5 2 -10 -2 -10 -5 0
-18 -7 -29 -16 -16 -13 -16 -15 -2 -10 12 3 22 -3 30 -19 7 -13 18 -21 23 -17
15 10 42 47 30 40 -13 -8 -42 8 -33 17 4 4 16 4 27 0 16 -5 20 -14 18 -45 -1
-29 4 -44 18 -55 19 -14 19 -16 3 -28 -15 -12 -16 -18 -6 -45 7 -18 15 -32 19
-32 3 0 4 -11 1 -25 -3 -20 -1 -24 12 -19 14 6 16 0 11 -37 -4 -31 -3 -38 4
-24 12 28 41 52 41 35 0 -9 4 -9 17 1 14 12 16 12 11 -1 -2 -8 -11 -15 -19
-15 -8 0 -25 -16 -38 -35 -21 -31 -22 -38 -11 -65 7 -16 13 -42 13 -57 0 -21
5 -28 18 -28 11 0 20 -6 21 -12 5 -38 2 -74 -7 -80 -5 -4 5 -8 23 -8 l33 0
-20 -26 c-12 -15 -21 -41 -21 -61 0 -31 2 -33 27 -27 25 7 27 6 14 -9 -7 -9
-17 -15 -21 -12 -5 3 -3 -6 3 -19 8 -16 14 -21 19 -13 5 8 8 6 8 -5 0 -10 -5
-18 -12 -18 -6 0 -4 -7 5 -18 10 -10 17 -34 17 -54 0 -20 9 -46 20 -61 13 -16
16 -28 10 -32 -13 -8 -13 -42 0 -50 6 -4 7 1 3 10 -4 13 -1 16 13 13 26 -5 29
-33 4 -44 -21 -9 -21 -10 9 -39 36 -36 41 -60 9 -50 -17 6 -20 4 -15 -10 4 -9
7 -21 7 -27 0 -6 7 -8 15 -4 18 6 19 1 5 -25 -8 -15 -7 -19 5 -19 10 0 15 -10
15 -29 0 -30 36 -138 52 -156 6 -6 8 -5 6 4 -2 8 4 16 13 18 14 3 16 -3 12
-41 -5 -42 -4 -44 16 -39 19 5 21 1 21 -31 0 -28 4 -36 18 -36 10 0 24 6 31
13 10 10 15 8 27 -7 17 -23 18 -42 3 -51 -6 -4 -13 2 -16 14 -5 19 -7 19 -29
5 -19 -13 -22 -20 -14 -34 6 -10 10 -30 10 -44 0 -17 5 -26 16 -26 11 0 14 -5
10 -16 -8 -21 19 -71 44 -79 11 -4 18 -11 14 -16 -9 -15 6 -49 23 -49 11 0 14
-7 9 -27 l-7 -28 25 30 c20 23 25 26 26 13 0 -10 -4 -18 -10 -18 -17 0 -11
-56 8 -81 10 -13 31 -50 47 -82 32 -65 45 -78 45 -48 0 12 5 21 10 21 6 0 10
-16 10 -35 0 -20 7 -47 17 -61 9 -14 23 -38 32 -53 38 -66 57 -91 74 -97 9 -3
17 -14 17 -25 0 -11 11 -31 24 -44 14 -14 26 -35 28 -47 2 -19 8 -22 34 -20
28 3 31 0 32 -25 0 -15 5 -41 11 -57 9 -23 15 -27 36 -22 19 5 23 3 19 -9 -4
-8 -10 -15 -15 -15 -4 0 -6 -7 -3 -15 6 -14 8 -13 20 2 12 17 13 16 14 -5 0
-47 62 -122 100 -122 23 0 35 -16 18 -26 -6 -4 -14 -2 -16 4 -2 7 -8 10 -13 7
-5 -4 6 -25 24 -49 26 -35 35 -41 48 -33 10 6 24 7 35 2 18 -8 17 -9 -3 -12
-30 -6 -29 -18 4 -62 38 -49 75 -80 95 -81 10 0 23 -10 29 -22 16 -30 41 -49
57 -43 8 3 12 -6 12 -26 0 -32 51 -122 58 -101 2 6 19 12 38 12 21 0 33 -4 29
-10 -3 -5 -17 -10 -30 -10 l-24 0 23 -25 c13 -14 27 -25 32 -25 5 0 15 -14 21
-31 11 -28 15 -31 43 -26 26 6 30 4 30 -16 1 -52 74 -123 115 -113 14 4 25 2
25 -4 0 -5 8 -10 18 -10 16 -1 16 -1 0 -14 -18 -13 -14 -26 8 -26 7 0 14 10
16 22 2 12 8 23 14 25 8 3 10 -10 7 -42 -3 -25 -2 -45 3 -45 5 0 21 19 36 43
23 35 28 38 28 19 0 -12 -5 -31 -12 -41 -9 -15 -8 -26 5 -52 13 -28 17 -31 22
-16 11 27 25 20 25 -13 0 -20 5 -30 15 -30 8 0 15 -9 15 -20 0 -21 42 -50 47
-33 2 6 18 -3 36 -20 75 -71 131 -109 154 -104 12 2 20 0 17 -4 -7 -11 24 -41
61 -59 16 -8 38 -23 48 -33 12 -12 28 -17 43 -14 13 2 24 0 24 -5 0 -5 6 -15
13 -22 10 -11 15 -10 25 1 10 10 10 13 -3 13 -9 0 -15 5 -13 11 2 6 7 10 11
10 4 -1 23 -1 42 -1 19 0 35 -5 35 -11 0 -6 -7 -8 -16 -5 -12 4 -14 1 -9 -14
5 -16 2 -20 -14 -20 -12 0 -21 -6 -21 -14 0 -17 38 -46 60 -46 8 0 21 -9 28
-20 7 -11 20 -20 30 -20 10 0 34 -13 52 -30 18 -16 43 -30 54 -30 12 0 27 -9
34 -20 7 -12 17 -18 23 -14 18 11 61 -6 55 -21 -3 -9 6 -20 24 -29 25 -12 31
-12 41 0 6 8 16 14 22 14 5 0 16 8 23 18 12 16 13 16 14 0 0 -9 -9 -23 -20
-31 -18 -13 -17 -14 23 -31 23 -9 50 -21 60 -27 14 -7 17 -5 17 13 0 34 16 56
30 42 9 -9 9 -14 1 -18 -6 -4 -11 -23 -11 -42 0 -33 1 -34 41 -34 34 0 40 -3
35 -16 -5 -13 -1 -15 18 -12 21 4 24 2 16 -12 -8 -14 -4 -20 18 -28 47 -18 77
-26 90 -24 6 2 12 -2 12 -8 0 -6 4 -8 10 -5 5 3 10 15 10 26 0 12 4 17 11 14
6 -4 7 -19 4 -36 -5 -22 -3 -29 9 -29 8 0 18 5 21 10 11 18 26 10 20 -10 -7
-22 5 -26 22 -9 8 8 13 5 18 -10 7 -23 20 -27 30 -11 4 6 10 8 15 5 5 -3 11
-1 15 5 3 5 1 10 -4 10 -6 0 -11 5 -11 10 0 6 7 10 15 10 11 0 15 -11 15 -41
0 -35 2 -40 19 -34 20 6 101 -31 101 -46 0 -5 13 -9 30 -9 21 0 28 4 24 14 -3
8 0 17 6 21 6 4 15 -6 21 -24 12 -33 36 -41 45 -16 4 8 12 15 20 15 7 0 11 -6
8 -14 -7 -17 22 -46 46 -46 11 0 20 10 24 25 9 34 26 22 26 -17 0 -32 4 -33
77 -12 15 4 23 1 27 -13 4 -13 17 -18 51 -20 53 -2 74 -11 54 -24 -10 -6 -8
-9 9 -9 21 0 22 3 22 108 0 113 -7 139 -35 129 -9 -4 -13 -11 -10 -17 11 -18
-3 -11 -31 15 -36 34 -67 29 -75 -10 -4 -16 -7 -25 -8 -20 -1 6 -8 1 -16 -9
-13 -17 -15 -17 -21 -3 -3 10 -12 17 -20 17 -7 0 -27 15 -43 33 -24 24 -31 28
-31 15 0 -10 -7 -18 -15 -18 -18 0 -20 16 -4 26 16 9 -11 25 -33 18 -13 -4
-15 0 -11 17 4 16 2 20 -8 17 -9 -3 -13 -16 -11 -32 2 -18 -1 -25 -7 -21 -6 3
-11 11 -11 17 0 6 -7 19 -16 29 -9 10 -20 33 -24 51 l-8 33 -1 -31 c-2 -49
-24 -60 -40 -21 -15 34 -52 72 -92 96 -23 13 -24 13 -6 -6 9 -11 17 -25 17
-31 0 -7 5 -12 10 -12 6 0 10 -8 10 -19 0 -17 -2 -17 -44 3 -39 19 -42 23 -29
37 12 15 11 19 -13 38 -32 25 -44 20 -44 -20 0 -16 -4 -29 -10 -29 -5 0 -18
-17 -29 -37 -24 -45 -27 -31 -6 20 18 43 19 50 5 42 -18 -11 -56 21 -79 67
l-21 43 0 -32 c0 -23 -5 -33 -15 -33 -8 0 -15 7 -15 16 0 8 -7 22 -15 30 -8 9
-15 11 -15 5 0 -21 -19 -11 -23 11 -2 13 -5 4 -6 -19 0 -24 -5 -43 -10 -43
-16 0 -20 26 -10 66 4 22 9 47 9 57 0 17 -1 17 -16 3 -8 -9 -21 -16 -27 -16
-18 1 -53 32 -62 55 -7 19 -7 19 -16 -2 -11 -31 -16 -29 -35 15 l-17 37 -7
-33 c-11 -47 -20 -51 -20 -9 0 38 -15 48 -38 25 -6 -6 -15 -9 -18 -5 -10 9 16
37 33 37 13 0 13 3 3 15 -7 9 -19 14 -27 11 -7 -3 -22 3 -33 14 -15 15 -20 16
-20 6 0 -9 -9 -14 -21 -13 -16 1 -19 7 -16 24 5 27 -1 29 -19 6 -12 -17 -13
-16 -14 7 -1 51 -15 55 -53 14 -19 -22 -39 -36 -43 -31 -4 4 3 18 16 32 19 21
21 25 7 25 -12 0 -17 9 -17 33 0 24 -3 28 -10 17 -5 -8 -10 -25 -10 -38 0 -13
-4 -21 -9 -18 -7 5 -22 -27 -25 -56 -1 -3 -5 -10 -10 -15 -12 -11 3 85 16 107
9 13 7 23 -8 43 -22 31 -34 34 -34 10 -1 -11 -6 -6 -14 12 l-12 30 -15 -29
c-16 -33 -44 -54 -56 -43 -4 5 -1 12 6 16 18 12 5 31 -21 31 -18 0 -20 -4 -13
-37 9 -52 8 -74 -5 -87 -9 -8 -11 -6 -9 9 3 24 -8 73 -22 98 -6 11 -6 24 1 37
15 28 13 30 -27 30 l-36 0 24 27 c17 20 18 23 3 10 -27 -23 -41 -22 -55 6 -7
12 -20 33 -31 46 l-18 24 -11 -31 c-9 -27 -13 -29 -24 -18 -10 9 -12 26 -8 50
4 28 2 36 -9 36 -21 0 -37 -21 -44 -59 -10 -46 -25 -24 -29 40 -1 30 -3 63 -4
74 -1 15 -4 16 -13 7 -17 -17 -28 -15 -22 6 5 15 4 15 -10 -2 -8 -10 -13 -22
-11 -27 8 -13 -16 -22 -27 -11 -8 8 -6 18 5 35 15 23 15 24 -11 19 -24 -5 -26
-3 -13 11 8 10 11 27 7 42 -6 22 -9 24 -26 15 -18 -9 -19 -8 -16 17 2 16 1 21
-1 13 -3 -8 -14 -27 -24 -41 -9 -14 -19 -45 -21 -70 l-3 -44 -14 39 c-12 35
-12 40 8 67 12 16 19 34 15 40 -4 6 0 15 7 20 11 7 10 11 -6 23 -24 19 -58 21
-53 4 3 -7 10 -14 16 -14 25 -3 26 -6 7 -14 -17 -7 -17 -9 -2 -9 21 -1 22 -8
2 -27 -8 -9 -15 -24 -15 -36 0 -31 -25 -15 -28 18 -2 16 -6 36 -9 44 -6 15 -9
25 -12 38 -1 4 -6 -1 -12 -10 -16 -28 -29 -21 -30 15 -1 24 -3 26 -6 9 -5 -26
-26 -25 -31 2 -5 25 6 66 18 66 6 0 10 -7 10 -15 0 -8 5 -15 10 -15 6 0 10 9
10 20 0 20 -12 25 -61 21 -23 -2 -27 3 -33 34 -4 20 -5 51 -1 68 5 32 5 32
-11 9 l-17 -22 -23 25 c-23 24 -24 25 -24 6 0 -13 -7 -21 -17 -21 -15 0 -15
-1 1 -18 13 -15 15 -27 8 -58 l-9 -39 -10 60 c-7 35 -7 67 -2 77 7 13 5 15
-13 10 -14 -3 -26 1 -34 13 -11 14 -16 15 -28 6 -18 -15 -9 -52 11 -44 11 4
14 2 11 -8 -3 -8 -14 -13 -26 -12 -16 2 -19 -2 -15 -20 5 -21 4 -21 -16 3 -29
35 -27 66 7 82 23 11 27 20 28 58 1 25 0 33 -3 18 -2 -16 -9 -28 -14 -28 -5 0
-9 -10 -9 -22 l0 -22 -15 21 c-13 18 -13 26 -3 42 9 15 9 23 0 33 -6 8 -9 30
-6 49 7 47 -6 65 -36 49 -29 -16 -34 -8 -20 34 11 36 1 81 -14 58 -9 -14 -36
-4 -36 13 0 7 6 15 13 18 26 9 0 16 -33 8 -38 -8 -60 -5 -60 10 0 5 16 9 35 9
22 0 35 5 35 13 0 7 -12 13 -27 12 -21 0 -29 5 -31 22 -3 22 -3 22 -23 2 -15
-15 -18 -27 -13 -59 7 -44 3 -48 -20 -24 -10 9 -16 33 -16 60 0 32 -4 44 -15
44 -8 0 -15 9 -15 20 0 12 7 20 17 20 14 0 13 3 -5 20 -12 12 -22 25 -22 31 0
5 -7 9 -16 7 -10 -2 -19 3 -22 11 -3 10 0 12 11 8 8 -3 18 0 20 8 4 8 -5 15
-22 18 -15 3 -32 16 -39 29 -7 16 -11 18 -11 7 -1 -14 -27 -28 -53 -29 -4 0
-5 13 -2 30 5 22 2 31 -10 36 -10 4 -16 18 -17 38 l-1 31 -14 -32 c-7 -17 -18
-34 -24 -38 -14 -8 -13 28 1 42 13 13 4 33 -17 33 -15 0 -19 16 -5 24 19 12
18 45 -1 63 -20 18 -20 17 -14 -4 4 -14 3 -23 -3 -23 -9 0 -31 60 -31 88 0 6
-5 12 -10 12 -7 0 -8 -13 -4 -36 5 -29 4 -36 -7 -32 -8 3 -18 17 -24 33 -8 24
-7 30 13 43 32 21 27 35 -10 27 -27 -6 -30 -5 -24 10 6 16 5 17 -19 1 -24 -16
-25 -15 -25 3 0 10 9 21 20 24 11 3 20 11 20 18 0 10 -3 10 -12 1 -21 -21 -29
-13 -12 14 13 19 14 28 5 37 -6 6 -11 21 -11 34 0 24 -14 31 -25 13 -4 -6 -15
-8 -26 -5 -21 7 -36 -16 -24 -35 5 -8 11 -7 23 2 13 11 14 11 10 -2 -2 -8 -13
-15 -24 -15 -17 0 -19 7 -17 63 2 46 0 61 -9 56 -8 -5 -9 -2 -5 9 4 11 1 17
-7 17 -8 0 -16 7 -20 15 -3 8 -12 12 -21 9 -12 -5 -13 -10 -4 -20 11 -14 5
-34 -12 -34 -5 0 -9 7 -9 16 0 8 -4 12 -10 9 -16 -10 11 -43 32 -37 14 3 18
-1 18 -21 0 -21 -4 -24 -32 -23 -29 1 -31 4 -35 44 -3 30 2 53 15 76 14 24 16
37 9 54 -15 34 -41 23 -48 -21 -11 -66 -22 -54 -16 17 6 62 5 68 -13 73 -14 4
-20 14 -20 33 0 23 -4 27 -20 23 -11 -3 -20 -9 -20 -14 0 -5 -4 -9 -10 -9 -5
0 -10 9 -10 20 0 11 -6 20 -12 20 -7 0 1 13 19 28 28 24 32 34 35 87 3 53 1
60 -14 57 -10 -2 -18 3 -18 10 0 7 -9 2 -20 -12 l-20 -25 0 40 c0 22 6 52 14
67 12 23 12 30 0 54 -11 20 -11 30 -3 40 9 11 8 14 -5 14 -9 0 -17 8 -17 18
-1 9 -5 1 -8 -18 l-7 -35 -13 25 c-8 13 -13 44 -12 67 0 24 -3 43 -9 43 -5 0
-10 16 -10 35 0 19 -4 35 -10 35 -5 0 -10 7 -10 16 0 12 -8 9 -33 -10 -39 -30
-57 -34 -35 -8 8 9 18 25 21 34 4 11 12 15 22 12 8 -3 15 -1 15 5 0 6 -6 11
-14 11 -7 0 -21 10 -29 23 -15 21 -16 21 -17 2 l-1 -20 -8 20 c-11 27 -5 35
28 35 33 0 42 7 34 26 -7 20 -23 17 -23 -3 -1 -16 -2 -16 -15 1 -24 32 -19 47
11 36 34 -13 33 -14 25 17 -5 21 -16 29 -40 34 -18 4 -40 14 -49 23 -15 15
-14 16 11 16 17 0 27 5 27 14 0 10 -9 14 -27 13 -19 -1 -28 3 -31 16 -4 22 25
34 48 19 22 -13 30 -6 30 26 0 21 -2 22 -15 12 -10 -8 -15 -9 -15 -1 0 6 -14
18 -31 26 l-31 16 23 20 c19 16 21 22 11 45 -7 14 -12 32 -12 40 0 9 -10 24
-22 34 -13 10 -20 22 -16 26 4 4 14 1 23 -6 13 -10 15 -9 15 9 0 11 -4 21 -10
21 -14 0 -40 55 -40 85 0 15 -4 24 -10 20 -5 -3 -10 0 -10 8 0 8 13 20 30 26
47 16 37 63 -15 73 -16 3 -20 12 -21 43 0 22 -1 55 -2 74 -2 33 -2 34 -22 16
-26 -24 -37 -13 -16 17 21 30 20 41 -3 26 -15 -9 -24 -8 -45 6 -15 9 -31 14
-36 11 -16 -10 -11 12 6 26 12 10 20 10 34 2 13 -9 20 -9 29 0 7 7 11 8 11 0
0 -6 13 -4 34 6 34 16 55 59 34 72 -5 4 -3 9 6 12 10 4 13 12 9 23 -5 14 -3
16 11 11 10 -4 29 -7 43 -7 22 0 24 -2 13 -15 -7 -9 -10 -18 -7 -22 4 -3 12 6
18 21 13 28 28 33 46 15 8 -8 15 -8 26 2 12 12 9 18 -21 46 -20 18 -30 33 -22
33 7 0 21 -7 31 -16 16 -15 20 -15 34 -1 19 20 19 31 0 47 -12 10 -18 10 -30
0 -12 -10 -16 -9 -21 3 -14 38 36 45 62 9 10 -14 13 -12 20 9 7 23 8 22 20
-16 l12 -40 3 33 c1 17 2 38 3 45 1 6 6 15 11 19 6 5 5 8 -2 8 -8 0 -13 14
-13 36 0 32 2 36 23 31 38 -9 103 -17 90 -11 -7 3 -13 12 -13 20 0 7 -9 19
-20 26 -24 15 -25 24 -4 32 9 4 28 -1 41 -10 35 -22 39 -11 8 18 -21 19 -26
33 -23 59 3 29 6 34 26 31 13 -2 29 1 36 7 20 16 58 2 53 -20 -3 -11 -1 -17 4
-13 5 3 9 12 9 20 0 8 5 14 11 14 7 0 9 10 7 25 -3 16 -1 25 7 25 7 0 15 7 19
15 3 8 13 15 23 15 10 1 29 10 42 20 21 18 23 27 19 75 -3 40 -1 56 9 59 8 3
16 -1 19 -9 7 -18 41 -20 47 -2 7 21 -4 46 -19 40 -8 -3 -14 1 -14 9 0 16 40
19 40 3 0 -5 5 -2 11 8 5 9 17 17 25 17 28 0 57 37 50 64 -6 26 20 70 36 60 8
-5 12 10 9 34 -1 7 6 15 16 18 10 3 25 8 33 11 13 4 12 6 -2 14 -12 6 -18 22
-18 42 l0 32 19 -28 c14 -21 20 -25 24 -14 3 8 3 24 0 36 -8 30 5 71 21 71 8
0 17 -10 19 -22 3 -14 5 -9 6 15 1 35 13 48 26 27 14 -22 35 -10 35 21 0 22
10 40 35 64 28 25 32 34 20 39 -17 6 -21 46 -4 46 5 0 8 -4 5 -9 -3 -5 0 -14
8 -20 26 -22 64 33 61 86 -2 23 2 33 16 36 11 3 19 12 19 21 0 9 7 16 15 16
17 0 18 15 9 84 -4 26 -12 46 -19 46 -7 0 -18 7 -25 15 -8 10 -16 12 -19 6 -4
-6 -12 -7 -21 0 -13 8 -12 12 8 28 24 21 28 31 12 31 -6 0 -21 -12 -34 -27
-13 -15 -28 -23 -35 -19 -8 5 -5 13 11 26 19 15 20 20 9 34 -16 19 -30 21 -36
4z"/>
</g>
</svg>
