<?xml version="1.0" standalone="no"?>
<!DOCTYPE svg PUBLIC "-//W3C//DTD SVG 20010904//EN"
 "http://www.w3.org/TR/2001/REC-SVG-20010904/DTD/svg10.dtd">
<svg version="1.0" xmlns="http://www.w3.org/2000/svg"
 width="1291.000000pt" height="1786.000000pt" viewBox="0 0 1291.000000 1786.000000"
 preserveAspectRatio="xMidYMid meet">
<metadata>
Created by potrace 1.16, written by Peter Selinger 2001-2019
</metadata>
<g transform="translate(0.000000,1786.000000) scale(0.100000,-0.100000)"
fill="#ffffff" stroke="none">
<path d="M12179 15461 c19 -12 21 -102 4 -108 -9 -3 -13 7 -13 34 -1 35 -18
73 -34 73 -3 0 -6 -7 -6 -15 0 -9 -11 -21 -25 -27 -16 -7 -29 -24 -35 -47 -5
-20 -16 -45 -24 -56 -20 -26 -20 -65 -1 -65 22 0 18 -21 -5 -27 -16 -4 -20
-14 -20 -44 0 -22 -4 -39 -10 -39 -5 0 -10 -8 -10 -17 -1 -10 -8 -36 -16 -58
-15 -39 -36 -144 -35 -177 0 -9 -7 -22 -15 -29 -8 -6 -14 -19 -13 -28 0 -10 2
-11 6 -3 7 17 21 15 27 -5 9 -27 7 -38 -4 -38 -6 0 -15 -7 -20 -15 -8 -13 -10
-12 -10 3 0 50 -32 -8 -46 -85 -3 -21 -10 -38 -16 -38 -5 0 -6 -16 -2 -36 4
-24 3 -39 -5 -44 -7 -4 -15 -27 -18 -51 -3 -24 -10 -50 -16 -57 -6 -8 -11 -36
-11 -63 0 -33 -4 -49 -13 -49 -17 0 -36 -38 -28 -57 3 -9 2 -19 -2 -22 -17
-13 -43 -83 -43 -116 0 -19 -5 -35 -11 -35 -6 0 -8 -8 -5 -18 4 -12 -1 -21
-16 -27 -22 -10 -43 -70 -28 -80 11 -7 -1 -59 -18 -71 -7 -5 -15 -22 -15 -38
-2 -20 -6 -26 -19 -22 -15 3 -17 -1 -12 -20 3 -13 2 -24 -3 -24 -5 0 -7 -16
-5 -35 3 -27 1 -35 -12 -35 -19 0 -21 -16 -3 -23 9 -4 9 -8 -2 -15 -10 -8 -8
-13 10 -26 13 -9 30 -16 39 -16 9 0 24 -9 33 -21 26 -30 42 -19 39 27 -2 27 2
45 12 53 9 8 16 20 16 28 0 8 9 28 21 44 12 17 24 49 27 72 3 28 15 52 36 73
32 33 61 107 50 125 -3 6 2 16 11 23 11 8 15 21 12 37 l-4 24 -8 -22 c-9 -27
-20 -30 -29 -7 -9 24 -7 46 4 39 5 -3 21 -3 35 1 19 5 23 9 15 19 -8 10 -8 15
1 20 6 4 15 1 20 -6 7 -12 9 -12 9 0 0 8 -8 20 -17 27 -15 11 -16 15 -4 23 8
5 20 7 28 4 9 -4 13 4 13 25 0 16 6 35 14 41 18 15 9 54 -11 47 -10 -4 -13 0
-11 12 2 11 12 17 28 17 19 0 24 -5 22 -20 -2 -18 -2 -19 8 -2 6 9 11 36 12
60 0 30 6 47 19 57 17 13 18 20 9 44 -5 15 -8 31 -5 36 3 4 -2 10 -10 14 -26
10 -17 27 11 20 18 -5 29 -1 39 12 13 18 14 78 1 91 -13 13 -5 24 14 18 15 -5
21 0 26 22 4 15 12 35 19 43 7 8 15 25 18 38 4 18 1 22 -19 22 -19 0 -24 5
-24 25 0 31 7 31 30 3 21 -26 24 -24 34 15 5 23 3 27 -14 27 -11 0 -20 6 -20
13 0 20 12 28 25 17 9 -8 14 2 19 40 4 27 11 50 17 50 7 0 8 -12 4 -30 -4 -18
-3 -30 4 -30 13 0 27 73 14 77 -17 6 -2 61 18 66 23 6 25 35 4 43 -19 8 -20
24 -1 24 33 0 48 55 31 110 -5 16 -2 20 14 20 12 0 21 5 21 11 0 6 -8 8 -19 4
-11 -3 -22 -1 -26 5 -3 5 1 10 9 10 9 0 16 5 16 10 0 6 -7 10 -15 10 -8 0 -15
7 -15 15 0 7 -6 18 -13 22 -7 4 -20 20 -30 36 -10 15 -23 27 -30 27 -8 0 -7
-3 2 -9z"/>
<path d="M10975 15025 c-5 -2 -22 -6 -37 -9 -23 -5 -28 -12 -28 -37 0 -27 -2
-30 -15 -19 -22 18 -20 -8 2 -32 14 -16 15 -21 3 -28 -7 -4 -14 -20 -15 -35
-1 -22 3 -25 21 -21 18 5 22 1 27 -31 4 -23 1 -43 -8 -56 -11 -15 -11 -25 -2
-46 6 -14 14 -28 18 -31 3 -3 9 -22 13 -43 l7 -38 -25 16 c-14 9 -27 12 -30 7
-3 -5 4 -13 17 -16 21 -7 21 -7 2 -15 -17 -7 -15 -9 15 -16 33 -7 50 -20 50
-39 0 -4 -9 -6 -21 -3 -16 4 -20 1 -17 -16 3 -19 8 -22 41 -19 35 3 37 2 28
-17 -13 -24 -31 -36 -31 -21 0 6 -10 8 -27 4 -48 -12 -55 -45 -7 -36 20 4 32
-3 55 -27 35 -39 35 -41 4 -41 -15 0 -25 6 -25 14 0 8 -5 18 -11 22 -13 7 -29
-13 -28 -36 0 -10 2 -11 6 -2 2 6 9 10 14 6 15 -9 10 -24 -8 -24 -15 0 -14 -2
3 -15 18 -14 18 -16 1 -29 -16 -12 -16 -15 -2 -29 8 -9 15 -23 15 -32 0 -8 7
-18 15 -21 9 -4 15 -16 14 -28 -1 -11 -1 -38 -1 -60 2 -30 5 -37 17 -32 11 4
17 -3 22 -24 4 -22 9 -28 18 -20 18 15 25 1 25 -55 0 -56 12 -75 46 -75 28 0
35 -10 27 -39 -4 -14 -11 -20 -20 -17 -10 4 -13 0 -11 -12 2 -9 13 -18 26 -20
18 -3 21 -8 17 -30 -5 -25 -5 -25 4 -4 14 30 25 28 19 -3 -3 -14 1 -30 9 -37
8 -6 12 -17 9 -25 -3 -7 1 -13 9 -13 8 0 15 9 15 19 0 11 4 22 9 26 14 8 24
-14 12 -28 -5 -7 -6 -19 -2 -26 6 -9 11 -10 15 -2 14 22 26 11 26 -23 0 -29 3
-33 19 -29 30 8 35 -16 7 -29 -14 -6 -26 -15 -26 -20 0 -4 9 -3 20 4 22 14 39
3 22 -14 -21 -21 -13 -29 26 -22 36 7 36 6 20 -12 -9 -10 -20 -39 -26 -64 l-9
-45 -11 28 c-13 32 -22 33 -51 10 -14 -12 -30 -50 -46 -112 -14 -52 -30 -101
-36 -108 -7 -7 -8 -26 -5 -45 4 -18 10 -50 13 -70 5 -38 23 -53 23 -21 0 14 2
15 13 4 10 -11 10 -14 0 -18 -7 -3 -13 -11 -13 -19 0 -8 -11 -15 -25 -15 -14
-1 -31 -2 -37 -3 -7 -1 -12 7 -10 17 2 9 -2 17 -8 17 -5 0 -10 -6 -10 -14 0
-8 -7 -21 -15 -29 -13 -13 -13 -16 0 -21 21 -8 21 -76 0 -76 -8 0 -15 -5 -15
-11 0 -6 -16 -29 -35 -52 -22 -25 -33 -47 -30 -58 4 -11 -1 -18 -15 -22 -14
-3 -18 -10 -14 -22 4 -10 -1 -22 -15 -31 -11 -8 -21 -25 -21 -36 0 -12 -11
-36 -26 -55 -14 -18 -22 -38 -19 -43 9 -15 -17 -69 -31 -63 -12 4 -24 -27 -24
-64 0 -13 -4 -23 -10 -23 -5 0 -10 -9 -10 -20 0 -11 -4 -20 -10 -20 -5 0 -10
-13 -10 -30 0 -20 -5 -30 -15 -30 -8 0 -15 -4 -15 -10 0 -5 7 -10 15 -10 12 0
15 -13 15 -60 0 -33 -4 -60 -9 -60 -10 0 -24 43 -30 95 -2 14 -6 10 -13 -14
-6 -23 -6 -37 1 -44 19 -19 12 -38 -11 -35 -19 2 -24 -2 -26 -24 -2 -16 -9
-28 -18 -28 -8 0 -14 -10 -14 -25 0 -16 -6 -25 -15 -25 -8 0 -15 -3 -15 -6 0
-3 7 -12 15 -20 17 -17 20 -44 5 -44 -17 0 -25 5 -22 13 3 11 -26 9 -33 -3 -3
-5 -2 -10 4 -10 14 0 24 -36 16 -60 -5 -14 -12 -19 -24 -15 -21 6 -48 -19 -31
-30 17 -11 11 -25 -16 -35 -24 -10 -26 -13 -19 -55 4 -29 3 -45 -4 -45 -6 0
-11 8 -11 18 0 14 -58 -87 -63 -111 -1 -5 13 -10 31 -12 38 -3 47 -9 37 -24
-8 -14 -45 -14 -45 -1 0 9 -47 4 -59 -6 -2 -2 -3 -21 -3 -43 0 -22 -3 -43 -9
-46 -5 -4 -9 -1 -9 4 0 22 -17 10 -32 -21 -9 -20 -12 -41 -8 -53 8 -22 -5 -45
-26 -45 -8 0 -14 -10 -14 -24 0 -13 -7 -29 -16 -37 -14 -11 -14 -13 0 -21 22
-12 20 -31 -1 -24 -25 7 -69 -49 -54 -68 6 -7 9 -20 6 -28 -3 -8 3 -23 15 -33
11 -10 20 -24 20 -32 0 -23 -25 -14 -42 17 -9 17 -22 30 -28 30 -15 0 -12 -17
5 -24 8 -3 15 -15 15 -27 0 -21 -1 -22 -20 -4 -16 14 -20 15 -20 3 0 -8 -11
-29 -25 -48 -14 -19 -25 -43 -25 -54 1 -17 4 -15 14 9 9 21 14 26 20 16 7 -10
10 -10 16 -1 6 9 10 6 15 -9 9 -28 0 -38 -19 -22 -12 10 -15 8 -18 -11 -2 -15
-11 -24 -25 -26 -18 -3 -24 -12 -29 -42 -4 -21 -13 -41 -20 -44 -17 -6 -17 -1
-4 25 18 33 3 21 -20 -16 -18 -30 -20 -38 -9 -51 10 -13 10 -17 -1 -24 -8 -5
-10 -15 -5 -26 8 -18 9 -29 6 -75 -1 -18 -3 -19 -16 -9 -12 10 -15 10 -15 -1
0 -11 -2 -11 -10 1 -8 13 -10 12 -10 -2 0 -10 -8 -18 -17 -18 -17 -1 -17 -1 0
-11 28 -16 20 -31 -13 -24 -26 6 -30 3 -36 -22 -3 -15 -8 -35 -10 -45 -3 -9 0
-19 6 -23 14 -9 -6 -35 -26 -35 -17 0 -17 -5 -4 -31 8 -15 7 -19 -4 -19 -8 0
-16 6 -19 13 -2 6 -7 9 -11 6 -4 -4 5 -27 19 -52 25 -46 33 -97 15 -97 -5 0
-10 6 -10 14 0 8 -9 33 -20 57 l-20 44 0 -70 c0 -78 -12 -112 -25 -73 -21 62
-23 64 -24 31 -1 -17 -5 -35 -11 -38 -5 -3 -10 -19 -10 -36 0 -20 -5 -29 -16
-29 -10 0 -14 -6 -11 -14 3 -8 0 -20 -8 -26 -7 -6 -16 -22 -19 -35 -4 -14 -11
-25 -16 -25 -14 0 -13 23 2 38 13 13 5 27 -11 17 -6 -3 -11 -19 -11 -35 0 -30
-22 -60 -44 -60 -16 0 -36 -42 -36 -75 0 -18 -4 -23 -15 -19 -10 4 -15 0 -15
-11 0 -12 -6 -16 -20 -12 -11 3 -20 0 -20 -6 0 -7 -9 -23 -20 -37 -25 -32 -25
-40 0 -40 11 0 20 -5 20 -11 0 -5 -5 -7 -11 -3 -9 5 -10 -4 -5 -32 l6 -39 -19
23 c-17 19 -24 21 -41 12 -23 -12 -28 -35 -5 -27 19 8 26 -5 14 -23 -7 -13 -9
-13 -9 0 -1 8 -7 3 -16 -13 -11 -20 -12 -32 -4 -46 11 -21 -3 -40 -15 -21 -10
16 -25 1 -25 -26 0 -13 -4 -24 -9 -24 -5 0 -11 -10 -13 -22 -2 -15 -11 -24
-26 -26 -12 -2 -20 -8 -16 -13 8 -14 -4 -59 -16 -59 -6 0 -10 11 -10 25 0 14
-4 25 -10 25 -5 0 -10 -11 -10 -25 0 -16 -6 -25 -15 -25 -13 0 -14 -4 -5 -20
8 -15 8 -20 -3 -20 -18 0 -67 -23 -67 -32 0 -5 7 -8 15 -8 8 0 15 -4 15 -10 0
-5 -17 -10 -38 -10 -29 0 -44 -7 -67 -32 -17 -17 -29 -37 -27 -44 1 -7 -18
-30 -43 -51 -25 -21 -45 -44 -44 -53 3 -30 -1 -40 -15 -40 -8 0 -16 6 -18 12
-3 7 -16 -6 -31 -29 -14 -23 -31 -44 -37 -48 -5 -3 -10 -19 -10 -36 0 -19 -5
-29 -15 -29 -8 0 -15 6 -15 13 0 16 -49 -44 -50 -60 0 -7 -6 -13 -14 -13 -8 0
-16 -6 -19 -14 -3 -8 -16 -16 -28 -18 -15 -2 -25 -12 -29 -28 -3 -14 -10 -26
-15 -26 -29 -4 -55 -18 -55 -29 0 -7 -11 -15 -23 -19 -13 -3 -47 -28 -75 -56
-28 -27 -59 -50 -69 -50 -10 0 -31 -14 -47 -30 -16 -17 -37 -30 -46 -30 -9 0
-22 -12 -29 -26 -8 -19 -17 -25 -32 -21 -14 4 -37 -7 -71 -33 -28 -21 -64 -41
-80 -44 -16 -3 -43 -19 -61 -36 -18 -17 -42 -33 -54 -36 -16 -4 -23 -14 -23
-31 0 -13 4 -21 10 -18 5 3 20 -1 33 -10 24 -16 57 -11 57 7 0 6 7 5 16 -3 13
-10 20 -10 43 4 16 9 31 14 35 10 3 -3 6 1 6 10 0 11 8 17 23 17 42 -1 62 5
85 25 12 11 22 22 22 26 0 4 -10 10 -22 14 -21 6 -20 8 12 17 19 5 44 11 55
12 24 3 55 14 75 27 8 5 22 12 30 15 8 3 26 20 40 38 14 19 30 32 36 29 6 -2
15 6 19 19 6 19 8 20 12 6 2 -10 11 -18 18 -18 9 0 12 6 9 15 -4 8 -1 15 5 15
22 0 51 40 51 70 0 38 15 39 28 3 10 -26 10 -24 11 20 1 47 1 47 36 47 27 0
33 3 28 16 -4 10 1 17 16 21 11 3 21 12 21 19 0 25 29 15 45 -16 l16 -31 29
23 c16 13 27 29 25 36 -6 16 5 42 16 42 5 0 9 -9 9 -20 0 -11 5 -20 10 -20 16
0 12 59 -6 90 -17 28 -14 60 7 60 7 0 9 -9 6 -22 -5 -21 -5 -21 7 -5 19 25 32
21 44 -15 8 -26 10 -28 11 -10 1 15 7 22 21 22 11 0 20 5 20 10 0 6 -4 10 -9
10 -5 0 0 17 11 38 13 25 17 47 13 70 -5 29 -4 33 12 30 13 -2 19 -14 21 -41
4 -41 22 -51 22 -12 0 14 7 28 15 31 21 8 19 24 -2 21 -10 -1 -19 3 -20 8 -4
15 49 12 68 -3 15 -11 17 -9 23 22 5 28 10 33 26 29 20 -5 25 4 20 36 -1 7 9
22 21 34 20 18 20 21 5 32 -25 19 -21 47 7 43 16 -2 23 -11 25 -30 2 -16 7
-28 11 -28 13 0 21 58 15 101 -4 22 -2 39 3 39 12 0 34 -85 27 -105 -3 -8 -1
-15 5 -15 10 0 16 27 12 58 -1 6 7 12 19 12 18 0 19 2 8 20 -11 17 -10 22 10
35 12 9 22 25 22 36 0 21 10 25 26 9 5 -5 19 -7 32 -4 25 7 30 42 10 63 -11
10 -8 11 15 6 24 -7 27 -5 27 20 0 15 -8 34 -17 41 -11 8 -13 13 -5 14 6 0 12
9 12 21 0 31 23 18 35 -19 5 -18 12 -32 16 -32 13 0 20 20 12 33 -10 16 -13
67 -3 67 4 0 5 11 2 25 -2 14 -1 25 4 24 5 -2 27 6 49 16 l40 18 -37 10 c-47
13 -50 30 -5 25 27 -2 33 1 35 20 3 19 6 21 18 11 11 -9 14 -8 14 4 0 12 29
34 34 25 1 -2 7 -14 14 -28 l12 -25 -3 30 c-2 25 -6 30 -27 28 -41 -3 -54 5
-40 23 9 10 16 12 24 4 18 -18 27 -11 15 11 -9 17 -8 24 6 38 16 15 17 14 12
-7 -4 -16 1 -25 14 -33 11 -6 24 -20 29 -32 14 -35 18 49 5 103 -5 21 -2 27
25 37 29 11 30 13 18 35 -7 12 -20 29 -28 36 -13 11 -12 12 7 7 12 -3 24 -1
28 5 3 5 28 10 56 10 28 0 49 5 49 11 0 6 -8 8 -19 4 -11 -3 -26 1 -35 10 -18
18 -11 42 7 27 20 -15 65 -23 72 -12 3 5 -1 10 -9 10 -11 0 -16 9 -16 30 0 30
-14 41 -23 18 -3 -10 -9 -8 -23 4 -17 16 -16 18 11 28 22 8 31 7 46 -6 21 -19
39 -11 39 16 0 10 5 22 11 25 7 5 3 15 -11 30 -22 23 -15 40 13 29 16 -6 27
32 27 91 0 18 7 38 15 45 13 10 15 9 15 -11 0 -22 2 -22 20 9 11 18 20 34 20
36 0 3 -13 7 -29 11 -32 7 -58 31 -47 42 4 4 15 2 26 -5 25 -15 32 -4 32 53 1
24 5 42 10 39 4 -3 8 2 8 10 0 9 7 16 15 16 8 0 15 -9 15 -20 0 -11 7 -20 15
-20 8 0 15 5 15 10 0 6 7 10 15 10 8 0 15 -5 15 -12 0 -29 18 11 27 60 9 44 8
52 -4 48 -8 -3 -17 2 -20 12 -4 9 -12 21 -20 25 -23 14 -15 30 12 23 19 -5 25
-2 25 9 0 9 5 13 11 10 5 -4 19 1 29 10 16 15 22 15 35 5 12 -10 15 -10 15 2
0 8 -5 19 -12 26 -8 8 -8 15 1 26 6 7 11 18 10 22 -1 5 -1 16 0 24 1 13 3 13
10 1 10 -16 51 -26 51 -12 0 5 -9 11 -20 14 -23 6 -27 37 -6 37 10 0 16 14 18
43 4 40 4 41 15 17 12 -27 19 -19 25 28 4 31 22 29 26 -3 2 -14 8 -25 13 -25
5 0 7 11 3 24 -3 14 -1 27 6 31 8 5 8 10 2 14 -15 9 -20 87 -4 84 6 -2 12 1
12 6 0 5 10 11 23 13 19 4 18 6 -11 14 -35 10 -44 31 -11 27 16 -2 18 1 13 22
-8 30 -5 31 41 4 39 -24 50 -19 60 24 8 29 -8 38 -19 11 -10 -27 -19 -8 -11
24 3 18 14 32 26 35 28 7 24 27 -6 27 -31 0 -33 25 -5 42 21 13 27 38 10 38
-5 0 -10 -4 -10 -10 0 -5 -5 -10 -11 -10 -6 0 -9 8 -7 18 2 9 11 16 20 14 11
-2 19 11 27 43 9 38 15 45 30 40 27 -8 48 21 33 46 -15 24 -15 29 0 29 20 0
47 -31 41 -48 -4 -13 -3 -14 6 -6 8 7 9 19 3 34 -7 19 -4 29 15 49 29 32 31
55 3 46 -15 -5 -20 -2 -20 10 0 9 9 19 20 22 11 3 23 17 26 32 3 14 10 41 16
58 5 18 9 48 8 65 -1 18 -2 40 -1 48 2 24 21 -10 21 -37 0 -13 6 -23 14 -23
16 0 28 37 14 46 -5 3 -7 12 -4 19 2 7 -2 16 -10 19 -9 3 -12 10 -9 16 4 6 19
4 42 -5 20 -8 38 -13 40 -11 3 2 7 38 10 80 3 42 10 79 14 82 5 3 9 0 9 -5 0
-6 9 -11 20 -11 11 0 20 4 20 8 0 5 -9 18 -20 30 -24 25 -25 32 -5 32 8 0 15
9 15 20 0 27 26 25 35 -2 6 -19 8 -20 12 -6 2 10 -6 36 -18 58 -23 41 -21 62
5 41 16 -13 55 -2 75 23 14 17 10 19 -26 16 -15 -1 -23 4 -23 14 0 13 6 15 27
10 22 -6 25 -4 20 10 -4 9 -2 16 3 16 6 0 10 5 10 10 0 6 -7 10 -15 10 -17 0
-20 16 -5 25 6 3 10 17 10 31 0 33 28 31 32 -3 2 -14 8 -28 15 -30 8 -3 10 6
8 26 -4 30 7 41 20 21 12 -19 22 -10 17 16 -3 15 -13 29 -23 31 -11 3 -19 9
-19 13 0 4 -10 10 -22 13 -18 5 -19 9 -9 21 11 13 17 13 46 -4 36 -20 57 -11
34 16 -16 19 -4 30 16 14 13 -11 15 -9 15 13 0 57 49 110 71 76 6 -10 9 -6 9
13 0 15 -4 30 -10 33 -5 3 -10 1 -10 -4 0 -6 -5 -11 -10 -11 -6 0 -9 12 -7 28
3 18 9 26 20 24 11 -2 15 2 11 13 -3 8 -1 15 6 15 6 0 9 4 5 9 -3 5 5 11 17
13 31 4 37 52 11 76 -11 9 -22 25 -26 35 -3 9 -13 17 -21 17 -18 0 -40 36 -31
51 4 5 21 7 41 3 22 -4 34 -2 34 5 0 6 5 11 10 11 6 0 10 -9 10 -21 0 -14 -5
-19 -13 -16 -8 3 -20 1 -28 -4 -10 -6 -6 -9 15 -9 24 0 27 -2 16 -15 -17 -20
9 -21 36 0 28 21 47 19 41 -4 -3 -12 4 -28 18 -41 18 -17 29 -20 66 -14 24 4
38 9 31 12 -6 2 -12 9 -12 16 0 8 18 12 52 11 47 0 53 2 54 22 2 42 12 53 49
53 38 0 59 25 35 40 -18 11 5 34 43 44 16 4 27 13 27 24 0 9 4 24 10 32 7 12
12 12 34 0 33 -17 38 -12 44 50 5 52 29 67 25 16 -4 -57 43 -6 54 58 4 27 2
37 -11 42 -25 9 -8 25 20 18 13 -3 24 -2 24 4 0 5 13 12 29 15 28 6 64 47 41
47 -5 0 -10 7 -10 15 0 10 7 15 18 13 11 -2 18 5 20 20 2 13 14 27 27 32 17 6
25 18 27 41 2 18 9 35 17 37 10 3 12 -2 7 -22 -4 -15 -2 -26 4 -26 5 0 10 4
10 9 0 5 12 23 26 40 21 25 23 32 11 37 -18 7 -30 32 -21 46 4 5 13 3 24 -7 9
-8 24 -13 32 -10 22 9 68 105 68 143 0 33 16 43 27 16 10 -26 23 5 16 41 -5
25 -3 28 8 18 22 -22 32 -14 15 12 -21 32 -20 38 7 30 18 -6 20 -5 10 6 -15
15 -17 69 -3 69 6 0 10 -5 10 -12 0 -6 7 -3 15 8 14 18 14 18 15 -6 1 -36 20
-5 20 33 0 28 14 37 23 15 3 -7 6 -1 6 14 1 15 -3 30 -9 33 -20 12 -10 27 14
21 32 -8 53 22 29 40 -19 13 -9 36 12 27 9 -3 15 1 15 11 0 9 7 16 15 16 8 0
16 8 17 18 0 9 2 23 2 30 1 8 9 18 19 23 12 7 16 17 12 30 -4 12 -1 21 9 25 9
3 16 15 16 25 0 10 5 19 10 19 6 0 10 7 10 16 0 11 -6 14 -21 9 -15 -5 -20 -3
-17 6 2 7 14 13 26 14 25 2 51 31 52 57 0 9 5 20 11 23 6 4 8 22 4 46 -4 25
-3 39 4 39 6 0 11 -5 11 -11 0 -5 5 -7 10 -4 17 11 11 44 -10 55 -23 13 -27
40 -5 40 8 0 15 -4 15 -10 0 -18 18 -10 23 10 3 11 2 20 -3 20 -4 0 -7 8 -6
18 1 12 -5 16 -21 14 -16 -2 -23 2 -23 12 0 9 -4 16 -8 16 -5 0 -7 -28 -6 -62
2 -57 -5 -77 -27 -78 -10 0 -7 34 4 48 12 15 11 16 -37 28 -48 11 -60 34 -19
34 16 0 34 -5 41 -12 9 -9 12 -7 12 9 0 25 -15 39 -25 23 -8 -12 -45 -13 -45
-1 0 5 14 14 32 20 17 6 29 13 26 16 -8 8 -56 -12 -85 -34 -14 -12 -19 -22
-13 -26 7 -4 6 -15 -4 -33 -37 -68 -66 -161 -60 -192 6 -27 4 -31 -11 -28 -14
2 -20 -5 -25 -27 -4 -16 -13 -40 -21 -52 -12 -20 -11 -26 5 -54 18 -31 18 -31
-3 -24 -21 6 -30 -8 -11 -20 6 -3 10 -13 10 -21 0 -8 -4 -14 -10 -14 -5 0 -10
9 -10 20 0 11 -4 20 -10 20 -5 0 -10 -6 -10 -13 0 -8 -11 -24 -25 -37 -14 -13
-25 -29 -25 -35 0 -7 -9 -20 -19 -29 -11 -10 -25 -32 -32 -49 -7 -18 -21 -41
-31 -51 -17 -19 -23 -41 -20 -76 1 -8 -1 -22 -4 -30 -5 -13 -7 -12 -15 3 -6 9
-7 22 -4 27 3 6 2 10 -4 10 -5 0 -11 -23 -13 -52 -2 -30 -8 -53 -15 -56 -7 -2
-13 5 -13 15 -1 17 -1 17 -11 1 -5 -10 -16 -18 -23 -18 -16 0 -26 -22 -26 -57
0 -17 -4 -23 -14 -20 -7 3 -23 -7 -35 -24 l-22 -29 28 -11 c20 -8 24 -13 13
-17 -8 -3 -20 -12 -26 -20 -7 -9 -19 -13 -33 -9 -15 4 -21 1 -21 -12 0 -10 -8
-35 -18 -55 -15 -30 -20 -35 -25 -21 -4 9 -4 29 -1 43 6 22 4 25 -7 14 -7 -7
-12 -27 -11 -45 2 -35 -30 -83 -48 -72 -5 3 -10 -3 -10 -14 0 -17 -5 -20 -30
-15 -26 6 -29 4 -28 -17 3 -51 -2 -79 -16 -79 -7 0 -16 -13 -19 -30 -6 -27 -9
-29 -37 -24 -25 6 -30 3 -30 -13 0 -11 -9 -28 -20 -38 -18 -16 -25 -14 -21 8
0 4 -4 7 -9 7 -17 0 -11 -38 8 -49 14 -8 15 -12 5 -22 -8 -8 -13 -9 -13 -2 0
13 -48 24 -56 12 -3 -5 1 -9 8 -9 8 0 23 -6 34 -14 14 -11 16 -18 8 -26 -8 -8
-14 -9 -18 -1 -12 20 -36 12 -36 -11 0 -19 -2 -20 -11 -8 -8 11 -12 12 -16 3
-8 -22 -30 -14 -58 20 -61 75 -120 137 -131 137 -7 0 -20 20 -30 45 -11 30
-22 44 -31 41 -7 -3 -13 1 -13 10 0 35 -62 123 -82 117 -5 -2 -8 10 -8 26 0
51 -17 84 -41 78 -19 -5 -20 -3 -14 29 5 30 4 35 -12 32 -15 -3 -18 3 -15 34
2 31 0 37 -13 32 -10 -4 -15 0 -15 10 0 9 -5 16 -10 16 -6 0 -10 6 -9 13 4 30
-2 45 -18 43 -10 0 -19 7 -21 17 -2 10 3 17 12 17 20 0 20 5 2 33 -8 12 -14
41 -14 65 -1 24 -8 54 -16 67 -9 14 -16 30 -16 37 0 7 -12 23 -27 36 l-28 23
33 -5 32 -5 0 46 c0 32 5 50 18 59 15 12 14 13 -10 14 -16 0 -28 5 -28 10 0 6
-7 10 -15 10 -8 0 -15 7 -15 15 0 9 7 18 15 21 23 9 20 75 -4 81 -12 3 -17 11
-14 19 4 10 0 12 -12 8 -13 -5 -16 -3 -13 7 3 8 12 13 21 13 16 -2 30 43 16
52 -5 3 -9 0 -9 -5 0 -6 -9 -11 -20 -11 -11 0 -20 4 -20 9 0 4 9 20 20 34 26
32 25 35 -6 47 -21 8 -24 13 -15 24 9 10 9 16 1 21 -8 5 -8 11 1 21 9 12 6 14
-20 14 -34 0 -36 5 -21 44 12 31 3 57 -16 49 -8 -3 -14 1 -14 10 0 12 -24 31
-33 26 -1 0 -6 -2 -12 -4z m581 -1600 c-4 -15 1 -28 15 -41 41 -37 43 -52 9
-84 -24 -22 -32 -26 -37 -14 -3 7 -12 14 -20 14 -8 0 -12 4 -8 9 3 5 1 12 -5
16 -15 10 -12 35 5 35 19 0 19 9 0 34 -12 15 -18 17 -27 8 -16 -16 -19 -44 -6
-60 8 -9 8 -16 1 -23 -14 -14 -38 22 -48 69 -5 26 -4 32 11 32 10 0 26 8 37
17 18 17 19 17 32 0 12 -16 13 -16 18 4 3 13 10 18 17 14 6 -4 9 -17 6 -30z"/>
</g>
</svg>
