<?xml version="1.0" standalone="no"?>
<!DOCTYPE svg PUBLIC "-//W3C//DTD SVG 20010904//EN"
 "http://www.w3.org/TR/2001/REC-SVG-20010904/DTD/svg10.dtd">
<svg version="1.0" xmlns="http://www.w3.org/2000/svg"
 width="1291.000000pt" height="1786.000000pt" viewBox="0 0 1291.000000 1786.000000"
 preserveAspectRatio="xMidYMid meet">
<metadata>
Created by potrace 1.16, written by Peter Selinger 2001-2019
</metadata>
<g transform="translate(0.000000,1786.000000) scale(0.100000,-0.100000)"
fill="#ffffff" stroke="none">
<path d="M4877 4053 c-13 -21 -27 -51 -30 -68 -4 -16 -9 -40 -13 -51 -4 -17
-1 -22 20 -26 19 -4 27 0 31 13 7 20 25 26 25 8 0 -37 -56 -82 -71 -58 -6 11
-11 11 -21 1 -8 -8 -8 -12 -1 -12 6 0 11 -18 11 -41 1 -31 -3 -39 -14 -35 -8
3 -14 1 -14 -3 0 -5 -3 -16 -6 -25 -4 -11 -1 -16 10 -16 9 0 16 -5 16 -11 0
-6 7 -8 16 -5 11 4 19 -4 30 -29 22 -53 16 -63 -15 -27 -32 38 -37 39 -44 11
-3 -12 -10 -18 -16 -14 -7 3 -11 -3 -11 -15 0 -12 -5 -31 -11 -42 -8 -16 -8
-23 2 -29 11 -8 11 -11 -3 -20 -12 -7 -18 -22 -18 -49 0 -21 -4 -40 -9 -42 -4
-1 -10 -25 -13 -51 -5 -43 -4 -47 13 -42 25 8 24 -3 -6 -47 -26 -38 -32 -72
-16 -82 5 -4 12 12 16 34 4 22 11 38 16 34 13 -8 11 -64 -3 -64 -6 0 -4 -7 5
-18 29 -31 13 -47 -16 -17 -13 12 -15 9 -21 -26 -3 -21 -3 -51 0 -64 7 -29 -9
-34 -26 -7 -10 15 -11 15 -7 -4 2 -12 0 -29 -5 -38 -6 -10 -5 -16 2 -16 5 0
10 -9 10 -20 0 -13 -5 -18 -15 -14 -19 8 -20 -14 -1 -35 19 -21 32 -77 32
-128 -1 -46 -17 -58 -28 -21 -5 18 -6 19 -7 4 -1 -12 -6 -16 -16 -12 -8 3 -15
2 -15 -2 0 -4 -3 -18 -7 -31 -4 -16 -3 -22 5 -17 6 3 13 2 17 -4 3 -5 11 -10
17 -10 6 0 3 9 -7 20 -10 11 -15 23 -11 27 14 14 46 -42 46 -79 0 -20 5 -40
10 -43 6 -3 10 -17 10 -30 0 -13 -4 -27 -10 -30 -5 -3 -10 -1 -10 4 0 12 -39
15 -64 5 -8 -3 -12 -12 -9 -20 3 -8 -3 -24 -12 -34 -17 -19 -17 -21 -2 -38 22
-24 21 -32 -3 -32 -22 0 -34 -32 -27 -76 4 -29 4 -28 6 4 1 36 15 42 31 12 8
-15 7 -26 -7 -46 -10 -16 -17 -46 -17 -75 0 -34 -4 -49 -13 -49 -31 0 -9 -29
38 -48 31 -13 48 -26 44 -32 -4 -6 -13 -9 -21 -6 -8 3 -14 -1 -14 -10 0 -12
-6 -15 -21 -11 -20 5 -21 3 -16 -33 3 -22 12 -47 21 -55 24 -24 20 -35 -14
-35 -23 0 -30 -5 -30 -19 0 -17 15 -26 73 -45 23 -7 21 -20 -6 -35 -16 -9 -30
-9 -50 -2 -35 14 -35 25 0 18 26 -5 26 -4 8 9 -11 7 -26 18 -32 24 -10 8 -13
0 -13 -41 0 -42 3 -52 20 -56 22 -6 26 -18 9 -29 -6 -3 -16 0 -21 7 -8 11 -9
10 -4 -4 3 -9 0 -28 -6 -42 -13 -30 -9 -36 19 -29 15 4 20 12 18 25 -2 12 3
23 11 26 9 3 14 13 11 24 -3 11 -1 19 3 19 12 0 50 -50 50 -66 0 -8 7 -14 15
-14 9 0 15 -9 15 -25 0 -22 3 -24 25 -15 14 5 25 6 25 2 0 -4 4 0 10 8 12 20
23 6 15 -20 -6 -18 -13 -21 -48 -18 -35 2 -43 7 -45 26 -2 12 -9 22 -17 22 -7
0 -16 8 -18 18 -4 13 -5 11 -6 -5 -1 -17 -7 -23 -25 -23 -31 0 -42 -16 -19
-29 16 -8 15 -11 -7 -29 l-25 -20 -3 29 c-2 16 -7 29 -13 29 -13 0 -11 -67 2
-76 8 -5 6 -10 -5 -16 -16 -9 -16 -11 1 -24 17 -13 17 -15 1 -28 -23 -17 -23
-52 -1 -60 12 -5 13 -10 5 -18 -6 -6 -8 -16 -5 -23 2 -8 -5 -23 -17 -35 -14
-14 -20 -29 -16 -43 3 -11 1 -26 -5 -33 -7 -8 -7 -14 1 -19 5 -3 10 -1 10 4 0
14 37 14 45 0 4 -5 0 -18 -8 -27 -7 -9 -18 -26 -22 -37 -8 -18 -9 -17 -13 8
-5 40 -22 33 -24 -10 -5 -110 -4 -118 15 -134 23 -19 14 -43 -12 -36 -14 3
-18 -2 -18 -24 0 -16 4 -29 9 -29 16 0 8 -29 -9 -33 -17 -4 -17 -5 0 -6 18 -1
25 -31 6 -31 -5 0 -8 -4 -5 -9 3 -5 -1 -25 -9 -45 -15 -36 -12 -62 6 -51 5 4
9 1 9 -4 0 -6 11 -11 25 -11 38 0 30 -18 -15 -31 -22 -7 -40 -18 -40 -26 0 -7
-5 -13 -12 -13 -6 0 -3 -9 7 -20 10 -11 13 -20 8 -20 -14 0 -22 -67 -9 -80 6
-6 4 -15 -4 -25 -11 -13 -10 -19 5 -35 16 -18 16 -20 2 -20 -22 0 -29 -44 -25
-159 3 -69 0 -95 -9 -98 -7 -3 -13 -20 -13 -38 0 -38 -15 -54 -59 -59 -17 -2
-33 -5 -34 -7 -2 -2 -11 -17 -21 -32 -16 -26 -21 -28 -54 -21 -59 11 -85 6
-110 -24 -21 -25 -22 -25 -17 -4 4 12 2 22 -3 22 -6 0 -13 -11 -16 -25 -7 -29
-26 -24 -26 7 0 17 -4 19 -27 14 -16 -4 -34 -7 -40 -8 -8 -1 -13 -17 -13 -40
0 -54 -24 -45 -28 10 -4 47 -32 62 -32 17 0 -25 -14 -33 -25 -15 -4 6 -11 8
-16 5 -5 -4 -13 5 -19 19 -11 30 -13 30 -40 14 -15 -10 -23 -9 -39 6 -21 19
-21 19 -21 0 -1 -18 -32 -64 -44 -64 -3 0 -6 12 -6 28 0 20 -3 23 -9 13 -8
-12 -12 -10 -22 11 l-12 27 -18 -22 -18 -22 -1 33 c0 23 -5 32 -16 32 -10 0
-14 -6 -10 -15 3 -8 1 -15 -4 -15 -9 0 -14 14 -11 33 0 4 -13 7 -30 7 -17 0
-38 7 -46 16 -9 9 -26 14 -39 11 -14 -2 -25 2 -28 9 -3 8 -10 14 -16 14 -6 0
-26 11 -44 25 -38 29 -46 31 -46 10 0 -8 -4 -15 -10 -15 -5 0 -10 13 -10 29 0
22 -6 31 -29 41 -20 8 -31 22 -36 43 l-8 32 -6 -39 c-5 -32 -8 -37 -18 -25 -6
8 -13 25 -16 39 -2 14 -5 2 -6 -27 -1 -53 -16 -78 -28 -47 -10 25 14 127 33
141 14 10 14 17 5 44 -8 23 -8 36 -1 43 7 7 -1 14 -27 22 l-38 12 45 1 c32 1
41 4 30 11 -8 5 -25 7 -37 3 -29 -7 -32 23 -3 32 10 3 29 22 40 41 15 23 29
34 46 34 15 0 24 6 24 15 0 8 9 15 19 15 21 0 37 17 27 27 -3 3 -12 0 -21 -7
-18 -15 -30 -7 -22 14 7 18 57 18 69 1 5 -6 8 -3 8 8 0 9 4 17 9 17 5 0 11 10
15 23 5 19 8 20 17 7 8 -12 12 -12 16 -2 4 10 8 10 21 0 13 -11 15 -10 9 5 -7
18 17 25 28 7 9 -15 35 -12 35 4 0 20 18 30 33 18 7 -6 40 -16 75 -22 34 -7
62 -16 62 -21 0 -8 86 -51 128 -63 13 -5 22 -15 22 -27 0 -12 7 -19 19 -19 11
0 23 -9 26 -20 9 -29 93 -113 105 -105 5 3 9 -2 8 -12 0 -10 0 -26 0 -37 2
-16 4 -16 23 5 l20 24 -6 -36 c-6 -43 2 -72 20 -65 15 5 25 -14 26 -47 l0 -22
11 23 c16 31 26 27 24 -9 -2 -57 21 -43 29 16 7 62 25 65 25 4 0 -28 4 -39 15
-39 18 0 19 -12 3 -28 -9 -9 -9 -12 0 -12 18 0 33 37 30 75 -5 61 17 42 25
-22 9 -66 16 -74 38 -47 11 14 11 18 -4 29 -25 18 -22 55 4 55 15 0 19 -4 15
-16 -4 -11 -1 -14 12 -12 9 2 23 -3 29 -12 11 -13 14 -13 23 0 7 11 5 16 -5
18 -8 2 -15 7 -15 12 0 5 -16 14 -35 20 -19 6 -35 12 -35 13 -1 29 -22 123
-30 132 -16 19 -47 7 -55 -22 -9 -36 -35 -73 -51 -73 -18 0 -18 14 1 30 8 7
15 21 15 31 0 10 5 21 10 24 6 3 10 23 11 43 0 20 3 31 6 24 7 -17 23 -5 23
19 0 10 -6 19 -14 19 -8 0 -22 7 -30 16 -18 18 -20 7 -6 -30 9 -24 8 -25 -15
-14 -13 6 -25 20 -27 32 -5 32 -20 25 -33 -14 -11 -30 -14 -32 -20 -15 -3 11
-10 27 -15 36 -11 20 2 81 18 87 16 5 16 -35 0 -41 -8 -3 -6 -6 5 -6 29 -2 23
61 -8 75 -23 11 -24 10 -27 -25 -2 -23 -9 -37 -19 -39 -12 -2 -17 7 -21 40 -7
61 -37 122 -53 108 -17 -14 -45 -2 -45 21 0 28 -13 23 -34 -14 l-19 -32 -14
30 c-10 21 -13 23 -9 8 5 -29 -14 -42 -21 -14 -6 23 -19 28 -26 9 -2 -7 -12 6
-22 29 -17 44 -41 56 -52 27 -3 -8 -1 -26 5 -38 7 -17 7 -27 -1 -35 -22 -22
-29 -10 -22 39 5 34 3 50 -4 50 -6 0 -11 -9 -11 -20 0 -11 -4 -20 -10 -20 -5
0 -10 9 -10 20 0 11 -5 20 -11 20 -6 0 -9 7 -6 15 4 8 1 17 -4 21 -7 4 -8 -9
-4 -39 6 -36 4 -45 -10 -50 -17 -7 -84 52 -86 75 0 7 -4 3 -9 -9 -5 -13 -24
-32 -42 -43 l-33 -20 -17 23 c-15 19 -20 20 -35 9 -29 -20 -43 -25 -51 -18 -3
4 0 11 8 16 8 5 11 12 8 15 -10 10 -28 -4 -28 -21 0 -8 -7 -14 -15 -14 -8 0
-15 -7 -15 -16 0 -9 -5 -12 -12 -8 -10 6 -10 4 0 -7 15 -16 16 -29 1 -29 -7 0
-18 -8 -25 -17 -12 -16 -13 -16 -14 8 0 18 -7 28 -20 32 -11 3 -20 1 -20 -4 0
-5 5 -9 10 -9 6 0 10 -7 10 -15 0 -17 -16 -20 -25 -5 -12 19 -26 10 -20 -11 6
-18 4 -21 -12 -17 -27 7 -53 -9 -53 -32 0 -11 -4 -20 -10 -20 -5 0 -10 -6 -10
-14 0 -8 -8 -21 -17 -28 -10 -7 -19 -19 -21 -27 -2 -8 -10 -19 -17 -25 -8 -6
-16 -31 -17 -56 -3 -41 -6 -45 -31 -50 l-28 -5 29 -32 c16 -18 34 -33 40 -33
16 0 15 -37 -1 -47 -7 -4 -17 -27 -23 -50 -10 -39 -10 -43 7 -43 13 0 19 7 19
24 0 32 10 56 22 56 6 0 8 -14 4 -34 -8 -39 1 -66 20 -66 8 0 14 -10 14 -21 0
-17 3 -19 14 -10 11 9 15 9 19 -1 4 -8 6 -7 6 5 1 10 -6 17 -16 17 -16 0 -16
1 -1 16 23 23 38 9 38 -37 0 -32 3 -39 20 -39 23 0 27 -29 8 -48 -7 -7 -8 -12
-2 -12 6 0 15 5 22 12 22 22 24 -1 3 -28 -22 -28 -28 -69 -11 -79 6 -3 10 -2
10 4 0 6 18 29 40 53 22 24 40 49 40 56 0 6 5 12 10 12 16 0 12 -30 -8 -58
-23 -33 -34 -62 -24 -62 4 0 18 16 31 35 13 19 27 35 32 35 5 0 9 11 9 25 0
14 5 25 10 25 6 0 10 -21 10 -46 0 -44 1 -45 28 -42 23 3 27 -1 30 -25 3 -26
1 -27 -25 -21 -15 4 -31 11 -34 17 -4 5 -9 4 -14 -3 -4 -6 -13 -9 -21 -6 -8 3
-14 1 -14 -4 0 -6 5 -10 10 -10 6 0 10 -15 10 -34 0 -29 4 -34 28 -38 25 -3
28 -1 24 18 -2 14 -9 21 -18 17 -8 -3 -14 1 -14 10 0 19 26 29 37 14 12 -17
30 -57 38 -84 7 -27 18 -29 35 -8 10 13 9 15 -9 15 -25 0 -26 15 -6 64 12 27
21 36 40 36 22 0 24 -3 18 -32 -14 -65 -10 -83 18 -86 22 -3 28 3 44 43 11 25
23 45 27 45 12 0 10 -38 -2 -45 -6 -4 -8 -11 -4 -16 3 -6 11 -3 19 7 12 16 13
16 24 -4 11 -20 8 -26 -11 -23 -5 0 -8 -5 -8 -13 0 -9 8 -12 25 -8 14 2 25 8
25 13 0 5 5 9 10 9 6 0 10 -9 10 -21 0 -33 25 -16 28 19 3 32 22 46 22 17 0
-10 7 -15 18 -13 13 2 16 -3 14 -23 -3 -24 0 -26 32 -25 19 1 38 5 42 9 13 13
23 7 38 -20 15 -28 16 -28 22 -5 3 12 13 22 20 22 8 0 14 5 14 10 0 6 -4 10
-10 10 -16 0 -12 26 7 41 15 12 16 12 11 -8 -4 -16 -2 -20 8 -16 10 4 14 -4
14 -28 0 -25 3 -30 12 -21 8 8 17 8 30 1 11 -6 20 -9 21 -7 1 2 8 12 15 23 7
11 15 28 18 38 4 9 12 17 20 17 24 0 26 -21 5 -44 -30 -31 -26 -44 4 -16 21
19 25 21 25 7 0 -9 5 -17 11 -17 7 0 9 10 5 25 -5 20 -3 25 13 25 11 0 27 7
36 17 14 14 18 14 26 2 7 -11 10 -9 15 9 7 24 20 29 27 10 3 -8 6 -6 6 5 1 24
21 22 21 -3 0 -13 7 -20 20 -20 14 0 20 6 18 18 -2 12 4 17 20 17 12 0 27 7
32 15 7 12 12 12 22 2 17 -17 31 -15 24 3 -3 8 -1 15 5 15 6 0 8 7 5 16 -8 22
11 44 39 44 30 0 37 10 20 27 -17 16 -20 43 -6 43 5 0 11 -5 13 -12 3 -8 11
-7 28 5 19 13 27 14 38 4 12 -9 16 -9 19 1 3 6 11 12 18 12 17 0 34 30 28 47
-3 7 8 13 28 15 18 2 35 9 37 17 3 10 0 12 -11 8 -8 -3 -23 3 -33 14 -9 10
-23 19 -31 19 -7 0 -13 4 -13 9 0 14 31 22 45 11 8 -7 19 -1 38 20 15 16 27
35 27 40 0 6 7 13 15 16 8 4 15 12 15 20 0 8 5 14 10 14 18 0 10 16 -9 17 -13
1 -20 -7 -24 -26 -7 -34 -64 -71 -109 -71 l-31 0 22 24 c13 14 30 22 41 19 30
-8 33 15 6 44 -15 15 -26 33 -26 40 0 18 57 16 64 -2 7 -19 16 -18 40 0 16 12
17 18 8 27 -18 18 -16 62 3 54 12 -4 15 3 15 30 0 21 -4 33 -10 29 -5 -3 -10
3 -10 14 0 12 6 21 14 21 9 0 12 8 8 25 -2 14 -7 25 -10 25 -10 0 -31 -35 -32
-53 0 -10 -5 -15 -10 -12 -7 4 -7 12 0 25 16 30 12 61 -9 67 -11 3 -22 11 -25
19 -9 25 49 17 67 -9 15 -22 15 -21 13 14 -2 20 -6 40 -9 45 -7 12 2 26 28 40
14 8 20 22 20 45 0 26 -5 35 -20 37 -26 5 -66 42 -59 54 3 5 15 2 25 -8 11 -9
21 -15 24 -12 10 10 -7 37 -26 43 -10 4 -19 13 -19 21 0 16 16 19 25 4 3 -5
19 -10 35 -10 15 0 30 -5 32 -12 3 -7 7 -6 11 5 5 13 1 17 -17 17 -31 0 -36 8
-26 36 6 14 6 26 0 29 -13 8 -13 65 -1 65 12 0 21 -26 21 -62 0 -33 22 -35 25
-2 1 10 3 24 5 29 5 21 -1 35 -15 35 -8 0 -15 7 -15 16 0 12 6 15 25 10 19 -5
23 -3 19 9 -4 8 1 17 10 21 23 9 20 27 -4 21 -26 -7 -25 9 0 51 17 27 18 37 9
48 -9 11 -8 19 6 34 12 13 14 20 6 20 -7 0 -19 7 -28 15 -13 14 -12 17 9 35
20 17 21 19 4 20 -13 0 -17 5 -13 20 5 21 -14 43 -35 39 -7 -1 -25 3 -40 9
-34 14 -39 52 -7 52 11 0 18 -4 15 -9 -6 -9 28 -26 77 -37 24 -6 27 -3 27 21
0 15 4 24 10 20 6 -3 10 2 10 12 0 12 -7 19 -20 19 -12 0 -20 -7 -20 -18 0 -9
-8 -22 -19 -27 -24 -13 -36 -2 -14 14 15 11 15 14 0 36 -20 28 -24 60 -5 41 7
-7 26 -12 44 -12 29 0 32 3 36 36 2 20 -2 43 -10 55 -17 25 -8 37 14 18 15
-12 16 -11 10 11 -14 50 -29 80 -38 80 -5 0 -8 8 -6 18 1 9 -1 23 -6 30 -12
20 2 28 24 14 11 -7 22 -12 26 -12 9 0 -8 43 -23 59 -15 14 -33 54 -33 72 0
21 21 6 39 -28 l20 -38 2 30 c6 79 -17 179 -39 170 -9 -3 -12 1 -10 12 5 27
37 28 47 1 7 -16 8 -7 4 32 -6 57 -13 74 -20 53 -3 -7 -12 -13 -20 -13 -10 0
-13 6 -9 16 3 9 6 18 6 20 0 2 14 4 30 4 25 0 30 4 30 24 0 13 3 31 6 40 5 13
-1 16 -25 16 -32 0 -49 19 -36 40 5 8 11 8 19 1 13 -11 26 -5 26 11 0 5 -11
13 -25 18 -19 7 -25 17 -25 40 0 20 5 30 15 30 20 0 19 10 -2 25 -16 12 -16
15 0 46 l17 34 0 -29 c0 -23 3 -26 13 -17 27 21 36 -8 11 -34 -13 -12 -14 -19
-4 -30 13 -16 35 -21 26 -7 -3 5 2 21 10 37 12 23 12 30 2 37 -27 18 -34 24
-62 56 -43 46 -8 43 39 -4 34 -34 62 -42 36 -10 -10 11 -9 16 2 23 18 10 32
53 18 53 -10 0 -7 102 3 119 4 5 2 12 -4 16 -6 4 -5 14 4 28 7 12 17 48 20 80
6 53 5 59 -14 64 -20 5 -29 43 -10 43 5 0 7 7 4 15 -4 9 0 15 10 15 10 0 13
-6 10 -15 -4 -8 -1 -15 4 -15 7 0 9 28 6 81 -2 44 0 78 5 75 11 -7 23 48 15
69 -4 8 -2 15 4 15 5 0 13 17 17 38 3 20 9 47 11 58 4 16 0 23 -15 27 -27 7
-27 27 -1 27 10 0 24 9 30 21 17 31 23 136 9 145 -8 5 -4 13 12 25 13 10 18
19 11 19 -9 0 -9 8 2 34 8 19 17 61 21 93 4 32 8 69 10 82 4 25 1 30 -61 79
-38 29 -49 32 -108 32 -65 0 -66 0 -89 -37z"/>
</g>
</svg>
