<?xml version="1.0" standalone="no"?>
<!DOCTYPE svg PUBLIC "-//W3C//DTD SVG 20010904//EN"
 "http://www.w3.org/TR/2001/REC-SVG-20010904/DTD/svg10.dtd">
<svg version="1.0" xmlns="http://www.w3.org/2000/svg"
 width="1291.000000pt" height="1786.000000pt" viewBox="0 0 1291.000000 1786.000000"
 preserveAspectRatio="xMidYMid meet">
<metadata>
Created by potrace 1.16, written by Peter Selinger 2001-2019
</metadata>
<g transform="translate(0.000000,1786.000000) scale(0.100000,-0.100000)"
fill="#ffffff" stroke="none">
<path d="M7639 3525 c-99 -8 -153 -17 -168 -27 -13 -9 -17 -18 -11 -20 8 -2 8
-11 1 -31 -16 -41 -14 -87 3 -87 27 0 27 -20 2 -32 -17 -7 -26 -19 -26 -34 0
-12 -4 -24 -9 -26 -4 -1 -5 -12 0 -23 6 -17 8 -17 8 -2 1 9 6 17 11 17 13 0
13 -47 0 -55 -8 -5 -8 -11 0 -20 6 -7 7 -20 4 -29 -6 -15 -8 -15 -20 1 -10 13
-13 14 -14 4 0 -8 -8 -24 -17 -35 -17 -20 -17 -20 0 -7 15 12 17 10 17 -20 0
-19 -5 -41 -10 -49 -8 -12 -10 -11 -10 8 0 12 -4 22 -10 22 -16 0 -12 -22 11
-59 17 -29 19 -38 8 -62 -6 -16 -16 -29 -22 -29 -5 0 -15 -8 -22 -17 -11 -15
-10 -22 6 -44 10 -15 19 -37 19 -48 0 -12 6 -21 14 -21 17 0 15 -42 -3 -63 -6
-8 -10 -19 -9 -25 3 -10 -1 -12 -24 -12 -9 0 -9 3 -1 11 9 9 6 16 -9 29 -22
17 -18 40 8 40 19 0 18 29 -1 36 -8 4 -15 15 -15 26 0 10 -5 16 -10 13 -6 -4
-10 -23 -9 -43 1 -20 -3 -52 -9 -69 -6 -18 -8 -33 -4 -33 4 0 7 -29 7 -65 0
-45 -4 -65 -12 -65 -7 0 -13 -7 -13 -16 0 -8 4 -13 9 -10 5 3 11 -3 14 -14 6
-23 3 -24 -24 -9 -20 10 -20 10 -4 -15 16 -23 15 -25 -4 -36 -12 -6 -21 -15
-21 -20 0 -15 28 -12 33 3 3 8 7 6 12 -7 6 -14 2 -24 -16 -37 -16 -13 -20 -21
-13 -26 18 -12 4 -73 -17 -82 -18 -6 -16 -10 15 -41 35 -34 52 -76 22 -51 -10
9 -16 9 -21 1 -4 -6 -16 -8 -27 -4 -17 5 -18 3 -10 -13 6 -10 8 -31 5 -46 -4
-18 0 -34 12 -47 11 -12 13 -20 7 -20 -7 0 -12 -4 -12 -10 0 -5 7 -10 15 -10
20 0 19 -19 -1 -27 -15 -6 -15 -7 1 -19 17 -13 17 -15 -9 -39 -15 -14 -31 -25
-37 -25 -5 0 -9 -11 -9 -25 0 -27 18 -33 38 -13 9 9 15 9 24 0 9 -9 7 -18 -8
-39 -27 -36 -44 -40 -44 -11 -1 21 -2 22 -14 6 -7 -10 -18 -18 -25 -18 -6 0
-11 -7 -11 -15 0 -10 10 -15 28 -16 26 0 26 -1 5 -9 -30 -12 -29 -35 3 -72 28
-34 19 -64 -11 -34 -22 22 -35 20 -35 -4 0 -13 5 -18 15 -14 8 4 15 2 15 -4 0
-16 -28 -64 -42 -73 -9 -6 -7 -10 7 -14 11 -4 31 -12 44 -18 22 -11 22 -12 5
-16 -10 -2 -22 -8 -26 -14 -4 -7 -11 -7 -22 2 -14 12 -16 10 -16 -15 0 -22 3
-26 10 -14 8 12 10 11 10 -8 0 -12 -7 -25 -15 -28 -13 -5 -13 -9 1 -35 14 -27
13 -29 -5 -29 -20 0 -37 -17 -27 -27 3 -3 12 0 21 7 26 22 18 -28 -9 -55 -14
-14 -21 -27 -15 -30 5 -4 2 -17 -7 -30 -9 -13 -14 -32 -11 -42 3 -14 7 -11 18
15 14 34 24 40 32 19 7 -19 -4 -68 -13 -62 -20 12 -19 -16 0 -35 15 -15 18
-25 12 -33 -5 -7 -13 -31 -17 -53 -5 -31 -2 -45 9 -57 9 -9 16 -20 16 -26 0
-5 9 -13 21 -16 16 -5 18 -10 8 -21 -16 -20 -45 -17 -61 5 -12 17 -14 7 -13
-70 0 -64 -4 -92 -13 -98 -10 -6 -5 -15 20 -35 l33 -27 -29 7 c-26 6 -28 5
-22 -11 4 -11 2 -21 -5 -26 -8 -4 -4 -14 11 -29 15 -15 19 -25 12 -32 -13 -13
-32 -2 -32 18 0 8 -5 12 -10 9 -6 -4 -7 -13 -1 -23 16 -32 21 -80 8 -85 -8 -2
-6 -12 6 -31 16 -24 17 -30 4 -44 -8 -10 -18 -24 -22 -32 -8 -13 -7 -13 8 -1
13 10 17 10 17 1 0 -14 51 -4 61 12 9 14 29 -23 29 -53 0 -18 2 -19 15 -9 8 7
12 17 9 22 -3 5 2 19 13 31 14 18 15 19 1 8 -17 -13 -38 -8 -38 10 0 5 15 9
33 9 26 0 40 -8 69 -43 26 -32 34 -48 27 -58 -8 -12 -12 -11 -23 4 -17 22 -26
22 -26 -2 0 -28 -20 -37 -27 -12 -3 12 -11 21 -19 21 -18 0 -26 -17 -11 -23 8
-3 21 -20 30 -39 11 -22 17 -27 17 -14 0 15 3 16 15 6 13 -10 15 -9 15 9 0 12
5 19 10 16 6 -3 10 -17 10 -31 0 -25 15 -33 23 -11 3 9 8 8 18 -4 11 -13 24
-15 58 -10 42 6 53 15 65 53 3 10 14 18 25 18 17 0 20 -5 15 -29 -5 -23 -2
-29 15 -34 15 -4 19 -10 14 -22 -5 -15 -2 -17 28 -11 19 3 52 9 74 12 22 4 46
13 52 22 17 21 27 9 13 -17 -7 -14 -7 -21 0 -21 6 0 16 11 22 25 6 14 18 25
27 25 12 0 12 -3 3 -12 -16 -16 -15 -28 3 -28 8 0 15 4 15 9 0 5 8 7 18 4 25
-6 86 51 80 75 -3 12 5 22 29 34 38 20 41 14 13 -22 -11 -14 -20 -33 -20 -42
0 -15 4 -16 25 -6 14 6 25 18 25 27 0 11 3 12 12 3 9 -9 5 -17 -16 -36 -20
-16 -24 -26 -16 -31 6 -4 17 -2 23 4 6 6 16 11 22 11 5 -1 -1 -10 -15 -21
l-25 -21 24 3 c17 3 28 14 36 39 6 19 19 36 28 38 18 4 23 -13 7 -23 -19 -12
-10 -22 15 -17 16 3 27 13 31 27 5 22 7 22 25 7 11 -10 24 -18 29 -18 6 -1 13
-2 16 -3 14 -3 -20 -31 -37 -31 -12 0 -16 -5 -13 -15 8 -19 54 -20 54 -1 0 7
6 19 14 25 7 6 11 22 8 36 -4 21 -1 24 14 19 28 -10 44 -34 44 -65 0 -21 6
-28 25 -32 20 -3 29 1 40 22 l14 26 1 -24 0 -23 36 27 c26 20 39 24 47 16 15
-15 27 -14 27 4 0 8 7 15 16 15 12 0 15 -6 10 -25 -6 -23 -5 -24 21 -14 14 5
32 8 39 5 7 -3 15 6 18 20 8 32 26 31 26 -3 0 -25 1 -26 13 -8 8 10 19 15 26
11 8 -5 14 0 18 13 6 23 23 29 23 9 0 -7 7 -4 16 7 14 19 15 19 20 -3 4 -12
10 -22 15 -22 16 0 79 62 79 79 0 9 5 23 10 31 7 12 12 7 24 -20 l15 -35 1 29
c0 22 3 27 11 19 14 -14 39 -6 39 13 0 8 6 11 15 8 17 -7 21 11 5 21 -5 3 -10
10 -10 16 0 12 37 12 45 -1 10 -16 23 -12 35 10 6 11 7 19 3 18 -4 -2 -9 2
-10 7 -1 6 5 9 12 9 11 -1 12 3 5 16 -13 25 -13 33 3 27 7 -3 21 1 31 9 14 10
17 20 12 40 -6 24 -5 26 8 15 17 -14 16 -16 21 76 0 12 4 25 8 29 4 4 4 18 1
30 -4 15 -2 24 5 24 12 0 14 -10 11 -54 -1 -20 2 -27 12 -24 24 8 10 180 -15
175 -7 -1 -12 5 -12 13 0 24 28 17 42 -10 13 -24 13 -23 9 15 -8 74 -42 190
-49 171 -4 -10 -5 -21 -2 -26 2 -4 -5 -16 -17 -26 l-21 -19 5 84 c4 75 3 81
-9 57 -14 -27 -53 -36 -53 -12 0 18 -25 27 -38 14 -13 -13 -62 19 -62 41 1 14
2 14 11 -1 13 -23 38 -23 55 0 7 9 14 12 14 6 0 -6 10 -9 24 -7 18 4 22 10 19
24 -7 26 -43 46 -43 24 0 -9 -4 -13 -10 -10 -5 3 -10 14 -10 24 0 10 -9 26
-21 36 -20 19 -20 19 -9 -10 l10 -30 -25 30 c-14 17 -25 26 -26 20 -1 -5 -5 1
-9 15 -8 24 -8 23 -9 -7 -1 -18 -6 -33 -12 -33 -8 0 -10 15 -7 44 6 49 -10 55
-30 10 -16 -34 -32 -30 -32 9 0 24 -3 28 -10 17 -8 -13 -10 -13 -10 1 0 9 -6
21 -13 28 -11 8 -13 4 -9 -21 6 -42 -17 -33 -32 12 -13 42 -26 44 -44 7 -16
-33 -32 -27 -32 14 0 16 -4 29 -10 29 -5 0 -10 -3 -10 -7 0 -5 -30 -8 -66 -9
-57 0 -70 3 -90 23 -32 32 -41 29 -49 -13 -7 -39 -20 -36 -28 6 l-4 25 -2 -27
c0 -15 6 -34 15 -42 14 -15 13 -16 -6 -16 -13 0 -24 8 -27 19 -4 17 -14 20
-64 19 -32 0 -59 -5 -59 -9 0 -5 -5 -9 -11 -9 -6 0 -8 9 -4 23 6 20 4 20 -17
-5 -13 -15 -34 -41 -48 -58 l-25 -31 -5 28 c-6 30 -27 30 -22 -1 2 -14 -2 -17
-15 -11 -33 12 -38 10 -35 -20 2 -28 1 -29 -12 -12 -10 12 -16 15 -21 7 -4 -6
-13 -9 -20 -6 -8 3 -16 0 -19 -7 -3 -8 -5 -7 -5 3 -1 10 -6 7 -17 -8 -8 -12
-19 -20 -23 -18 -4 3 -20 -6 -37 -20 -16 -13 -43 -31 -61 -38 -17 -8 -34 -24
-38 -36 -5 -15 -12 -19 -25 -15 -13 4 -26 -1 -37 -14 -10 -12 -22 -21 -28 -21
-15 0 -169 -130 -173 -146 -2 -8 -9 -14 -17 -14 -7 0 -15 -7 -19 -15 -8 -21
-29 -19 -57 5 l-24 20 24 21 c21 17 23 24 15 47 -5 15 -20 32 -34 39 l-24 12
27 10 c25 10 38 23 20 20 -19 -3 -33 2 -33 11 0 6 11 10 25 10 22 0 25 4 20
25 -3 14 -7 36 -10 49 -3 14 -1 27 5 31 5 3 7 12 4 20 -3 8 4 30 16 50 12 19
17 35 11 35 -6 0 -18 12 -28 26 -12 20 -14 30 -6 43 6 10 9 29 6 43 -3 17 2
33 15 46 31 31 36 69 12 99 -37 47 -17 88 30 63 19 -10 20 -10 8 9 -11 18 -10
23 7 35 11 8 17 17 13 21 -3 4 -16 -3 -27 -14 -18 -18 -51 -29 -51 -17 0 2 -3
13 -6 23 -6 15 -4 16 7 6 19 -18 34 -16 19 3 -11 13 -10 16 8 21 12 3 22 9 22
13 0 5 12 13 28 18 l27 10 -30 1 c-22 1 -33 8 -42 27 -10 22 -10 25 3 20 7 -3
14 -1 14 4 0 5 7 10 16 12 14 3 13 7 -5 30 -27 34 -27 38 8 38 35 0 44 24 28
77 -9 29 -9 37 1 41 10 3 8 7 -4 16 -24 18 -8 39 22 32 30 -8 34 18 5 33 -14
8 -22 7 -31 -4 -17 -21 -25 -19 -38 10 -14 30 -15 46 -4 44 4 -1 12 0 17 1 6
2 19 3 30 4 29 1 50 50 38 90 -7 25 -14 31 -36 31 -38 1 -43 11 -9 18 16 3 32
14 36 23 5 14 2 16 -26 10 -18 -3 -42 -16 -55 -28 -23 -21 -34 -13 -11 10 8 8
8 15 -1 26 -11 13 -9 16 11 20 12 3 39 2 58 -2 28 -6 36 -13 38 -35 2 -15 8
-27 13 -27 13 0 10 41 -5 69 -7 13 -11 33 -8 44 3 14 1 18 -6 13 -7 -4 -12 -2
-12 4 0 7 8 14 18 17 19 5 48 43 33 43 -6 0 -13 -5 -17 -11 -4 -8 -9 -7 -15 2
-4 8 -16 14 -25 14 -26 0 -28 22 -4 35 17 9 26 8 45 -4 30 -19 35 -20 35 -3 0
8 -11 19 -25 25 -26 12 -36 38 -10 28 17 -6 21 9 5 19 -5 3 -10 27 -10 52 0
38 2 44 14 34 11 -9 15 -9 19 1 4 10 7 11 18 1 7 -7 18 -13 23 -13 6 0 -4 12
-22 26 l-33 26 23 12 c20 10 24 9 30 -7 10 -25 27 -13 21 16 -4 21 -4 22 11 3
16 -19 16 -19 16 6 0 21 -4 25 -20 21 -11 -3 -20 0 -20 6 0 6 -11 11 -24 11
-14 0 -30 10 -41 26 -20 31 -12 44 13 21 14 -13 21 -14 30 -5 9 9 12 8 12 -5
0 -10 8 -17 20 -17 11 0 20 -6 21 -12 2 -23 17 36 18 70 1 18 8 41 17 49 10
11 14 26 10 43 -2 15 0 32 7 39 6 6 13 26 14 44 1 18 5 47 8 65 8 38 -6 43
-29 10 -9 -12 -19 -19 -23 -15 -4 4 10 25 31 46 43 44 50 70 61 221 4 52 11
105 16 118 7 18 5 22 -9 21 -9 -1 -83 -7 -163 -14z m754 -2275 c18 0 60 -7 95
-15 35 -8 68 -12 73 -9 6 3 19 -2 29 -11 10 -9 25 -15 32 -13 7 3 24 -6 38
-19 20 -19 26 -20 28 -8 4 20 22 9 22 -13 0 -10 19 -38 43 -64 58 -64 105
-160 113 -233 7 -73 23 -115 41 -108 9 4 11 0 7 -11 -3 -9 -10 -16 -14 -16 -4
0 -10 -19 -13 -42 -3 -24 -13 -64 -22 -91 -14 -38 -25 -50 -54 -63 -20 -8 -48
-22 -64 -29 -15 -8 -34 -12 -42 -9 -8 4 -15 1 -15 -5 0 -6 5 -11 11 -11 5 0 7
-5 4 -10 -4 -6 -16 -3 -32 10 -14 11 -37 20 -51 20 -21 0 -23 -2 -12 -16 11
-12 10 -18 -5 -32 -17 -16 -17 -16 -12 1 5 13 0 20 -19 27 -46 18 -93 12 -118
-15 -27 -29 -36 -31 -36 -10 0 22 -27 30 -46 14 -10 -8 -18 -9 -22 -2 -10 14
-58 22 -74 12 -10 -7 -8 -9 5 -9 10 0 15 -5 12 -10 -9 -15 -41 -12 -55 5 -7 8
-23 15 -35 15 -13 0 -25 5 -27 11 -5 16 -38 -1 -38 -20 0 -11 -9 -6 -28 17
-15 18 -30 32 -33 32 -4 0 -14 -18 -23 -40 -9 -22 -20 -40 -25 -40 -6 0 -4 15
4 34 13 31 11 46 -6 46 -4 0 -5 -8 -3 -17 5 -22 -6 -40 -26 -45 -8 -2 -21 -12
-28 -23 -12 -18 -13 -16 -8 17 4 33 2 38 -15 38 -30 0 -64 -20 -50 -29 9 -6 8
-11 -4 -21 -13 -11 -15 -10 -9 4 7 18 4 19 -20 10 -9 -3 -16 -13 -16 -22 0
-12 -3 -13 -11 -5 -6 6 -9 21 -7 34 2 16 -6 31 -23 46 -34 29 -53 30 -44 2 5
-15 4 -19 -4 -15 -6 4 -11 0 -11 -8 0 -9 5 -16 10 -16 11 0 13 -29 5 -52 -3
-7 -19 -13 -38 -12 -30 1 -32 4 -35 38 -3 35 -5 37 -28 32 -20 -5 -24 -3 -24
15 0 17 -3 19 -14 10 -11 -9 -15 -7 -19 9 -4 16 -13 20 -45 20 -24 0 -47 -7
-56 -16 -18 -18 -21 -50 -6 -59 19 -12 0 -26 -20 -15 -15 8 -18 17 -13 43 5
29 4 30 -9 13 -19 -25 -54 -14 -73 25 -18 33 -29 39 -20 9 5 -15 2 -20 -12
-20 -15 0 -16 -2 -3 -10 8 -5 11 -10 5 -10 -5 0 -3 -4 5 -10 21 -13 5 -23 -19
-11 -14 8 -22 8 -27 0 -12 -20 -22 12 -13 43 12 43 28 58 61 58 36 0 46 22 24
55 -20 30 -20 45 -2 45 10 0 12 7 8 22 -3 14 -2 19 6 14 9 -5 12 7 12 39 0 36
6 51 26 71 16 17 32 24 45 21 14 -4 19 0 19 14 0 11 11 24 25 31 14 6 25 19
25 30 0 10 7 18 15 18 17 0 56 20 66 34 4 5 13 5 20 1 11 -6 12 -5 2 6 -18 18
-16 30 2 23 8 -4 15 -1 15 6 0 7 8 10 19 7 13 -3 21 1 24 14 3 11 14 19 25 19
15 0 22 9 28 33 4 17 9 26 11 20 3 -7 14 -13 25 -13 16 0 19 5 15 21 -5 20 -5
20 13 4 18 -17 21 -16 50 14 18 17 40 31 50 31 10 0 25 9 32 19 8 11 20 19 28
19 38 -2 51 4 61 30 7 15 13 22 16 15 3 -7 13 -13 23 -13 29 0 133 29 144 40
6 6 14 3 22 -8 10 -12 13 -13 14 -3 0 7 6 11 15 7 8 -3 15 -1 15 4 0 14 34 17
48 3 7 -7 28 -13 45 -13z"/>
</g>
</svg>
